SplineFontDB: 3.0
FontName: LayijiMaHaNiYomV1.61
FullName: Layiji MaHaNiYom V1.61
FamilyName: Layiji MaHaNiYom V1.61
Weight: Book
Copyright: Copyright (c) 2015 by Numchoke sinmongkolraksa. All rights reserved.
Version: 1.61 2016
ItalicAngle: 0
UnderlinePosition: -124
UnderlineWidth: 90
Ascent: 1150
Descent: 410
InvalidEm: 0
sfntRevision: 0x00010f9e
LayerCount: 2
Layer: 0 1 "Back" 1
Layer: 1 1 "Fore" 0
XUID: [1021 318 -2145553614 23264]
StyleMap: 0x0040
FSType: 8
OS2Version: 3
OS2_WeightWidthSlopeOnly: 0
OS2_UseTypoMetrics: 0
CreationTime: 1458206706
ModificationTime: 1564244684
PfmFamily: 17
TTFWeight: 400
TTFWidth: 5
LineGap: 69
VLineGap: 0
Panose: 2 0 0 0 0 0 0 0 0 0
OS2TypoAscent: 1052
OS2TypoAOffset: 0
OS2TypoDescent: -390
OS2TypoDOffset: 0
OS2TypoLinegap: 69
OS2WinAscent: 1747
OS2WinAOffset: 0
OS2WinDescent: 829
OS2WinDOffset: 0
HheadAscent: 1052
HheadAOffset: 0
HheadDescent: -390
HheadDOffset: 0
OS2SubXSize: 1434
OS2SubYSize: 1331
OS2SubXOff: 0
OS2SubYOff: 293
OS2SupXSize: 1434
OS2SupYSize: 1331
OS2SupXOff: 0
OS2SupYOff: 928
OS2StrikeYSize: 96
OS2StrikeYPos: 369
OS2CapHeight: 1065
OS2XHeight: 775
OS2Vendor: 'Lay '
OS2CodePages: 600101bf.dff70000
OS2UnicodeRanges: a10002af.500078fb.00000000.00000000
Lookup: 6 0 0 "'liga' Standard Ligatures in Latin lookup 0" { "'liga' Standard Ligatures in Latin lookup 0 contextual 0"  "'liga' Standard Ligatures in Latin lookup 0 contextual 1"  "'liga' Standard Ligatures in Latin lookup 0 contextual 2"  } ['liga' ('latn' <'dflt' > ) ]

StartChar: .notdef
Encoding: 65536 -1 0
Width: 1484
VWidth: 2048
Flags: W
LayerCount: 2
Fore
SplineSet
162 1321 m 1,0,1
 169 1337 169 1337 181.5 1346.5 c 128,-1,2
 194 1356 194 1356 208 1358 c 128,-1,3
 222 1360 222 1360 235.5 1354.5 c 128,-1,4
 249 1349 249 1349 260 1336 c 1,5,6
 371 1345 371 1345 481.5 1347.5 c 128,-1,7
 592 1350 592 1350 702.5 1348.5 c 128,-1,8
 813 1347 813 1347 924 1344 c 128,-1,9
 1035 1341 1035 1341 1146 1341 c 1,10,11
 1154 1359 1154 1359 1169.5 1368 c 128,-1,12
 1185 1377 1185 1377 1202.5 1375.5 c 128,-1,13
 1220 1374 1220 1374 1235 1361 c 128,-1,14
 1250 1348 1250 1348 1258 1323 c 1,15,-1
 1258 1321 l 1,16,17
 1280 1297 1280 1297 1272 1268 c 1,18,19
 1276 1254 1276 1254 1279 1241.5 c 128,-1,20
 1282 1229 1282 1229 1284 1215 c 0,21,22
 1307 1063 1307 1063 1307.5 921.5 c 128,-1,23
 1308 780 1308 780 1300.5 640.5 c 128,-1,24
 1293 501 1293 501 1284 359.5 c 128,-1,25
 1275 218 1275 218 1278 66 c 0,26,27
 1276 36 1276 36 1260.5 19 c 128,-1,28
 1245 2 1245 2 1225.5 -0.5 c 128,-1,29
 1206 -3 1206 -3 1187.5 8.5 c 128,-1,30
 1169 20 1169 20 1162 46 c 1,31,32
 1054 41 1054 41 944 31 c 128,-1,33
 834 21 834 21 724.5 15 c 128,-1,34
 615 9 615 9 505.5 10.5 c 128,-1,35
 396 12 396 12 289 30 c 1,36,37
 280 8 280 8 262.5 -1.5 c 128,-1,38
 245 -11 245 -11 227 -8.5 c 128,-1,39
 209 -6 209 -6 194 9.5 c 128,-1,40
 179 25 179 25 176 53 c 2,41,-1
 176 61 l 1,42,43
 150 82 150 82 151.5 109.5 c 128,-1,44
 153 137 153 137 177 153 c 1,45,46
 180 292 180 292 184.5 423.5 c 128,-1,47
 189 555 189 555 190 684 c 128,-1,48
 191 813 191 813 186 943 c 128,-1,49
 181 1073 181 1073 166 1211 c 1,50,51
 146 1218 146 1218 135 1232.5 c 128,-1,52
 124 1247 124 1247 123 1263 c 128,-1,53
 122 1279 122 1279 131.5 1295 c 128,-1,54
 141 1311 141 1311 162 1321 c 1,0,1
297 146 m 1,55,56
 301 145 301 145 311 143 c 0,57,58
 417 126 417 126 523.5 127 c 128,-1,59
 630 128 630 128 736.5 136.5 c 128,-1,60
 843 145 843 145 949 155 c 128,-1,61
 1055 165 1055 165 1162 165 c 1,62,63
 1164 302 1164 302 1170.5 428.5 c 128,-1,64
 1177 555 1177 555 1181 679 c 128,-1,65
 1185 803 1185 803 1183 929.5 c 128,-1,66
 1181 1056 1181 1056 1166 1193 c 0,67,68
 1164 1200 1164 1200 1163 1207 c 128,-1,69
 1162 1214 1162 1214 1160 1222 c 1,70,71
 1050 1222 1050 1222 943 1224.5 c 128,-1,72
 836 1227 836 1227 729 1228.5 c 128,-1,73
 622 1230 622 1230 515 1228.5 c 128,-1,74
 408 1227 408 1227 299 1219 c 1,75,-1
 297 146 l 1,55,56
EndSplineSet
EndChar

StartChar: exclam
Encoding: 33 33 4
Width: 401
VWidth: 2048
Flags: W
LayerCount: 2
Fore
SplineSet
285 285 m 0,0,1
 272 269 272 269 257 262.5 c 128,-1,2
 242 256 242 256 227 258 c 128,-1,3
 212 260 212 260 198.5 270 c 128,-1,4
 185 280 185 280 176 298 c 1,5,6
 174 376 174 376 171 440 c 128,-1,7
 168 504 168 504 165.5 561.5 c 128,-1,8
 163 619 163 619 161 672.5 c 128,-1,9
 159 726 159 726 158 783.5 c 128,-1,10
 157 841 157 841 157 904 c 128,-1,11
 157 967 157 967 159 1044 c 0,12,13
 159 1058 159 1058 179.5 1069 c 128,-1,14
 200 1080 200 1080 227 1083.5 c 128,-1,15
 254 1087 254 1087 281 1080.5 c 128,-1,16
 308 1074 308 1074 322 1053 c 1,17,18
 324 1037 324 1037 325 987 c 128,-1,19
 326 937 326 937 326 867 c 128,-1,20
 326 797 326 797 324 715 c 128,-1,21
 322 633 322 633 317.5 553.5 c 128,-1,22
 313 474 313 474 305.5 404.5 c 128,-1,23
 298 335 298 335 287 290 c 0,24,25
 287 289 287 289 285 285 c 0,0,1
209 -14 m 0,26,27
 188 -3 188 -3 174 14 c 128,-1,28
 160 31 160 31 155.5 50 c 128,-1,29
 151 69 151 69 157.5 88.5 c 128,-1,30
 164 108 164 108 185 126 c 0,31,32
 214 150 214 150 246 150.5 c 128,-1,33
 278 151 278 151 301 120 c 0,34,35
 311 106 311 106 318 90.5 c 128,-1,36
 325 75 325 75 326.5 58.5 c 128,-1,37
 328 42 328 42 323.5 26 c 128,-1,38
 319 10 319 10 306 -5 c 0,39,40
 288 -28 288 -28 260.5 -28 c 128,-1,41
 233 -28 233 -28 209 -14 c 0,26,27
EndSplineSet
EndChar

StartChar: quotedbl
Encoding: 34 34 5
Width: 553
VWidth: 2048
Flags: W
LayerCount: 2
Fore
SplineSet
106 734 m 0,0,1
 98 761 98 761 98 799 c 128,-1,2
 98 837 98 837 101 872 c 0,3,4
 105 913 105 913 112 957 c 0,5,6
 118 988 118 988 134 1003.5 c 128,-1,7
 150 1019 150 1019 169 1020 c 128,-1,8
 188 1021 188 1021 205.5 1007.5 c 128,-1,9
 223 994 223 994 231 967 c 1,10,11
 226 911 226 911 223 864 c 0,12,13
 222 844 222 844 221.5 824.5 c 128,-1,14
 221 805 221 805 222 788.5 c 128,-1,15
 223 772 223 772 225.5 760 c 128,-1,16
 228 748 228 748 233 744 c 1,17,18
 231 711 231 711 214.5 693.5 c 128,-1,19
 198 676 198 676 177 674.5 c 128,-1,20
 156 673 156 673 135.5 687.5 c 128,-1,21
 115 702 115 702 106 734 c 0,0,1
345 742 m 0,22,23
 345 763 345 763 347.5 787.5 c 128,-1,24
 350 812 350 812 351 836.5 c 128,-1,25
 352 861 352 861 351 884.5 c 128,-1,26
 350 908 350 908 343 926 c 0,27,28
 332 957 332 957 335 977.5 c 128,-1,29
 338 998 338 998 349.5 1008.5 c 128,-1,30
 361 1019 361 1019 378 1021 c 128,-1,31
 395 1023 395 1023 411.5 1018 c 128,-1,32
 428 1013 428 1013 440.5 1002.5 c 128,-1,33
 453 992 453 992 455 978 c 0,34,35
 459 953 459 953 461 924 c 128,-1,36
 463 895 463 895 464 864.5 c 128,-1,37
 465 834 465 834 465 804 c 128,-1,38
 465 774 465 774 464 747 c 0,39,40
 462 714 462 714 445 697 c 128,-1,41
 428 680 428 680 407 679.5 c 128,-1,42
 386 679 386 679 367.5 694.5 c 128,-1,43
 349 710 349 710 345 742 c 0,22,23
EndSplineSet
EndChar

StartChar: numbersign
Encoding: 35 35 6
Width: 1177
VWidth: 2048
Flags: W
LayerCount: 2
Fore
SplineSet
85 244 m 0,0,1
 49 278 49 278 42 298.5 c 128,-1,2
 35 319 35 319 47 331 c 128,-1,3
 59 343 59 343 85.5 348 c 128,-1,4
 112 353 112 353 142.5 354.5 c 128,-1,5
 173 356 173 356 202.5 356.5 c 128,-1,6
 232 357 232 357 251 361 c 1,7,8
 271 421 271 421 284.5 483 c 128,-1,9
 298 545 298 545 314 610 c 1,10,11
 285 607 285 607 267 607 c 128,-1,12
 249 607 249 607 232.5 607.5 c 128,-1,13
 216 608 216 608 197.5 608 c 128,-1,14
 179 608 179 608 151 605 c 1,15,16
 123 609 123 609 108 628 c 128,-1,17
 93 647 93 647 91.5 671 c 128,-1,18
 90 695 90 695 102.5 717.5 c 128,-1,19
 115 740 115 740 142 750 c 1,20,21
 176 754 176 754 201.5 753 c 128,-1,22
 227 752 227 752 251 750 c 128,-1,23
 275 748 275 748 301 747 c 128,-1,24
 327 746 327 746 361 750 c 1,25,26
 368 777 368 777 373.5 801.5 c 128,-1,27
 379 826 379 826 385 850 c 128,-1,28
 391 874 391 874 398.5 898 c 128,-1,29
 406 922 406 922 418 949 c 0,30,31
 434 977 434 977 457.5 983.5 c 128,-1,32
 481 990 481 990 500 981 c 128,-1,33
 519 972 519 972 528 949.5 c 128,-1,34
 537 927 537 927 525 896 c 0,35,36
 508 858 508 858 495 820.5 c 128,-1,37
 482 783 482 783 471 745 c 1,38,39
 556 752 556 752 639 754.5 c 128,-1,40
 722 757 722 757 806 753 c 1,41,42
 814 781 814 781 823.5 803 c 128,-1,43
 833 825 833 825 842 846 c 128,-1,44
 851 867 851 867 859 889 c 128,-1,45
 867 911 867 911 873 940 c 1,46,47
 887 964 887 964 907.5 972.5 c 128,-1,48
 928 981 928 981 946 975.5 c 128,-1,49
 964 970 964 970 976 951.5 c 128,-1,50
 988 933 988 933 987 905 c 0,51,52
 986 884 986 884 976 856.5 c 128,-1,53
 966 829 966 829 956.5 804 c 128,-1,54
 947 779 947 779 942.5 761 c 128,-1,55
 938 743 938 743 949 741 c 0,56,57
 969 739 969 739 994 739.5 c 128,-1,58
 1019 740 1019 740 1043 739.5 c 128,-1,59
 1067 739 1067 739 1087.5 735.5 c 128,-1,60
 1108 732 1108 732 1119 722 c 128,-1,61
 1130 712 1130 712 1129 693 c 128,-1,62
 1128 674 1128 674 1110 643 c 1,63,64
 1079 625 1079 625 1054.5 620.5 c 128,-1,65
 1030 616 1030 616 1006 618 c 128,-1,66
 982 620 982 620 955.5 624 c 128,-1,67
 929 628 929 628 895 627 c 1,68,69
 884 593 884 593 875.5 562 c 128,-1,70
 867 531 867 531 859.5 501 c 128,-1,71
 852 471 852 471 844.5 439.5 c 128,-1,72
 837 408 837 408 828 374 c 1,73,74
 856 372 856 372 868 370 c 128,-1,75
 880 368 880 368 889 366 c 128,-1,76
 898 364 898 364 909.5 363 c 128,-1,77
 921 362 921 362 949 361 c 1,78,79
 976 353 976 353 989 335.5 c 128,-1,80
 1002 318 1002 318 1001.5 299 c 128,-1,81
 1001 280 1001 280 986.5 264 c 128,-1,82
 972 248 972 248 944 242 c 1,83,84
 913 243 913 243 895 241.5 c 128,-1,85
 877 240 877 240 862 238 c 128,-1,86
 847 236 847 236 829 235.5 c 128,-1,87
 811 235 811 235 780 237 c 1,88,89
 774 209 774 209 767 190 c 128,-1,90
 760 171 760 171 754 152 c 128,-1,91
 748 133 748 133 743 110 c 128,-1,92
 738 87 738 87 735 51 c 1,93,94
 725 24 725 24 706.5 12.5 c 128,-1,95
 688 1 688 1 669.5 3.5 c 128,-1,96
 651 6 651 6 636 22 c 128,-1,97
 621 38 621 38 617 66 c 1,98,99
 618 89 618 89 623.5 112 c 128,-1,100
 629 135 629 135 636 157.5 c 128,-1,101
 643 180 643 180 649.5 202 c 128,-1,102
 656 224 656 224 660 247 c 1,103,104
 580 252 580 252 500.5 254 c 128,-1,105
 421 256 421 256 341 250 c 1,106,107
 326 205 326 205 311 160 c 128,-1,108
 296 115 296 115 285 69 c 1,109,110
 273 39 273 39 251.5 28.5 c 128,-1,111
 230 18 230 18 210 24 c 128,-1,112
 190 30 190 30 177.5 51 c 128,-1,113
 165 72 165 72 171 104 c 0,114,115
 179 136 179 136 188 167.5 c 128,-1,116
 197 199 197 199 208 231 c 1,117,118
 197 228 197 228 182 224.5 c 128,-1,119
 167 221 167 221 150.5 220.5 c 128,-1,120
 134 220 134 220 117 225 c 128,-1,121
 100 230 100 230 85 244 c 0,0,1
439 622 m 1,122,123
 424 561 424 561 411.5 499 c 128,-1,124
 399 437 399 437 380 374 c 1,125,126
 457 378 457 378 533.5 375 c 128,-1,127
 610 372 610 372 687 366 c 1,128,129
 706 434 706 434 727 500 c 128,-1,130
 748 566 748 566 769 634 c 1,131,132
 686 636 686 636 604 632.5 c 128,-1,133
 522 629 522 629 439 622 c 1,122,123
EndSplineSet
EndChar

StartChar: dollar
Encoding: 36 36 7
Width: 777
VWidth: 2048
Flags: W
LayerCount: 2
Fore
SplineSet
333 1052 m 1,0,1
 339 1080 339 1080 355 1094.5 c 128,-1,2
 371 1109 371 1109 390 1109.5 c 128,-1,3
 409 1110 409 1110 426.5 1097 c 128,-1,4
 444 1084 444 1084 452 1057 c 1,5,-1
 452 998 l 1,6,7
 474 991 474 991 496.5 983.5 c 128,-1,8
 519 976 519 976 541.5 965.5 c 128,-1,9
 564 955 564 955 585 939 c 128,-1,10
 606 923 606 923 625 898 c 0,11,12
 656 857 656 857 662 810 c 128,-1,13
 668 763 668 763 666 712 c 0,14,15
 664 679 664 679 647 662 c 128,-1,16
 630 645 630 645 609 644.5 c 128,-1,17
 588 644 588 644 569.5 659.5 c 128,-1,18
 551 675 551 675 547 707 c 0,19,20
 547 727 547 727 548 740.5 c 128,-1,21
 549 754 549 754 548 765.5 c 128,-1,22
 547 777 547 777 543 789.5 c 128,-1,23
 539 802 539 802 530 819 c 0,24,25
 524 831 524 831 514.5 837.5 c 128,-1,26
 505 844 505 844 494.5 848.5 c 128,-1,27
 484 853 484 853 473.5 856.5 c 128,-1,28
 463 860 463 860 454 865 c 1,29,30
 455 775 455 775 455 694.5 c 128,-1,31
 455 614 455 614 457 524 c 1,32,33
 511 504 511 504 562 480 c 128,-1,34
 613 456 613 456 650 419 c 128,-1,35
 687 382 687 382 703 329 c 128,-1,36
 719 276 719 276 703 197 c 0,37,38
 694 152 694 152 672 117 c 128,-1,39
 650 82 650 82 619 57 c 128,-1,40
 588 32 588 32 550.5 16 c 128,-1,41
 513 0 513 0 473 -7 c 1,42,-1
 473 -25 l 2,43,44
 471 -58 471 -58 454 -75 c 128,-1,45
 437 -92 437 -92 416 -92.5 c 128,-1,46
 395 -93 395 -93 376.5 -77.5 c 128,-1,47
 358 -62 358 -62 354 -30 c 1,48,-1
 354 -11 l 1,49,50
 324 -8 324 -8 293 0 c 0,51,52
 240 15 240 15 198 35 c 128,-1,53
 156 55 156 55 127.5 85.5 c 128,-1,54
 99 116 99 116 85 159.5 c 128,-1,55
 71 203 71 203 73 263 c 1,56,57
 69 295 69 295 83.5 314.5 c 128,-1,58
 98 334 98 334 118.5 338.5 c 128,-1,59
 139 343 139 343 160 330.5 c 128,-1,60
 181 318 181 318 190 287 c 1,61,62
 187 236 187 236 195.5 206.5 c 128,-1,63
 204 177 204 177 224.5 159 c 128,-1,64
 245 141 245 141 276.5 131 c 128,-1,65
 308 121 308 121 352 110 c 1,66,67
 351 190 351 190 346 280 c 128,-1,68
 341 370 341 370 339 451 c 1,69,70
 301 466 301 466 260.5 480 c 128,-1,71
 220 494 220 494 185.5 510.5 c 128,-1,72
 151 527 151 527 126.5 548 c 128,-1,73
 102 569 102 569 95 596 c 1,74,75
 72 638 72 638 70 698 c 128,-1,76
 68 758 68 758 86 816.5 c 128,-1,77
 104 875 104 875 143 921 c 128,-1,78
 182 967 182 967 241 982 c 2,79,-1
 333 1005 l 1,80,-1
 333 1052 l 1,0,1
215 662 m 0,81,82
 224 647 224 647 238.5 635 c 128,-1,83
 253 623 253 623 269.5 613.5 c 128,-1,84
 286 604 286 604 303.5 595.5 c 128,-1,85
 321 587 321 587 336 578 c 1,86,87
 334 656 334 656 335.5 725.5 c 128,-1,88
 337 795 337 795 335 873 c 1,89,90
 304 861 304 861 274 839.5 c 128,-1,91
 244 818 244 818 224 790 c 128,-1,92
 204 762 204 762 199.5 729 c 128,-1,93
 195 696 195 696 215 662 c 0,81,82
572 221 m 0,94,95
 580 249 580 249 574.5 275.5 c 128,-1,96
 569 302 569 302 553 325 c 128,-1,97
 537 348 537 348 512.5 367 c 128,-1,98
 488 386 488 386 460 400 c 1,99,100
 462 333 462 333 466 257 c 128,-1,101
 470 181 470 181 471 114 c 1,102,103
 506 125 506 125 532.5 150.5 c 128,-1,104
 559 176 559 176 572 221 c 0,94,95
EndSplineSet
EndChar

StartChar: percent
Encoding: 37 37 8
Width: 930
VWidth: 2048
Flags: W
LayerCount: 2
Fore
SplineSet
853 1022 m 0,0,1
 879 1014 879 1014 892.5 998 c 128,-1,2
 906 982 906 982 908.5 963.5 c 128,-1,3
 911 945 911 945 902.5 928.5 c 128,-1,4
 894 912 894 912 875 905 c 1,5,6
 800 779 800 779 713.5 669 c 128,-1,7
 627 559 627 559 537 453.5 c 128,-1,8
 447 348 447 348 357 240.5 c 128,-1,9
 267 133 267 133 186 13 c 0,10,11
 168 -9 168 -9 144 -10.5 c 128,-1,12
 120 -12 120 -12 99 0.5 c 128,-1,13
 78 13 78 13 65.5 36.5 c 128,-1,14
 53 60 53 60 59 88 c 1,15,16
 123 189 123 189 192 278.5 c 128,-1,17
 261 368 261 368 332.5 453.5 c 128,-1,18
 404 539 404 539 477.5 624 c 128,-1,19
 551 709 551 709 624 799 c 0,20,21
 633 810 633 810 648.5 832.5 c 128,-1,22
 664 855 664 855 683 881 c 128,-1,23
 702 907 702 907 724 934.5 c 128,-1,24
 746 962 746 962 768.5 983 c 128,-1,25
 791 1004 791 1004 812.5 1015.5 c 128,-1,26
 834 1027 834 1027 853 1022 c 0,0,1
128 996 m 0,27,28
 158 1013 158 1013 194 1018.5 c 128,-1,29
 230 1024 230 1024 266 1021 c 128,-1,30
 302 1018 302 1018 335.5 1007.5 c 128,-1,31
 369 997 369 997 394 982 c 1,32,33
 427 953 427 953 440 912.5 c 128,-1,34
 453 872 453 872 448 830.5 c 128,-1,35
 443 789 443 789 423 750 c 128,-1,36
 403 711 403 711 371 683.5 c 128,-1,37
 339 656 339 656 297.5 644.5 c 128,-1,38
 256 633 256 633 209 646 c 0,39,40
 150 663 150 663 106.5 706 c 128,-1,41
 63 749 63 749 47 801.5 c 128,-1,42
 31 854 31 854 48 906.5 c 128,-1,43
 65 959 65 959 128 996 c 0,27,28
881 264 m 0,44,45
 891 204 891 204 887 164 c 128,-1,46
 883 124 883 124 871 97.5 c 128,-1,47
 859 71 859 71 843 56 c 128,-1,48
 827 41 827 41 814 32 c 0,49,50
 774 4 774 4 729.5 1.5 c 128,-1,51
 685 -1 685 -1 645.5 16.5 c 128,-1,52
 606 34 606 34 575 67 c 128,-1,53
 544 100 544 100 531 142 c 0,54,55
 518 187 518 187 532.5 234.5 c 128,-1,56
 547 282 547 282 579.5 319.5 c 128,-1,57
 612 357 612 357 656 378.5 c 128,-1,58
 700 400 700 400 745 395 c 0,59,60
 771 392 771 392 794 380 c 128,-1,61
 817 368 817 368 835 350.5 c 128,-1,62
 853 333 853 333 865 310.5 c 128,-1,63
 877 288 877 288 881 264 c 0,44,45
238 774 m 0,64,65
 280 765 280 765 299 778 c 128,-1,66
 318 791 318 791 320 812.5 c 128,-1,67
 322 834 322 834 310.5 858 c 128,-1,68
 299 882 299 882 278.5 895 c 128,-1,69
 258 908 258 908 232.5 904.5 c 128,-1,70
 207 901 207 901 182 867 c 0,71,72
 170 850 170 850 171.5 835 c 128,-1,73
 173 820 173 820 182.5 807.5 c 128,-1,74
 192 795 192 795 207 786 c 128,-1,75
 222 777 222 777 238 774 c 0,64,65
730 119 m 0,76,77
 748 119 748 119 758.5 138.5 c 128,-1,78
 769 158 769 158 769.5 182.5 c 128,-1,79
 770 207 770 207 760 229.5 c 128,-1,80
 750 252 750 252 728 258 c 0,81,82
 693 267 693 267 673 260 c 128,-1,83
 653 253 653 253 645.5 237.5 c 128,-1,84
 638 222 638 222 641 201.5 c 128,-1,85
 644 181 644 181 656 162.5 c 128,-1,86
 668 144 668 144 687 131.5 c 128,-1,87
 706 119 706 119 730 119 c 0,76,77
EndSplineSet
EndChar

StartChar: ampersand
Encoding: 38 38 9
Width: 1156
VWidth: 2048
Flags: W
LayerCount: 2
Fore
SplineSet
974 117 m 0,0,1
 993 91 993 91 990 67 c 128,-1,2
 987 43 987 43 971 29 c 128,-1,3
 955 15 955 15 930.5 16 c 128,-1,4
 906 17 906 17 883 40 c 0,5,6
 872 53 872 53 864 62 c 128,-1,7
 856 71 856 71 848.5 79.5 c 128,-1,8
 841 88 841 88 834 97.5 c 128,-1,9
 827 107 827 107 817 121 c 1,10,11
 781 81 781 81 727.5 52.5 c 128,-1,12
 674 24 674 24 611 9.5 c 128,-1,13
 548 -5 548 -5 479.5 -3.5 c 128,-1,14
 411 -2 411 -2 345 17 c 0,15,16
 300 30 300 30 267.5 55 c 128,-1,17
 235 80 235 80 212.5 113.5 c 128,-1,18
 190 147 190 147 176 189.5 c 128,-1,19
 162 232 162 232 153 280 c 0,20,21
 147 310 147 310 157 343.5 c 128,-1,22
 167 377 167 377 186 410.5 c 128,-1,23
 205 444 205 444 231.5 475.5 c 128,-1,24
 258 507 258 507 285.5 532.5 c 128,-1,25
 313 558 313 558 338.5 576.5 c 128,-1,26
 364 595 364 595 383 603 c 1,27,28
 371 609 371 609 358 621 c 128,-1,29
 345 633 345 633 333 647.5 c 128,-1,30
 321 662 321 662 310.5 677.5 c 128,-1,31
 300 693 300 693 293 707 c 0,32,33
 271 750 271 750 270.5 787.5 c 128,-1,34
 270 825 270 825 285 856.5 c 128,-1,35
 300 888 300 888 327.5 915.5 c 128,-1,36
 355 943 355 943 390 967 c 0,37,38
 417 986 417 986 457 993 c 128,-1,39
 497 1000 497 1000 538 994.5 c 128,-1,40
 579 989 579 989 617 970 c 128,-1,41
 655 951 655 951 679 920 c 0,42,43
 696 897 696 897 705.5 854.5 c 128,-1,44
 715 812 715 812 712.5 763 c 128,-1,45
 710 714 710 714 693.5 666.5 c 128,-1,46
 677 619 677 619 643 587 c 1,47,48
 670 534 670 534 706 475 c 128,-1,49
 742 416 742 416 792 336 c 1,50,51
 796 355 796 355 800 376 c 128,-1,52
 804 397 804 397 811 422 c 1,53,54
 825 446 825 446 845.5 454.5 c 128,-1,55
 866 463 866 463 884 457.5 c 128,-1,56
 902 452 902 452 914 433.5 c 128,-1,57
 926 415 926 415 925 387 c 1,58,59
 919 365 919 365 914.5 347 c 128,-1,60
 910 329 910 329 905 312 c 128,-1,61
 900 295 900 295 894.5 276.5 c 128,-1,62
 889 258 889 258 881 236 c 1,63,64
 894 217 894 217 904.5 202.5 c 128,-1,65
 915 188 915 188 925.5 175 c 128,-1,66
 936 162 936 162 947.5 148.5 c 128,-1,67
 959 135 959 135 974 117 c 0,0,1
733 220 m 1,68,69
 706 262 706 262 681.5 300.5 c 128,-1,70
 657 339 657 339 633 377.5 c 128,-1,71
 609 416 609 416 584 455 c 128,-1,72
 559 494 559 494 530 537 c 1,73,74
 511 536 511 536 486 526 c 128,-1,75
 461 516 461 516 435 499 c 128,-1,76
 409 482 409 482 384 459.5 c 128,-1,77
 359 437 359 437 340 410 c 0,78,79
 302 357 302 357 294 312.5 c 128,-1,80
 286 268 286 268 300 233 c 128,-1,81
 314 198 314 198 345.5 173 c 128,-1,82
 377 148 377 148 418 134.5 c 128,-1,83
 459 121 459 121 505.5 118.5 c 128,-1,84
 552 116 552 116 595.5 126.5 c 128,-1,85
 639 137 639 137 675.5 160 c 128,-1,86
 712 183 712 183 733 220 c 1,68,69
535 682 m 0,87,88
 555 692 555 692 568 714.5 c 128,-1,89
 581 737 581 737 586.5 763.5 c 128,-1,90
 592 790 592 790 588.5 816 c 128,-1,91
 585 842 585 842 573 860 c 0,92,93
 561 877 561 877 534 878 c 128,-1,94
 507 879 507 879 479.5 868.5 c 128,-1,95
 452 858 452 858 430 838 c 128,-1,96
 408 818 408 818 405 794 c 0,97,98
 403 773 403 773 415.5 749 c 128,-1,99
 428 725 428 725 448.5 707 c 128,-1,100
 469 689 469 689 492.5 680.5 c 128,-1,101
 516 672 516 672 535 682 c 0,87,88
EndSplineSet
EndChar

StartChar: quotesingle
Encoding: 39 39 10
Width: 301
VWidth: 2048
Flags: W
LayerCount: 2
Fore
SplineSet
79 954 m 1,0,1
 85 982 85 982 101 996.5 c 128,-1,2
 117 1011 117 1011 136 1011.5 c 128,-1,3
 155 1012 155 1012 172.5 999 c 128,-1,4
 190 986 190 986 198 959 c 1,5,6
 200 900 200 900 201.5 842 c 128,-1,7
 203 784 203 784 204 724 c 0,8,9
 202 691 202 691 185 674 c 128,-1,10
 168 657 168 657 147 656.5 c 128,-1,11
 126 656 126 656 107.5 671.5 c 128,-1,12
 89 687 89 687 85 719 c 0,13,14
 84 779 84 779 82 837 c 128,-1,15
 80 895 80 895 79 954 c 1,0,1
EndSplineSet
EndChar

StartChar: parenleft
Encoding: 40 40 11
Width: 473
VWidth: 2048
Flags: W
LayerCount: 2
Fore
SplineSet
380 1220 m 0,0,1
 407 1230 407 1230 428 1224.5 c 128,-1,2
 449 1219 449 1219 459.5 1204 c 128,-1,3
 470 1189 470 1189 469 1167 c 128,-1,4
 468 1145 468 1145 450 1123 c 1,5,6
 387 1094 387 1094 337 1027.5 c 128,-1,7
 287 961 287 961 251.5 871.5 c 128,-1,8
 216 782 216 782 195.5 676.5 c 128,-1,9
 175 571 175 571 171.5 463.5 c 128,-1,10
 168 356 168 356 182 253 c 128,-1,11
 196 150 196 150 230.5 65.5 c 128,-1,12
 265 -19 265 -19 319.5 -77.5 c 128,-1,13
 374 -136 374 -136 451 -155 c 1,14,15
 474 -172 474 -172 481 -192.5 c 128,-1,16
 488 -213 488 -213 481 -231 c 128,-1,17
 474 -249 474 -249 455 -259.5 c 128,-1,18
 436 -270 436 -270 408 -267 c 0,19,20
 336 -260 336 -260 282 -221.5 c 128,-1,21
 228 -183 228 -183 189 -124 c 128,-1,22
 150 -65 150 -65 124 7.5 c 128,-1,23
 98 80 98 80 82.5 155 c 128,-1,24
 67 230 67 230 60 301 c 128,-1,25
 53 372 53 372 51 428 c 0,26,27
 50 492 50 492 54.5 567.5 c 128,-1,28
 59 643 59 643 72 721.5 c 128,-1,29
 85 800 85 800 109 877.5 c 128,-1,30
 133 955 133 955 170 1021.5 c 128,-1,31
 207 1088 207 1088 258.5 1140 c 128,-1,32
 310 1192 310 1192 380 1220 c 0,0,1
EndSplineSet
EndChar

StartChar: parenright
Encoding: 41 41 12
Width: 518
VWidth: 2048
Flags: W
LayerCount: 2
Fore
SplineSet
124 1220 m 0,0,1
 194 1192 194 1192 245.5 1140 c 128,-1,2
 297 1088 297 1088 334 1021.5 c 128,-1,3
 371 955 371 955 395 877.5 c 128,-1,4
 419 800 419 800 432 721.5 c 128,-1,5
 445 643 445 643 449.5 567.5 c 128,-1,6
 454 492 454 492 453 428 c 0,7,8
 451 373 451 373 444 301.5 c 128,-1,9
 437 230 437 230 421.5 155 c 128,-1,10
 406 80 406 80 380 7.5 c 128,-1,11
 354 -65 354 -65 315 -124 c 128,-1,12
 276 -183 276 -183 222 -221.5 c 128,-1,13
 168 -260 168 -260 96 -267 c 0,14,15
 68 -270 68 -270 49 -259.5 c 128,-1,16
 30 -249 30 -249 23 -231 c 128,-1,17
 16 -213 16 -213 23 -192.5 c 128,-1,18
 30 -172 30 -172 53 -155 c 1,19,20
 130 -136 130 -136 184.5 -77.5 c 128,-1,21
 239 -19 239 -19 273.5 65.5 c 128,-1,22
 308 150 308 150 322 253 c 128,-1,23
 336 356 336 356 332.5 463.5 c 128,-1,24
 329 571 329 571 308.5 676.5 c 128,-1,25
 288 782 288 782 252.5 871.5 c 128,-1,26
 217 961 217 961 167 1027.5 c 128,-1,27
 117 1094 117 1094 54 1123 c 1,28,29
 36 1145 36 1145 35 1167 c 128,-1,30
 34 1189 34 1189 44.5 1204 c 128,-1,31
 55 1219 55 1219 76 1224.5 c 128,-1,32
 97 1230 97 1230 124 1220 c 0,0,1
EndSplineSet
EndChar

StartChar: asterisk
Encoding: 42 42 13
Width: 739
VWidth: 2048
Flags: W
LayerCount: 2
Fore
SplineSet
153 849 m 0,0,1
 123 863 123 863 114.5 886 c 128,-1,2
 106 909 106 909 113.5 928.5 c 128,-1,3
 121 948 121 948 143 959 c 128,-1,4
 165 970 165 970 196 961 c 0,5,6
 214 955 214 955 226.5 950.5 c 128,-1,7
 239 946 239 946 250.5 941 c 128,-1,8
 262 936 262 936 275.5 929.5 c 128,-1,9
 289 923 289 923 310 913 c 1,10,11
 310 937 310 937 310 947.5 c 128,-1,12
 310 958 310 958 310.5 966 c 128,-1,13
 311 974 311 974 311.5 984.5 c 128,-1,14
 312 995 312 995 312 1019 c 1,15,16
 318 1047 318 1047 334 1061.5 c 128,-1,17
 350 1076 350 1076 369 1076.5 c 128,-1,18
 388 1077 388 1077 405.5 1064 c 128,-1,19
 423 1051 423 1051 431 1024 c 1,20,21
 431 998 431 998 430.5 985 c 128,-1,22
 430 972 430 972 429.5 961.5 c 128,-1,23
 429 951 429 951 429 938 c 128,-1,24
 429 925 429 925 429 899 c 1,25,26
 447 909 447 909 458 917 c 128,-1,27
 469 925 469 925 480.5 931.5 c 128,-1,28
 492 938 492 938 507 944 c 128,-1,29
 522 950 522 950 549 956 c 1,30,31
 577 957 577 957 596 947 c 128,-1,32
 615 937 615 937 621.5 921 c 128,-1,33
 628 905 628 905 620 887 c 128,-1,34
 612 869 612 869 588 855 c 0,35,36
 575 845 575 845 564.5 837 c 128,-1,37
 554 829 554 829 542 821.5 c 128,-1,38
 530 814 530 814 514 806.5 c 128,-1,39
 498 799 498 799 474 790 c 1,40,41
 489 776 489 776 498.5 769.5 c 128,-1,42
 508 763 508 763 516.5 757 c 128,-1,43
 525 751 525 751 534.5 743 c 128,-1,44
 544 735 544 735 558 719 c 0,45,46
 577 693 577 693 574 669 c 128,-1,47
 571 645 571 645 555 631 c 128,-1,48
 539 617 539 617 514.5 618 c 128,-1,49
 490 619 490 619 467 642 c 0,50,51
 451 660 451 660 440.5 670.5 c 128,-1,52
 430 681 430 681 419 689.5 c 128,-1,53
 408 698 408 698 395 705.5 c 128,-1,54
 382 713 382 713 362 725 c 1,55,56
 335 697 335 697 309 677.5 c 128,-1,57
 283 658 283 658 266 640 c 0,58,59
 244 616 244 616 219.5 609.5 c 128,-1,60
 195 603 195 603 175.5 611 c 128,-1,61
 156 619 156 619 146 640 c 128,-1,62
 136 661 136 661 142 693 c 0,63,64
 148 715 148 715 162 727.5 c 128,-1,65
 176 740 176 740 193.5 750 c 128,-1,66
 211 760 211 760 230.5 770.5 c 128,-1,67
 250 781 250 781 267 799 c 1,68,69
 265 800 265 800 263.5 800.5 c 128,-1,70
 262 801 262 801 261 802 c 0,71,72
 243 812 243 812 231.5 818 c 128,-1,73
 220 824 220 824 209.5 828.5 c 128,-1,74
 199 833 199 833 186.5 837.5 c 128,-1,75
 174 842 174 842 153 849 c 0,0,1
EndSplineSet
EndChar

StartChar: plus
Encoding: 43 43 14
Width: 940
VWidth: 2048
Flags: W
LayerCount: 2
Fore
SplineSet
195 380 m 1,0,1
 167 384 167 384 151 399 c 128,-1,2
 135 414 135 414 132.5 432.5 c 128,-1,3
 130 451 130 451 141.5 469.5 c 128,-1,4
 153 488 153 488 180 498 c 1,5,6
 238 506 238 506 295.5 511.5 c 128,-1,7
 353 517 353 517 411 520 c 1,8,9
 409 548 409 548 409 570 c 128,-1,10
 409 592 409 592 408.5 612.5 c 128,-1,11
 408 633 408 633 406.5 654.5 c 128,-1,12
 405 676 405 676 401 705 c 0,13,14
 397 737 397 737 411.5 756.5 c 128,-1,15
 426 776 426 776 446.5 780.5 c 128,-1,16
 467 785 467 785 488 772.5 c 128,-1,17
 509 760 509 760 518 729 c 1,18,19
 522 698 522 698 524 673.5 c 128,-1,20
 526 649 526 649 526.5 626 c 128,-1,21
 527 603 527 603 527.5 578.5 c 128,-1,22
 528 554 528 554 530 523 c 1,23,24
 576 526 576 526 623 524.5 c 128,-1,25
 670 523 670 523 724 523 c 0,26,27
 743 523 743 523 760.5 522.5 c 128,-1,28
 778 522 778 522 791 516.5 c 128,-1,29
 804 511 804 511 811 499 c 128,-1,30
 818 487 818 487 817 463 c 1,31,32
 812 442 812 442 802.5 430 c 128,-1,33
 793 418 793 418 779 412 c 128,-1,34
 765 406 765 406 748 405 c 128,-1,35
 731 404 731 404 713 404 c 0,36,37
 681 405 681 405 642 404.5 c 128,-1,38
 603 404 603 404 536 404 c 1,39,40
 538 342 538 342 539 281 c 128,-1,41
 540 220 540 220 541 158 c 0,42,43
 539 125 539 125 522 108 c 128,-1,44
 505 91 505 91 484 90.5 c 128,-1,45
 463 90 463 90 444.5 105.5 c 128,-1,46
 426 121 426 121 422 153 c 0,47,48
 421 216 421 216 420 277 c 128,-1,49
 419 338 419 338 417 400 c 1,50,51
 361 398 361 398 306 393 c 128,-1,52
 251 388 251 388 195 380 c 1,0,1
EndSplineSet
EndChar

StartChar: comma
Encoding: 44 44 15
Width: 404
VWidth: 2048
Flags: W
LayerCount: 2
Fore
SplineSet
157 -115 m 1,0,1
 180 -111 180 -111 200 -92.5 c 128,-1,2
 220 -74 220 -74 234 -54 c 1,3,4
 192 -63 192 -63 155 -55.5 c 128,-1,5
 118 -48 118 -48 94 -27 c 128,-1,6
 70 -6 70 -6 61 29 c 128,-1,7
 52 64 52 64 66 111 c 0,8,9
 73 148 73 148 89.5 171 c 128,-1,10
 106 194 106 194 130 205 c 128,-1,11
 154 216 154 216 186 216.5 c 128,-1,12
 218 217 218 217 257 209 c 0,13,14
 290 202 290 202 311 176.5 c 128,-1,15
 332 151 332 151 341.5 116.5 c 128,-1,16
 351 82 351 82 350.5 42.5 c 128,-1,17
 350 3 350 3 341 -31 c 0,18,19
 332 -66 332 -66 317.5 -98.5 c 128,-1,20
 303 -131 303 -131 282.5 -158 c 128,-1,21
 262 -185 262 -185 234.5 -203 c 128,-1,22
 207 -221 207 -221 172 -227 c 1,23,24
 144 -223 144 -223 128 -209 c 128,-1,25
 112 -195 112 -195 109.5 -177.5 c 128,-1,26
 107 -160 107 -160 118.5 -142.5 c 128,-1,27
 130 -125 130 -125 157 -115 c 1,0,1
160 45 m 0,28,29
 185 25 185 25 208.5 28.5 c 128,-1,30
 232 32 232 32 244.5 47.5 c 128,-1,31
 257 63 257 63 254.5 84.5 c 128,-1,32
 252 106 252 106 227 123 c 0,33,34
 213 132 213 132 194.5 127 c 128,-1,35
 176 122 176 122 163.5 109 c 128,-1,36
 151 96 151 96 147.5 78.5 c 128,-1,37
 144 61 144 61 160 45 c 0,28,29
EndSplineSet
EndChar

StartChar: hyphen
Encoding: 45 45 16
Width: 827
VWidth: 2048
Flags: W
LayerCount: 2
Fore
SplineSet
149 344 m 1,0,1
 121 348 121 348 105 366 c 128,-1,2
 89 384 89 384 86.5 406 c 128,-1,3
 84 428 84 428 95.5 449 c 128,-1,4
 107 470 107 470 134 480 c 1,5,6
 204 489 204 489 265 493.5 c 128,-1,7
 326 498 326 498 385 499 c 128,-1,8
 444 500 444 500 505 499.5 c 128,-1,9
 566 499 566 499 636 498 c 1,10,11
 663 490 663 490 676 470 c 128,-1,12
 689 450 689 450 688.5 427.5 c 128,-1,13
 688 405 688 405 673.5 386 c 128,-1,14
 659 367 659 367 631 361 c 1,15,16
 563 361 563 361 504.5 362 c 128,-1,17
 446 363 446 363 390 361.5 c 128,-1,18
 334 360 334 360 275.5 356.5 c 128,-1,19
 217 353 217 353 149 344 c 1,0,1
EndSplineSet
EndChar

StartChar: period
Encoding: 46 46 17
Width: 316
VWidth: 2048
Flags: W
LayerCount: 2
Fore
SplineSet
164 175 m 256,0,1
 182 175 182 175 198 168 c 128,-1,2
 214 161 214 161 226.5 149 c 128,-1,3
 239 137 239 137 246.5 120.5 c 128,-1,4
 254 104 254 104 254 85 c 0,5,6
 254 67 254 67 247 51 c 128,-1,7
 240 35 240 35 228 22.5 c 128,-1,8
 216 10 216 10 199.5 2.5 c 128,-1,9
 183 -5 183 -5 164 -5 c 0,10,11
 146 -5 146 -5 130 2.5 c 128,-1,12
 114 10 114 10 101.5 22.5 c 128,-1,13
 89 35 89 35 81.5 51 c 128,-1,14
 74 67 74 67 74 85 c 0,15,16
 74 104 74 104 81.5 120.5 c 128,-1,17
 89 137 89 137 101.5 149 c 128,-1,18
 114 161 114 161 130 168 c 128,-1,19
 146 175 146 175 164 175 c 256,0,1
EndSplineSet
EndChar

StartChar: slash
Encoding: 47 47 18
Width: 668
VWidth: 2048
Flags: W
LayerCount: 2
Fore
SplineSet
674 1062 m 0,0,1
 534 781 534 781 407.5 495 c 128,-1,2
 281 209 281 209 152 -76 c 0,3,4
 138 -106 138 -106 115 -114.5 c 128,-1,5
 92 -123 92 -123 72.5 -115.5 c 128,-1,6
 53 -108 53 -108 42 -86 c 128,-1,7
 31 -64 31 -64 40 -33 c 1,8,9
 171 257 171 257 300 547.5 c 128,-1,10
 429 838 429 838 571 1123 c 1,11,12
 590 1150 590 1150 613.5 1154.5 c 128,-1,13
 637 1159 637 1159 655 1148.5 c 128,-1,14
 673 1138 673 1138 680.5 1115 c 128,-1,15
 688 1092 688 1092 674 1062 c 0,0,1
EndSplineSet
EndChar

StartChar: zero
Encoding: 48 48 19
Width: 897
VWidth: 2048
Flags: W
LayerCount: 2
Fore
SplineSet
111 195 m 0,0,1
 98 238 98 238 85 302.5 c 128,-1,2
 72 367 72 367 65.5 442 c 128,-1,3
 59 517 59 517 61 596 c 128,-1,4
 63 675 63 675 78.5 747 c 128,-1,5
 94 819 94 819 126 878 c 128,-1,6
 158 937 158 937 211 971 c 0,7,8
 277 1013 277 1013 347 1031 c 128,-1,9
 417 1049 417 1049 484 1045 c 128,-1,10
 551 1041 551 1041 611.5 1016.5 c 128,-1,11
 672 992 672 992 717.5 950 c 128,-1,12
 763 908 763 908 790.5 849 c 128,-1,13
 818 790 818 790 820 717 c 0,14,15
 821 648 821 648 825 569.5 c 128,-1,16
 829 491 829 491 825.5 412 c 128,-1,17
 822 333 822 333 805 259.5 c 128,-1,18
 788 186 788 186 749 127 c 0,19,20
 716 77 716 77 660.5 46 c 128,-1,21
 605 15 605 15 540.5 2.5 c 128,-1,22
 476 -10 476 -10 408 -4 c 128,-1,23
 340 2 340 2 280.5 26.5 c 128,-1,24
 221 51 221 51 175.5 93 c 128,-1,25
 130 135 130 135 111 195 c 0,0,1
278 856 m 0,26,27
 252 836 252 836 231.5 797.5 c 128,-1,28
 211 759 211 759 208 716 c 0,29,30
 204 656 204 656 200 594.5 c 128,-1,31
 196 533 196 533 197 473 c 128,-1,32
 198 413 198 413 207 355 c 128,-1,33
 216 297 216 297 240 244 c 0,34,35
 255 209 255 209 284.5 185 c 128,-1,36
 314 161 314 161 350.5 148 c 128,-1,37
 387 135 387 135 428 133.5 c 128,-1,38
 469 132 469 132 508 141.5 c 128,-1,39
 547 151 547 151 581.5 172 c 128,-1,40
 616 193 616 193 640 226 c 0,41,42
 657 247 657 247 667.5 284.5 c 128,-1,43
 678 322 678 322 683 368 c 128,-1,44
 688 414 688 414 689 463 c 128,-1,45
 690 512 690 512 689 556 c 128,-1,46
 688 600 688 600 687 634.5 c 128,-1,47
 686 669 686 669 686 685 c 0,48,49
 687 733 687 733 670.5 774.5 c 128,-1,50
 654 816 654 816 625 847 c 128,-1,51
 596 878 596 878 556.5 897 c 128,-1,52
 517 916 517 916 471.5 919 c 128,-1,53
 426 922 426 922 376.5 907 c 128,-1,54
 327 892 327 892 278 856 c 0,26,27
EndSplineSet
EndChar

StartChar: one
Encoding: 49 49 20
Width: 575
VWidth: 2048
Flags: W
LayerCount: 2
Fore
SplineSet
181 2 m 1,0,1
 149 6 149 6 133.5 24.5 c 128,-1,2
 118 43 118 43 118.5 64 c 128,-1,3
 119 85 119 85 136 102 c 128,-1,4
 153 119 153 119 186 121 c 2,5,-1
 267 126 l 1,6,7
 266 220 266 220 264.5 310.5 c 128,-1,8
 263 401 263 401 260.5 491.5 c 128,-1,9
 258 582 258 582 256 672.5 c 128,-1,10
 254 763 254 763 253 857 c 1,11,12
 235 839 235 839 230 833 c 128,-1,13
 225 827 225 827 221 824 c 128,-1,14
 217 821 217 821 210 817 c 128,-1,15
 203 813 203 813 182 798 c 0,16,17
 159 781 159 781 137 783 c 128,-1,18
 115 785 115 785 101.5 799 c 128,-1,19
 88 813 88 813 85 835.5 c 128,-1,20
 82 858 82 858 97 883 c 1,21,22
 128 909 128 909 145 922 c 128,-1,23
 162 935 162 935 176 945.5 c 128,-1,24
 190 956 190 956 206 970 c 128,-1,25
 222 984 222 984 251 1012 c 0,26,27
 270 1027 270 1027 288.5 1029 c 128,-1,28
 307 1031 307 1031 323 1024 c 128,-1,29
 339 1017 339 1017 352 1001 c 128,-1,30
 365 985 365 985 372 964 c 1,31,32
 373 855 373 855 375 751.5 c 128,-1,33
 377 648 377 648 379 545 c 128,-1,34
 381 442 381 442 383 338.5 c 128,-1,35
 385 235 385 235 386 126 c 1,36,-1
 454 126 l 1,37,38
 481 118 481 118 494 100.5 c 128,-1,39
 507 83 507 83 506.5 64 c 128,-1,40
 506 45 506 45 491.5 29 c 128,-1,41
 477 13 477 13 449 7 c 1,42,-1
 181 2 l 1,43,-1
 181 2 l 1,0,1
EndSplineSet
EndChar

StartChar: two
Encoding: 50 50 21
Width: 794
VWidth: 2048
Flags: W
LayerCount: 2
Fore
SplineSet
101 5 m 0,0,1
 78 4 78 4 68.5 11.5 c 128,-1,2
 59 19 59 19 58 32 c 128,-1,3
 57 45 57 45 63 61.5 c 128,-1,4
 69 78 69 78 77.5 94 c 128,-1,5
 86 110 86 110 94 123.5 c 128,-1,6
 102 137 102 137 106 145 c 0,7,8
 134 201 134 201 172.5 246.5 c 128,-1,9
 211 292 211 292 253.5 333 c 128,-1,10
 296 374 296 374 340 412.5 c 128,-1,11
 384 451 384 451 422 493 c 128,-1,12
 460 535 460 535 489 583.5 c 128,-1,13
 518 632 518 632 532 693 c 0,14,15
 540 730 540 730 530.5 769 c 128,-1,16
 521 808 521 808 497.5 838.5 c 128,-1,17
 474 869 474 869 439.5 885 c 128,-1,18
 405 901 405 901 363 891 c 0,19,20
 316 880 316 880 283.5 860.5 c 128,-1,21
 251 841 251 841 228.5 814 c 128,-1,22
 206 787 206 787 192 751.5 c 128,-1,23
 178 716 178 716 169 673 c 1,24,25
 151 651 151 651 126 644.5 c 128,-1,26
 101 638 101 638 79.5 645 c 128,-1,27
 58 652 58 652 45 670.5 c 128,-1,28
 32 689 32 689 38 717 c 0,29,30
 45 771 45 771 70 819 c 128,-1,31
 95 867 95 867 133.5 905 c 128,-1,32
 172 943 172 943 223.5 969.5 c 128,-1,33
 275 996 275 996 336 1009 c 0,34,35
 380 1018 380 1018 425 1010.5 c 128,-1,36
 470 1003 470 1003 511.5 982.5 c 128,-1,37
 553 962 553 962 588 929.5 c 128,-1,38
 623 897 623 897 646.5 857 c 128,-1,39
 670 817 670 817 679 770.5 c 128,-1,40
 688 724 688 724 677 675 c 0,41,42
 665 616 665 616 637 564 c 128,-1,43
 609 512 609 512 572 465 c 128,-1,44
 535 418 535 418 491.5 375 c 128,-1,45
 448 332 448 332 404.5 291 c 128,-1,46
 361 250 361 250 320 209 c 128,-1,47
 279 168 279 168 247 126 c 1,48,49
 305 134 305 134 357 136.5 c 128,-1,50
 409 139 409 139 459.5 139 c 128,-1,51
 510 139 510 139 562 137.5 c 128,-1,52
 614 136 614 136 673 136 c 1,53,54
 700 128 700 128 713 110.5 c 128,-1,55
 726 93 726 93 725.5 74 c 128,-1,56
 725 55 725 55 710.5 39 c 128,-1,57
 696 23 696 23 668 17 c 1,58,59
 531 17 531 17 385.5 15 c 128,-1,60
 240 13 240 13 101 5 c 0,0,1
EndSplineSet
EndChar

StartChar: three
Encoding: 51 51 22
Width: 732
VWidth: 2048
Flags: W
LayerCount: 2
Fore
SplineSet
442 477 m 0,0,1
 427 483 427 483 409 483.5 c 128,-1,2
 391 484 391 484 373.5 483.5 c 128,-1,3
 356 483 356 483 341 484 c 128,-1,4
 326 485 326 485 316 492 c 0,5,6
 303 497 303 497 295 508 c 128,-1,7
 287 519 287 519 284 533 c 2,8,-1
 284 534 l 2,9,10
 284 535 284 535 283.5 535.5 c 128,-1,11
 283 536 283 536 283 537 c 0,12,13
 280 555 280 555 289 570 c 128,-1,14
 298 585 298 585 312 596 c 0,15,16
 324 603 324 603 348.5 609 c 128,-1,17
 373 615 373 615 400 622 c 128,-1,18
 427 629 427 629 450.5 639.5 c 128,-1,19
 474 650 474 650 485 667 c 0,20,21
 508 702 508 702 508.5 735.5 c 128,-1,22
 509 769 509 769 494 798 c 128,-1,23
 479 827 479 827 452 848.5 c 128,-1,24
 425 870 425 870 392.5 880.5 c 128,-1,25
 360 891 360 891 325.5 888.5 c 128,-1,26
 291 886 291 886 262 867 c 0,27,28
 235 850 235 850 222 837 c 128,-1,29
 209 824 209 824 201.5 810 c 128,-1,30
 194 796 194 796 188.5 777 c 128,-1,31
 183 758 183 758 171 728 c 1,32,33
 153 706 153 706 130.5 702 c 128,-1,34
 108 698 108 698 89 707.5 c 128,-1,35
 70 717 70 717 59 737.5 c 128,-1,36
 48 758 48 758 54 786 c 1,37,38
 56 852 56 852 88.5 901.5 c 128,-1,39
 121 951 121 951 170 982 c 128,-1,40
 219 1013 219 1013 280 1024 c 128,-1,41
 341 1035 341 1035 401 1023.5 c 128,-1,42
 461 1012 461 1012 514 977.5 c 128,-1,43
 567 943 567 943 601 883 c 0,44,45
 621 847 621 847 632.5 806 c 128,-1,46
 644 765 644 765 640.5 723 c 128,-1,47
 637 681 637 681 616 639.5 c 128,-1,48
 595 598 595 598 551 561 c 1,49,50
 588 546 588 546 612 514 c 128,-1,51
 636 482 636 482 648.5 441 c 128,-1,52
 661 400 661 400 664.5 354 c 128,-1,53
 668 308 668 308 664 265 c 0,54,55
 660 223 660 223 639 182.5 c 128,-1,56
 618 142 618 142 583.5 108 c 128,-1,57
 549 74 549 74 503.5 49.5 c 128,-1,58
 458 25 458 25 405.5 15.5 c 128,-1,59
 353 6 353 6 295.5 14 c 128,-1,60
 238 22 238 22 181 53 c 0,61,62
 149 70 149 70 126.5 96 c 128,-1,63
 104 122 104 122 89.5 153.5 c 128,-1,64
 75 185 75 185 68 221.5 c 128,-1,65
 61 258 61 258 60 297 c 1,66,67
 66 325 66 325 82 339.5 c 128,-1,68
 98 354 98 354 117 354.5 c 128,-1,69
 136 355 136 355 153.5 342 c 128,-1,70
 171 329 171 329 179 302 c 1,71,72
 180 248 180 248 204 213 c 128,-1,73
 228 178 228 178 265.5 161.5 c 128,-1,74
 303 145 303 145 350 146 c 128,-1,75
 397 147 397 147 445 165 c 0,76,77
 470 175 470 175 488.5 198.5 c 128,-1,78
 507 222 507 222 517 252.5 c 128,-1,79
 527 283 527 283 528.5 317.5 c 128,-1,80
 530 352 530 352 521 383.5 c 128,-1,81
 512 415 512 415 492.5 440 c 128,-1,82
 473 465 473 465 442 477 c 0,0,1
EndSplineSet
EndChar

StartChar: four
Encoding: 52 52 23
Width: 769
VWidth: 2048
Flags: W
LayerCount: 2
Fore
SplineSet
395 656 m 1,0,1
 401 684 401 684 418.5 698.5 c 128,-1,2
 436 713 436 713 457 713.5 c 128,-1,3
 478 714 478 714 497 701 c 128,-1,4
 516 688 516 688 524 661 c 1,5,6
 525 596 525 596 525 532.5 c 128,-1,7
 525 469 525 469 527 405 c 1,8,9
 571 405 571 405 612.5 406 c 128,-1,10
 654 407 654 407 692 407 c 1,11,12
 719 399 719 399 732 381.5 c 128,-1,13
 745 364 745 364 744.5 345 c 128,-1,14
 744 326 744 326 729.5 310 c 128,-1,15
 715 294 715 294 687 288 c 1,16,17
 648 288 648 288 609 287.5 c 128,-1,18
 570 287 570 287 531 288 c 1,19,20
 533 238 533 238 533.5 179.5 c 128,-1,21
 534 121 534 121 535 71 c 0,22,23
 533 38 533 38 513.5 22 c 128,-1,24
 494 6 494 6 470 6 c 128,-1,25
 446 6 446 6 424.5 22.5 c 128,-1,26
 403 39 403 39 399 71 c 0,27,28
 398 122 398 122 400.5 178.5 c 128,-1,29
 403 235 403 235 401 286 c 1,30,31
 358 287 358 287 308.5 290.5 c 128,-1,32
 259 294 259 294 212.5 305 c 128,-1,33
 166 316 166 316 127 336 c 128,-1,34
 88 356 88 356 64 389 c 0,35,36
 42 420 42 420 39 456 c 128,-1,37
 36 492 36 492 46 530 c 128,-1,38
 56 568 56 568 76 607 c 128,-1,39
 96 646 96 646 119.5 682 c 128,-1,40
 143 718 143 718 166.5 749.5 c 128,-1,41
 190 781 190 781 208 805 c 0,42,43
 248 859 248 859 290 910 c 128,-1,44
 332 961 332 961 374 1013 c 1,45,46
 396 1031 396 1031 419.5 1031.5 c 128,-1,47
 443 1032 443 1032 460 1020 c 128,-1,48
 477 1008 477 1008 483.5 986 c 128,-1,49
 490 964 490 964 480 937 c 1,50,51
 446 895 446 895 400 841.5 c 128,-1,52
 354 788 354 788 309.5 729.5 c 128,-1,53
 265 671 265 671 228.5 610.5 c 128,-1,54
 192 550 192 550 177 493 c 0,55,56
 171 473 171 473 181.5 458.5 c 128,-1,57
 192 444 192 444 212.5 434.5 c 128,-1,58
 233 425 233 425 260 419 c 128,-1,59
 287 413 287 413 313.5 410 c 128,-1,60
 340 407 340 407 362.5 405.5 c 128,-1,61
 385 404 385 404 397 403 c 1,62,63
 395 466 395 466 395 529.5 c 128,-1,64
 395 593 395 593 395 656 c 1,0,1
EndSplineSet
EndChar

StartChar: five
Encoding: 53 53 24
Width: 846
VWidth: 2048
Flags: W
LayerCount: 2
Fore
SplineSet
215 543 m 1,0,1
 180 528 180 528 158 533.5 c 128,-1,2
 136 539 136 539 123.5 556.5 c 128,-1,3
 111 574 111 574 106.5 599.5 c 128,-1,4
 102 625 102 625 101 649 c 0,5,6
 100 672 100 672 99 705.5 c 128,-1,7
 98 739 98 739 99 775.5 c 128,-1,8
 100 812 100 812 103.5 848.5 c 128,-1,9
 107 885 107 885 114.5 916.5 c 128,-1,10
 122 948 122 948 135.5 970 c 128,-1,11
 149 992 149 992 170 1000 c 0,12,13
 225 1020 225 1020 285.5 1025 c 128,-1,14
 346 1030 346 1030 409 1028.5 c 128,-1,15
 472 1027 472 1027 535 1022.5 c 128,-1,16
 598 1018 598 1018 657 1019 c 1,17,18
 684 1011 684 1011 695.5 992 c 128,-1,19
 707 973 707 973 704 952.5 c 128,-1,20
 701 932 701 932 684.5 914.5 c 128,-1,21
 668 897 668 897 640 891 c 1,22,23
 581 890 581 890 532.5 894.5 c 128,-1,24
 484 899 484 899 438.5 902.5 c 128,-1,25
 393 906 393 906 348 904.5 c 128,-1,26
 303 903 303 903 251 891 c 1,27,28
 249 861 249 861 246.5 835.5 c 128,-1,29
 244 810 244 810 241.5 785.5 c 128,-1,30
 239 761 239 761 236.5 735.5 c 128,-1,31
 234 710 234 710 232 681 c 1,32,33
 298 706 298 706 366.5 711 c 128,-1,34
 435 716 435 716 518 694 c 0,35,36
 579 677 579 677 630 648 c 128,-1,37
 681 619 681 619 717 578.5 c 128,-1,38
 753 538 753 538 772.5 486.5 c 128,-1,39
 792 435 792 435 791 374 c 0,40,41
 789 307 789 307 762 251 c 128,-1,42
 735 195 735 195 690 151.5 c 128,-1,43
 645 108 645 108 587.5 79 c 128,-1,44
 530 50 530 50 468.5 37 c 128,-1,45
 407 24 407 24 345.5 28 c 128,-1,46
 284 32 284 32 231 55.5 c 128,-1,47
 178 79 178 79 138.5 123.5 c 128,-1,48
 99 168 99 168 81 235 c 1,49,50
 69 261 69 261 75.5 284.5 c 128,-1,51
 82 308 82 308 99 322.5 c 128,-1,52
 116 337 116 337 140 339 c 128,-1,53
 164 341 164 341 187 324 c 1,54,55
 201 260 201 260 242 222.5 c 128,-1,56
 283 185 283 185 336 171 c 128,-1,57
 389 157 389 157 446.5 165 c 128,-1,58
 504 173 504 173 552 201 c 128,-1,59
 600 229 600 229 630 276 c 128,-1,60
 660 323 660 323 658 386 c 0,61,62
 657 438 657 438 633.5 477 c 128,-1,63
 610 516 610 516 572.5 541.5 c 128,-1,64
 535 567 535 567 488 579.5 c 128,-1,65
 441 592 441 592 392 592 c 128,-1,66
 343 592 343 592 297 579.5 c 128,-1,67
 251 567 251 567 215 543 c 1,0,1
EndSplineSet
EndChar

StartChar: six
Encoding: 54 54 25
Width: 838
VWidth: 2048
Flags: W
LayerCount: 2
Fore
SplineSet
537 1037 m 0,0,1
 564 1029 564 1029 573.5 1008.5 c 128,-1,2
 583 988 583 988 580 967 c 128,-1,3
 577 946 577 946 563.5 930.5 c 128,-1,4
 550 915 550 915 532 918 c 0,5,6
 484 926 484 926 430 904 c 128,-1,7
 376 882 376 882 329.5 836.5 c 128,-1,8
 283 791 283 791 251 726.5 c 128,-1,9
 219 662 219 662 213 586 c 1,10,11
 235 615 235 615 260.5 637 c 128,-1,12
 286 659 286 659 322 671 c 128,-1,13
 358 683 358 683 406 684.5 c 128,-1,14
 454 686 454 686 521 674 c 0,15,16
 575 665 575 665 623 629.5 c 128,-1,17
 671 594 671 594 707 544 c 128,-1,18
 743 494 743 494 763 436 c 128,-1,19
 783 378 783 378 779 324 c 0,20,21
 774 241 774 241 740 178.5 c 128,-1,22
 706 116 706 116 654.5 74.5 c 128,-1,23
 603 33 603 33 539 13.5 c 128,-1,24
 475 -6 475 -6 409 -2 c 128,-1,25
 343 2 343 2 280.5 30 c 128,-1,26
 218 58 218 58 169 111.5 c 128,-1,27
 120 165 120 165 89.5 244.5 c 128,-1,28
 59 324 59 324 58 431 c 0,29,30
 57 515 57 515 73 596.5 c 128,-1,31
 89 678 89 678 119 750.5 c 128,-1,32
 149 823 149 823 192 882 c 128,-1,33
 235 941 235 941 288.5 980 c 128,-1,34
 342 1019 342 1019 404.5 1035 c 128,-1,35
 467 1051 467 1051 537 1037 c 0,0,1
193 392 m 1,36,37
 188 339 188 339 208 289 c 128,-1,38
 228 239 228 239 265.5 201.5 c 128,-1,39
 303 164 303 164 354.5 145 c 128,-1,40
 406 126 406 126 464 137 c 0,41,42
 527 149 527 149 570 187 c 128,-1,43
 613 225 613 225 629.5 276 c 128,-1,44
 646 327 646 327 633 383.5 c 128,-1,45
 620 440 620 440 571 489 c 0,46,47
 529 531 529 531 488 548 c 128,-1,48
 447 565 447 565 409.5 563.5 c 128,-1,49
 372 562 372 562 338 545.5 c 128,-1,50
 304 529 304 529 276 504.5 c 128,-1,51
 248 480 248 480 226.5 450 c 128,-1,52
 205 420 205 420 193 392 c 1,36,37
EndSplineSet
EndChar

StartChar: seven
Encoding: 55 55 26
Width: 843
VWidth: 2048
Flags: W
LayerCount: 2
Fore
SplineSet
65 862 m 1,0,1
 52 889 52 889 57 911.5 c 128,-1,2
 62 934 62 934 79 946 c 0,3,4
 84 954 84 954 96 964 c 1,5,6
 129 977 129 977 177 989.5 c 128,-1,7
 225 1002 225 1002 281 1011.5 c 128,-1,8
 337 1021 337 1021 396.5 1026.5 c 128,-1,9
 456 1032 456 1032 512 1031.5 c 128,-1,10
 568 1031 568 1031 616.5 1023 c 128,-1,11
 665 1015 665 1015 698 999 c 0,12,13
 709 994 709 994 720 987 c 128,-1,14
 731 980 731 980 742 974 c 0,15,16
 758 962 758 962 766 948 c 128,-1,17
 774 934 774 934 775 920 c 128,-1,18
 776 906 776 906 770 894 c 128,-1,19
 764 882 764 882 753 874 c 1,20,21
 717 767 717 767 677.5 668 c 128,-1,22
 638 569 638 569 596.5 472 c 128,-1,23
 555 375 555 375 513 276.5 c 128,-1,24
 471 178 471 178 431 70 c 0,25,26
 419 40 419 40 391 28.5 c 128,-1,27
 363 17 363 17 335 22 c 128,-1,28
 307 27 307 27 288 46.5 c 128,-1,29
 269 66 269 66 275 98 c 1,30,31
 329 197 329 197 373.5 295.5 c 128,-1,32
 418 394 418 394 459 493.5 c 128,-1,33
 500 593 500 593 540 692.5 c 128,-1,34
 580 792 580 792 626 892 c 1,35,36
 584 903 584 903 532 906.5 c 128,-1,37
 480 910 480 910 425.5 907.5 c 128,-1,38
 371 905 371 905 317 897.5 c 128,-1,39
 263 890 263 890 218 879 c 1,40,41
 230 865 230 865 239 851 c 128,-1,42
 248 837 248 837 253 821 c 0,43,44
 262 790 262 790 251 768 c 128,-1,45
 240 746 240 746 220.5 738.5 c 128,-1,46
 201 731 201 731 178 739.5 c 128,-1,47
 155 748 155 748 141 778 c 0,48,49
 130 802 130 802 107 822.5 c 128,-1,50
 84 843 84 843 65 862 c 1,0,1
EndSplineSet
EndChar

StartChar: eight
Encoding: 56 56 27
Width: 825
VWidth: 2048
Flags: W
LayerCount: 2
Fore
SplineSet
630 553 m 2,0,1
 657 537 657 537 681 519.5 c 128,-1,2
 705 502 705 502 725.5 480 c 128,-1,3
 746 458 746 458 761 431.5 c 128,-1,4
 776 405 776 405 784 371 c 0,5,6
 793 327 793 327 787 281.5 c 128,-1,7
 781 236 781 236 763 193.5 c 128,-1,8
 745 151 745 151 715.5 115 c 128,-1,9
 686 79 686 79 647 54 c 0,10,11
 584 14 584 14 518 -1.5 c 128,-1,12
 452 -17 452 -17 389 -12.5 c 128,-1,13
 326 -8 326 -8 268.5 15 c 128,-1,14
 211 38 211 38 165.5 75.5 c 128,-1,15
 120 113 120 113 88 163 c 128,-1,16
 56 213 56 213 45 272 c 0,17,18
 36 320 36 320 44 362.5 c 128,-1,19
 52 405 52 405 74 442.5 c 128,-1,20
 96 480 96 480 128.5 512 c 128,-1,21
 161 544 161 544 201 570 c 1,22,23
 163 580 163 580 137 605.5 c 128,-1,24
 111 631 111 631 97.5 665 c 128,-1,25
 84 699 84 699 82.5 739.5 c 128,-1,26
 81 780 81 780 89.5 819.5 c 128,-1,27
 98 859 98 859 117 895 c 128,-1,28
 136 931 136 931 165 957 c 0,29,30
 208 996 208 996 261.5 1016.5 c 128,-1,31
 315 1037 315 1037 370.5 1039 c 128,-1,32
 426 1041 426 1041 481 1025 c 128,-1,33
 536 1009 536 1009 582 975.5 c 128,-1,34
 628 942 628 942 661.5 891 c 128,-1,35
 695 840 695 840 709 773 c 0,36,37
 715 742 715 742 710.5 712 c 128,-1,38
 706 682 706 682 692.5 654 c 128,-1,39
 679 626 679 626 658.5 602.5 c 128,-1,40
 638 579 638 579 612 562 c 1,41,-1
 630 553 l 2,0,1
632 343 m 0,42,43
 627 382 627 382 604.5 414.5 c 128,-1,44
 582 447 582 447 549 469.5 c 128,-1,45
 516 492 516 492 477 503 c 128,-1,46
 438 514 438 514 400 510 c 256,47,48
 362 506 362 506 325 490 c 128,-1,49
 288 474 288 474 258.5 447 c 128,-1,50
 229 420 229 420 211 381.5 c 128,-1,51
 193 343 193 343 193 295 c 0,52,53
 193 234 193 234 227.5 194.5 c 128,-1,54
 262 155 262 155 313.5 137.5 c 128,-1,55
 365 120 365 120 424 124 c 128,-1,56
 483 128 483 128 532 153.5 c 128,-1,57
 581 179 581 179 610.5 226.5 c 128,-1,58
 640 274 640 274 632 343 c 0,42,43
562 761 m 0,59,60
 551 809 551 809 521 842 c 128,-1,61
 491 875 491 875 452 891.5 c 128,-1,62
 413 908 413 908 371.5 906.5 c 128,-1,63
 330 905 330 905 296.5 884 c 128,-1,64
 263 863 263 863 243.5 820.5 c 128,-1,65
 224 778 224 778 230 713 c 1,66,67
 239 684 239 684 270 665.5 c 128,-1,68
 301 647 301 647 341 639 c 128,-1,69
 381 631 381 631 424 634.5 c 128,-1,70
 467 638 467 638 501 653 c 128,-1,71
 535 668 535 668 553 694.5 c 128,-1,72
 571 721 571 721 562 761 c 0,59,60
EndSplineSet
EndChar

StartChar: nine
Encoding: 57 57 28
Width: 804
VWidth: 2048
Flags: W
LayerCount: 2
Fore
SplineSet
687 869 m 0,0,1
 693 863 693 863 698 827 c 128,-1,2
 703 791 703 791 707 736.5 c 128,-1,3
 711 682 711 682 713.5 613 c 128,-1,4
 716 544 716 544 717.5 473 c 128,-1,5
 719 402 719 402 718.5 333 c 128,-1,6
 718 264 718 264 715.5 209.5 c 128,-1,7
 713 155 713 155 708.5 119 c 128,-1,8
 704 83 704 83 697 77 c 1,9,10
 695 44 695 44 677 30.5 c 128,-1,11
 659 17 659 17 636.5 20 c 128,-1,12
 614 23 614 23 594 41.5 c 128,-1,13
 574 60 574 60 570 92 c 1,14,15
 570 198 570 198 572.5 296.5 c 128,-1,16
 575 395 575 395 575 500 c 1,17,18
 526 465 526 465 471 448 c 128,-1,19
 416 431 416 431 360.5 431.5 c 128,-1,20
 305 432 305 432 250 450 c 128,-1,21
 195 468 195 468 146 503 c 0,22,23
 96 540 96 540 71.5 583.5 c 128,-1,24
 47 627 47 627 44 673 c 128,-1,25
 41 719 41 719 56.5 765 c 128,-1,26
 72 811 72 811 101.5 853.5 c 128,-1,27
 131 896 131 896 171.5 931.5 c 128,-1,28
 212 967 212 967 259 993 c 0,29,30
 288 1009 288 1009 326.5 1016 c 128,-1,31
 365 1023 365 1023 406.5 1020.5 c 128,-1,32
 448 1018 448 1018 490.5 1007.5 c 128,-1,33
 533 997 533 997 570.5 978.5 c 128,-1,34
 608 960 608 960 638 933 c 128,-1,35
 668 906 668 906 685 872 c 0,36,37
 686 871 686 871 686 870.5 c 128,-1,38
 686 870 686 870 687 869 c 0,0,1
570 665 m 0,39,40
 585 698 585 698 583 734 c 128,-1,41
 581 770 581 770 579 809 c 1,42,43
 554 835 554 835 522 853.5 c 128,-1,44
 490 872 490 872 454.5 880.5 c 128,-1,45
 419 889 419 889 381 886.5 c 128,-1,46
 343 884 343 884 305 867 c 0,47,48
 248 841 248 841 217 799 c 128,-1,49
 186 757 186 757 182 712 c 128,-1,50
 178 667 178 667 201.5 625.5 c 128,-1,51
 225 584 225 584 277 560 c 0,52,53
 312 544 312 544 356 545 c 128,-1,54
 400 546 400 546 442 561 c 128,-1,55
 484 576 484 576 518.5 602.5 c 128,-1,56
 553 629 553 629 570 665 c 0,39,40
EndSplineSet
EndChar

StartChar: colon
Encoding: 58 58 29
Width: 300
VWidth: 2048
Flags: W
LayerCount: 2
Fore
SplineSet
188 761 m 0,0,1
 207 747 207 747 217 726.5 c 128,-1,2
 227 706 227 706 225.5 686 c 128,-1,3
 224 666 224 666 210.5 649.5 c 128,-1,4
 197 633 197 633 169 626 c 0,5,6
 133 618 133 618 112 630.5 c 128,-1,7
 91 643 91 643 82.5 664 c 128,-1,8
 74 685 74 685 78 709.5 c 128,-1,9
 82 734 82 734 96 751.5 c 128,-1,10
 110 769 110 769 133.5 774 c 128,-1,11
 157 779 157 779 188 761 c 0,0,1
223 54 m 0,12,13
 198 28 198 28 176.5 19 c 128,-1,14
 155 10 155 10 138.5 14 c 128,-1,15
 122 18 122 18 110 30.5 c 128,-1,16
 98 43 98 43 93 60 c 128,-1,17
 88 77 88 77 90 94.5 c 128,-1,18
 92 112 92 112 102 126 c 0,19,20
 114 142 114 142 131.5 147 c 128,-1,21
 149 152 149 152 167 148.5 c 128,-1,22
 185 145 185 145 200.5 135 c 128,-1,23
 216 125 216 125 225.5 111.5 c 128,-1,24
 235 98 235 98 235.5 82.5 c 128,-1,25
 236 67 236 67 223 54 c 0,12,13
EndSplineSet
EndChar

StartChar: semicolon
Encoding: 59 59 30
Width: 300
VWidth: 2048
Flags: W
LayerCount: 2
Fore
SplineSet
91 82 m 0,0,1
 68 105 68 105 67 129.5 c 128,-1,2
 66 154 66 154 80 170 c 128,-1,3
 94 186 94 186 118 189 c 128,-1,4
 142 192 142 192 168 173 c 0,5,6
 207 141 207 141 226 101.5 c 128,-1,7
 245 62 245 62 244.5 21.5 c 128,-1,8
 244 -19 244 -19 223 -57.5 c 128,-1,9
 202 -96 202 -96 160 -124 c 0,10,11
 132 -141 132 -141 108 -135.5 c 128,-1,12
 84 -130 84 -130 71.5 -112.5 c 128,-1,13
 59 -95 59 -95 62 -71 c 128,-1,14
 65 -47 65 -47 90 -27 c 0,15,16
 125 -4 125 -4 124 26.5 c 128,-1,17
 123 57 123 57 91 82 c 0,0,1
188 761 m 0,18,19
 207 747 207 747 217 726.5 c 128,-1,20
 227 706 227 706 225.5 686 c 128,-1,21
 224 666 224 666 210.5 649.5 c 128,-1,22
 197 633 197 633 169 626 c 0,23,24
 133 618 133 618 112 630.5 c 128,-1,25
 91 643 91 643 82.5 664 c 128,-1,26
 74 685 74 685 78 709.5 c 128,-1,27
 82 734 82 734 96 751.5 c 128,-1,28
 110 769 110 769 133.5 774 c 128,-1,29
 157 779 157 779 188 761 c 0,18,19
EndSplineSet
EndChar

StartChar: less
Encoding: 60 60 31
Width: 758
VWidth: 2048
Flags: W
LayerCount: 2
Fore
SplineSet
558 867 m 1,0,1
 583 888 583 888 607.5 886.5 c 128,-1,2
 632 885 632 885 646.5 870.5 c 128,-1,3
 661 856 661 856 662.5 831.5 c 128,-1,4
 664 807 664 807 643 782 c 1,5,6
 608 756 608 756 563.5 726.5 c 128,-1,7
 519 697 519 697 473.5 666 c 128,-1,8
 428 635 428 635 385 604 c 128,-1,9
 342 573 342 573 307.5 544.5 c 128,-1,10
 273 516 273 516 251.5 490.5 c 128,-1,11
 230 465 230 465 229 446 c 0,12,13
 230 440 230 440 247.5 418.5 c 128,-1,14
 265 397 265 397 293.5 367 c 128,-1,15
 322 337 322 337 359 302 c 128,-1,16
 396 267 396 267 437 235 c 128,-1,17
 478 203 478 203 520 177.5 c 128,-1,18
 562 152 562 152 600 140 c 0,19,20
 631 131 631 131 644 108 c 128,-1,21
 657 85 657 85 655.5 61.5 c 128,-1,22
 654 38 654 38 639 21 c 128,-1,23
 624 4 624 4 600 6 c 0,24,25
 547 18 547 18 489.5 47 c 128,-1,26
 432 76 432 76 376 115.5 c 128,-1,27
 320 155 320 155 269.5 202 c 128,-1,28
 219 249 219 249 180.5 296 c 128,-1,29
 142 343 142 343 118.5 386.5 c 128,-1,30
 95 430 95 430 94 464 c 0,31,32
 92 498 92 498 116 534.5 c 128,-1,33
 140 571 140 571 179 608 c 128,-1,34
 218 645 218 645 268.5 681.5 c 128,-1,35
 319 718 319 718 371 751.5 c 128,-1,36
 423 785 423 785 472 814.5 c 128,-1,37
 521 844 521 844 558 867 c 1,0,1
EndSplineSet
EndChar

StartChar: equal
Encoding: 61 61 32
Width: 1052
VWidth: 2048
Flags: W
LayerCount: 2
Fore
SplineSet
149 185 m 1,0,1
 117 189 117 189 101.5 207.5 c 128,-1,2
 86 226 86 226 86.5 247 c 128,-1,3
 87 268 87 268 104 285 c 128,-1,4
 121 302 121 302 154 304 c 0,5,6
 248 305 248 305 325.5 307.5 c 128,-1,7
 403 310 403 310 476.5 312.5 c 128,-1,8
 550 315 550 315 627 317.5 c 128,-1,9
 704 320 704 320 798 320 c 1,10,11
 825 312 825 312 838 294.5 c 128,-1,12
 851 277 851 277 850.5 258 c 128,-1,13
 850 239 850 239 835.5 223 c 128,-1,14
 821 207 821 207 793 201 c 1,15,16
 699 200 699 200 622 197.5 c 128,-1,17
 545 195 545 195 471.5 192.5 c 128,-1,18
 398 190 398 190 320.5 187.5 c 128,-1,19
 243 185 243 185 149 185 c 1,0,1
141 479 m 1,20,21
 109 483 109 483 93.5 501.5 c 128,-1,22
 78 520 78 520 78.5 541 c 128,-1,23
 79 562 79 562 96 579 c 128,-1,24
 113 596 113 596 146 598 c 0,25,26
 309 600 309 600 470 606.5 c 128,-1,27
 631 613 631 613 793 614 c 1,28,29
 820 606 820 606 833 588.5 c 128,-1,30
 846 571 846 571 845.5 552 c 128,-1,31
 845 533 845 533 830.5 517 c 128,-1,32
 816 501 816 501 788 495 c 1,33,34
 626 494 626 494 465 487 c 128,-1,35
 304 480 304 480 141 479 c 1,20,21
EndSplineSet
EndChar

StartChar: greater
Encoding: 62 62 33
Width: 720
VWidth: 2048
Flags: W
LayerCount: 2
Fore
SplineSet
188 867 m 1,0,1
 225 844 225 844 274 814.5 c 128,-1,2
 323 785 323 785 375 751.5 c 128,-1,3
 427 718 427 718 477.5 681.5 c 128,-1,4
 528 645 528 645 567 608 c 128,-1,5
 606 571 606 571 629.5 534.5 c 128,-1,6
 653 498 653 498 652 464 c 0,7,8
 650 430 650 430 627 386.5 c 128,-1,9
 604 343 604 343 565.5 296 c 128,-1,10
 527 249 527 249 476.5 202 c 128,-1,11
 426 155 426 155 370 115.5 c 128,-1,12
 314 76 314 76 256.5 47 c 128,-1,13
 199 18 199 18 146 6 c 0,14,15
 122 4 122 4 107 21 c 128,-1,16
 92 38 92 38 90.5 61.5 c 128,-1,17
 89 85 89 85 101.5 108 c 128,-1,18
 114 131 114 131 146 140 c 0,19,20
 184 152 184 152 226 177.5 c 128,-1,21
 268 203 268 203 309 235 c 128,-1,22
 350 267 350 267 387 302 c 128,-1,23
 424 337 424 337 452.5 367 c 128,-1,24
 481 397 481 397 498 418.5 c 128,-1,25
 515 440 515 440 517 446 c 0,26,27
 516 465 516 465 494.5 490.5 c 128,-1,28
 473 516 473 516 438.5 544.5 c 128,-1,29
 404 573 404 573 361 604 c 128,-1,30
 318 635 318 635 272.5 666 c 128,-1,31
 227 697 227 697 182.5 726.5 c 128,-1,32
 138 756 138 756 103 782 c 1,33,34
 82 807 82 807 83.5 831.5 c 128,-1,35
 85 856 85 856 99.5 870.5 c 128,-1,36
 114 885 114 885 138 886.5 c 128,-1,37
 162 888 162 888 188 867 c 1,0,1
EndSplineSet
EndChar

StartChar: question
Encoding: 63 63 34
Width: 776
VWidth: 2048
Flags: W
LayerCount: 2
Fore
SplineSet
264 966 m 1,0,1
 303 974 303 974 343 962.5 c 128,-1,2
 383 951 383 951 415 915 c 0,3,4
 436 892 436 892 449.5 860 c 128,-1,5
 463 828 463 828 466 795 c 128,-1,6
 469 762 469 762 459.5 731 c 128,-1,7
 450 700 450 700 424 678 c 0,8,9
 389 648 389 648 340 632 c 128,-1,10
 291 616 291 616 243 618 c 128,-1,11
 195 620 195 620 155 642 c 128,-1,12
 115 664 115 664 96 710 c 1,13,14
 67 761 67 761 59.5 807.5 c 128,-1,15
 52 854 52 854 62 897.5 c 128,-1,16
 72 941 72 941 98 982 c 128,-1,17
 124 1023 124 1023 164 1061 c 0,18,19
 200 1095 200 1095 247 1113 c 128,-1,20
 294 1131 294 1131 346 1133.5 c 128,-1,21
 398 1136 398 1136 450.5 1124.5 c 128,-1,22
 503 1113 503 1113 548.5 1088 c 128,-1,23
 594 1063 594 1063 630 1026 c 128,-1,24
 666 989 666 989 684 941 c 0,25,26
 713 865 713 865 715.5 808 c 128,-1,27
 718 751 718 751 702 706.5 c 128,-1,28
 686 662 686 662 656.5 627.5 c 128,-1,29
 627 593 627 593 591 563 c 128,-1,30
 555 533 555 533 517.5 503.5 c 128,-1,31
 480 474 480 474 449 440 c 0,32,33
 441 432 441 432 438 416 c 128,-1,34
 435 400 435 400 434.5 382 c 128,-1,35
 434 364 434 364 434.5 347.5 c 128,-1,36
 435 331 435 331 435 321 c 0,37,38
 433 288 433 288 416 271 c 128,-1,39
 399 254 399 254 378 253.5 c 128,-1,40
 357 253 357 253 338.5 268.5 c 128,-1,41
 320 284 320 284 316 316 c 0,42,43
 315 357 315 357 311.5 388 c 128,-1,44
 308 419 308 419 311 445.5 c 128,-1,45
 314 472 314 472 328.5 496 c 128,-1,46
 343 520 343 520 378 548 c 0,47,48
 412 575 412 575 448.5 599 c 128,-1,49
 485 623 485 623 515.5 649.5 c 128,-1,50
 546 676 546 676 566 706 c 128,-1,51
 586 736 586 736 587 774 c 0,52,53
 589 841 589 841 560.5 894 c 128,-1,54
 532 947 532 947 485.5 976 c 128,-1,55
 439 1005 439 1005 380.5 1005.5 c 128,-1,56
 322 1006 322 1006 265 967 c 1,57,-1
 264 966 l 1,0,1
341 -7 m 0,58,59
 328 0 328 0 318.5 12 c 128,-1,60
 309 24 309 24 304.5 37.5 c 128,-1,61
 300 51 300 51 300 64 c 128,-1,62
 300 77 300 77 306 88 c 0,63,64
 311 107 311 107 326 119.5 c 128,-1,65
 341 132 341 132 360 136 c 128,-1,66
 379 140 379 140 399.5 135.5 c 128,-1,67
 420 131 420 131 435 115 c 0,68,69
 455 95 455 95 455.5 68.5 c 128,-1,70
 456 42 456 42 442 21 c 0,71,72
 427 -9 427 -9 398.5 -15 c 128,-1,73
 370 -21 370 -21 341 -7 c 0,58,59
347 837 m 0,74,75
 327 866 327 866 299.5 873 c 128,-1,76
 272 880 272 880 248 872 c 128,-1,77
 224 864 224 864 208.5 843 c 128,-1,78
 193 822 193 822 196 796 c 256,79,80
 199 770 199 770 216 756 c 128,-1,81
 233 742 233 742 255.5 738.5 c 128,-1,82
 278 735 278 735 301 741.5 c 128,-1,83
 324 748 324 748 339.5 761 c 128,-1,84
 355 774 355 774 359 793.5 c 128,-1,85
 363 813 363 813 347 837 c 0,74,75
EndSplineSet
EndChar

StartChar: at
Encoding: 64 64 35
Width: 1317
VWidth: 2048
Flags: W
LayerCount: 2
Fore
SplineSet
772 650 m 0,0,1
 786 674 786 674 806.5 682.5 c 128,-1,2
 827 691 827 691 845 685.5 c 128,-1,3
 863 680 863 680 875 661.5 c 128,-1,4
 887 643 887 643 886 615 c 1,5,6
 872 576 872 576 853 539 c 128,-1,7
 834 502 834 502 820.5 463.5 c 128,-1,8
 807 425 807 425 803 384.5 c 128,-1,9
 799 344 799 344 815 298 c 0,10,11
 821 281 821 281 833.5 270.5 c 128,-1,12
 846 260 846 260 861 257 c 128,-1,13
 876 254 876 254 892 258.5 c 128,-1,14
 908 263 908 263 921 274 c 0,15,16
 940 290 940 290 959 324.5 c 128,-1,17
 978 359 978 359 993 402 c 128,-1,18
 1008 445 1008 445 1016 493 c 128,-1,19
 1024 541 1024 541 1023 584.5 c 128,-1,20
 1022 628 1022 628 1008.5 662.5 c 128,-1,21
 995 697 995 697 967 715 c 0,22,23
 884 766 884 766 791.5 785.5 c 128,-1,24
 699 805 699 805 610 795 c 128,-1,25
 521 785 521 785 442.5 747 c 128,-1,26
 364 709 364 709 308.5 646.5 c 128,-1,27
 253 584 253 584 226.5 498 c 128,-1,28
 200 412 200 412 217 306 c 0,29,30
 229 227 229 227 270 169.5 c 128,-1,31
 311 112 311 112 370 74.5 c 128,-1,32
 429 37 429 37 500.5 18.5 c 128,-1,33
 572 0 572 0 645 -1.5 c 128,-1,34
 718 -3 718 -3 788 11.5 c 128,-1,35
 858 26 858 26 914 55 c 0,36,37
 954 75 954 75 988 103 c 128,-1,38
 1022 131 1022 131 1058 157 c 1,39,40
 1085 167 1085 167 1106 161.5 c 128,-1,41
 1127 156 1127 156 1137.5 141 c 128,-1,42
 1148 126 1148 126 1147 104 c 128,-1,43
 1146 82 1146 82 1128 60 c 0,44,45
 1076 2 1076 2 998 -43 c 128,-1,46
 920 -88 920 -88 829 -115 c 128,-1,47
 738 -142 738 -142 640.5 -147 c 128,-1,48
 543 -152 543 -152 452 -130.5 c 128,-1,49
 361 -109 361 -109 284 -57 c 128,-1,50
 207 -5 207 -5 157 82 c 0,51,52
 95 190 95 190 76.5 296.5 c 128,-1,53
 58 403 58 403 77.5 499 c 128,-1,54
 97 595 97 595 149.5 677 c 128,-1,55
 202 759 202 759 281.5 817.5 c 128,-1,56
 361 876 361 876 464 908 c 128,-1,57
 567 940 567 940 687 936 c 0,58,59
 752 934 752 934 814 926 c 128,-1,60
 876 918 876 918 931.5 896 c 128,-1,61
 987 874 987 874 1035 833.5 c 128,-1,62
 1083 793 1083 793 1122 726 c 0,63,64
 1152 674 1152 674 1158 600 c 128,-1,65
 1164 526 1164 526 1149 449 c 128,-1,66
 1134 372 1134 372 1099.5 302 c 128,-1,67
 1065 232 1065 232 1013.5 189 c 128,-1,68
 962 146 962 146 894.5 140 c 128,-1,69
 827 134 827 134 746 184 c 1,70,71
 697 142 697 142 636.5 127 c 128,-1,72
 576 112 576 112 517 123 c 128,-1,73
 458 134 458 134 407.5 171 c 128,-1,74
 357 208 357 208 327 270 c 0,75,76
 289 340 289 340 293 404 c 128,-1,77
 297 468 297 468 330.5 520 c 128,-1,78
 364 572 364 572 420 609 c 128,-1,79
 476 646 476 646 543 664 c 0,80,81
 571 671 571 671 600.5 673 c 128,-1,82
 630 675 630 675 658 670 c 128,-1,83
 686 665 686 665 711 653 c 128,-1,84
 736 641 736 641 755 620 c 1,85,86
 758 626 758 626 760 629 c 128,-1,87
 762 632 762 632 764 634.5 c 128,-1,88
 766 637 766 637 767.5 640 c 128,-1,89
 769 643 769 643 772 650 c 0,0,1
608 240 m 0,90,91
 631 250 631 250 651.5 265.5 c 128,-1,92
 672 281 672 281 692 295 c 1,93,94
 682 343 682 343 686 392.5 c 128,-1,95
 690 442 690 442 701 490 c 1,96,97
 685 502 685 502 675 522 c 0,98,99
 669 542 669 542 653 549.5 c 128,-1,100
 637 557 637 557 616.5 556 c 128,-1,101
 596 555 596 555 572.5 548 c 128,-1,102
 549 541 549 541 528.5 532 c 128,-1,103
 508 523 508 523 491.5 514 c 128,-1,104
 475 505 475 505 469 501 c 0,105,106
 437 479 437 479 425.5 447.5 c 128,-1,107
 414 416 414 416 418 382 c 128,-1,108
 422 348 422 348 439 316 c 128,-1,109
 456 284 456 284 482 262.5 c 128,-1,110
 508 241 508 241 540.5 233 c 128,-1,111
 573 225 573 225 608 240 c 0,90,91
EndSplineSet
EndChar

StartChar: A
Encoding: 65 65 36
Width: 883
VWidth: 2048
Flags: W
LayerCount: 2
Fore
SplineSet
44 69 m 1,0,1
 62 111 62 111 78 174.5 c 128,-1,2
 94 238 94 238 110 314 c 128,-1,3
 126 390 126 390 144 473 c 128,-1,4
 162 556 162 556 182.5 636.5 c 128,-1,5
 203 717 203 717 228 789.5 c 128,-1,6
 253 862 253 862 284 917 c 128,-1,7
 315 972 315 972 353 1004.5 c 128,-1,8
 391 1037 391 1037 438 1037 c 0,9,10
 465 1037 465 1037 491.5 1004.5 c 128,-1,11
 518 972 518 972 543.5 917.5 c 128,-1,12
 569 863 569 863 594.5 791 c 128,-1,13
 620 719 620 719 645 640 c 128,-1,14
 670 561 670 561 695 479 c 128,-1,15
 720 397 720 397 744.5 323 c 128,-1,16
 769 249 769 249 793.5 187 c 128,-1,17
 818 125 818 125 843 86 c 1,18,19
 851 59 851 59 841 38.5 c 128,-1,20
 831 18 831 18 812.5 8 c 128,-1,21
 794 -2 794 -2 770 1.5 c 128,-1,22
 746 5 746 5 726 25 c 1,23,24
 702 62 702 62 682 104 c 128,-1,25
 662 146 662 146 647.5 185 c 128,-1,26
 633 224 633 224 624 255.5 c 128,-1,27
 615 287 615 287 612 304 c 1,28,29
 562 304 562 304 516 304.5 c 128,-1,30
 470 305 470 305 425 305 c 128,-1,31
 380 305 380 305 334.5 305.5 c 128,-1,32
 289 306 289 306 238 307 c 1,33,34
 226 261 226 261 219.5 226.5 c 128,-1,35
 213 192 213 192 207 160 c 128,-1,36
 201 128 201 128 192 94 c 128,-1,37
 183 60 183 60 166 16 c 1,38,39
 148 -6 148 -6 124.5 -11 c 128,-1,40
 101 -16 101 -16 81.5 -7.5 c 128,-1,41
 62 1 62 1 50 21 c 128,-1,42
 38 41 38 41 44 69 c 1,0,1
426 882 m 1,43,44
 412 886 412 886 398 864 c 128,-1,45
 384 842 384 842 370.5 804 c 128,-1,46
 357 766 357 766 344 717 c 128,-1,47
 331 668 331 668 318.5 618 c 128,-1,48
 306 568 306 568 295 522.5 c 128,-1,49
 284 477 284 477 274 445 c 1,50,51
 317 444 317 444 353.5 443 c 128,-1,52
 390 442 390 442 425.5 440.5 c 128,-1,53
 461 439 461 439 497.5 437.5 c 128,-1,54
 534 436 534 436 576 435 c 1,55,56
 552 494 552 494 535.5 549.5 c 128,-1,57
 519 605 519 605 503.5 660 c 128,-1,58
 488 715 488 715 470 770 c 128,-1,59
 452 825 452 825 426 882 c 1,43,44
EndSplineSet
EndChar

StartChar: B
Encoding: 66 66 37
Width: 876
VWidth: 2048
Flags: W
LayerCount: 2
Fore
SplineSet
113 2 m 0,0,1
 103 119 103 119 94.5 236.5 c 128,-1,2
 86 354 86 354 82 471.5 c 128,-1,3
 78 589 78 589 81 706 c 128,-1,4
 84 823 84 823 98 940 c 1,5,6
 82 950 82 950 74.5 964.5 c 128,-1,7
 67 979 67 979 69 995 c 128,-1,8
 71 1011 71 1011 83 1025 c 128,-1,9
 95 1039 95 1039 117 1047 c 1,10,11
 180 1057 180 1057 255 1062.5 c 128,-1,12
 330 1068 330 1068 405 1060 c 128,-1,13
 480 1052 480 1052 548.5 1026.5 c 128,-1,14
 617 1001 617 1001 667 950 c 0,15,16
 706 911 706 911 714.5 861.5 c 128,-1,17
 723 812 723 812 708.5 763.5 c 128,-1,18
 694 715 694 715 661 673.5 c 128,-1,19
 628 632 628 632 585 608 c 1,20,-1
 583 606 l 2,21,22
 583 605 583 605 585 605 c 0,23,24
 644 585 644 585 684 549 c 128,-1,25
 724 513 724 513 748.5 468 c 128,-1,26
 773 423 773 423 783 370.5 c 128,-1,27
 793 318 793 318 792 265 c 0,28,29
 791 204 791 204 761.5 159 c 128,-1,30
 732 114 732 114 684 82.5 c 128,-1,31
 636 51 636 51 576 31.5 c 128,-1,32
 516 12 516 12 453.5 1 c 128,-1,33
 391 -10 391 -10 332 -13.5 c 128,-1,34
 273 -17 273 -17 228 -17 c 1,35,36
 220 -41 220 -41 202.5 -51.5 c 128,-1,37
 185 -62 185 -62 166.5 -60 c 128,-1,38
 148 -58 148 -58 132.5 -42.5 c 128,-1,39
 117 -27 117 -27 113 2 c 0,0,1
533 496 m 0,40,41
 496 512 496 512 461.5 517 c 128,-1,42
 427 522 427 522 391 520.5 c 128,-1,43
 355 519 355 519 315 512.5 c 128,-1,44
 275 506 275 506 226 498 c 1,45,46
 220 400 220 400 224 299 c 128,-1,47
 228 198 228 198 231 102 c 1,48,-1
 237 102 l 2,49,50
 268 102 268 102 296 102 c 128,-1,51
 324 102 324 102 353 104 c 128,-1,52
 382 106 382 106 413.5 112 c 128,-1,53
 445 118 445 118 484 130 c 0,54,55
 531 144 531 144 565.5 171.5 c 128,-1,56
 600 199 600 199 620.5 233 c 128,-1,57
 641 267 641 267 647.5 305 c 128,-1,58
 654 343 654 343 644 379 c 128,-1,59
 634 415 634 415 606.5 445.5 c 128,-1,60
 579 476 579 476 533 496 c 0,40,41
217 936 m 1,61,62
 209 860 209 860 210 783 c 128,-1,63
 211 706 211 706 219 631 c 1,64,65
 265 635 265 635 314 640.5 c 128,-1,66
 363 646 363 646 408.5 658.5 c 128,-1,67
 454 671 454 671 495 695.5 c 128,-1,68
 536 720 536 720 567 763 c 0,69,70
 589 794 589 794 587 820 c 128,-1,71
 585 846 585 846 567 865.5 c 128,-1,72
 549 885 549 885 520 900 c 128,-1,73
 491 915 491 915 460 924.5 c 128,-1,74
 429 934 429 934 401.5 938.5 c 128,-1,75
 374 943 374 943 359 944 c 0,76,77
 323 945 323 945 287.5 942 c 128,-1,78
 252 939 252 939 217 936 c 1,61,62
EndSplineSet
EndChar

StartChar: C
Encoding: 67 67 38
Width: 989
VWidth: 2048
Flags: W
LayerCount: 2
Fore
SplineSet
763 981 m 0,0,1
 759 1013 759 1013 773.5 1032.5 c 128,-1,2
 788 1052 788 1052 808.5 1056.5 c 128,-1,3
 829 1061 829 1061 850 1048.5 c 128,-1,4
 871 1036 871 1036 880 1005 c 0,5,6
 889 953 889 953 893 901 c 128,-1,7
 897 849 897 849 897 795 c 0,8,9
 895 762 895 762 875.5 744 c 128,-1,10
 856 726 856 726 832 723.5 c 128,-1,11
 808 721 808 721 787 735 c 128,-1,12
 766 749 766 749 762 781 c 1,13,-1
 762 789 l 1,14,15
 714 852 714 852 652.5 878 c 128,-1,16
 591 904 591 904 526.5 899.5 c 128,-1,17
 462 895 462 895 399 863.5 c 128,-1,18
 336 832 336 832 285 781 c 0,19,20
 253 749 253 749 232.5 704 c 128,-1,21
 212 659 212 659 201.5 608.5 c 128,-1,22
 191 558 191 558 190 505.5 c 128,-1,23
 189 453 189 453 195.5 404.5 c 128,-1,24
 202 356 202 356 215.5 315 c 128,-1,25
 229 274 229 274 248 248 c 0,26,27
 277 207 277 207 320.5 180 c 128,-1,28
 364 153 364 153 414 139.5 c 128,-1,29
 464 126 464 126 517.5 125.5 c 128,-1,30
 571 125 571 125 621.5 137 c 128,-1,31
 672 149 672 149 715 173.5 c 128,-1,32
 758 198 758 198 788 235 c 0,33,34
 802 253 802 253 808 275.5 c 128,-1,35
 814 298 814 298 823 319 c 0,36,37
 839 347 839 347 858.5 354.5 c 128,-1,38
 878 362 878 362 894 353.5 c 128,-1,39
 910 345 910 345 920.5 322 c 128,-1,40
 931 299 931 299 930 266 c 0,41,42
 928 195 928 195 882 139 c 128,-1,43
 836 83 836 83 763.5 46.5 c 128,-1,44
 691 10 691 10 602 -5.5 c 128,-1,45
 513 -21 513 -21 424.5 -10.5 c 128,-1,46
 336 0 336 0 258 38 c 128,-1,47
 180 76 180 76 130 147 c 0,48,49
 102 187 102 187 82 243.5 c 128,-1,50
 62 300 62 300 52.5 365.5 c 128,-1,51
 43 431 43 431 44 501.5 c 128,-1,52
 45 572 45 572 58.5 639.5 c 128,-1,53
 72 707 72 707 99 767 c 128,-1,54
 126 827 126 827 168 872 c 0,55,56
 201 907 201 907 247 937 c 128,-1,57
 293 967 293 967 346 988 c 128,-1,58
 399 1009 399 1009 456.5 1020 c 128,-1,59
 514 1031 514 1031 569.5 1029 c 128,-1,60
 625 1027 625 1027 676 1010 c 128,-1,61
 727 993 727 993 767 958 c 1,62,63
 766 964 766 964 765 969.5 c 128,-1,64
 764 975 764 975 763 981 c 0,0,1
EndSplineSet
EndChar

StartChar: D
Encoding: 68 68 39
Width: 863
VWidth: 2048
Flags: W
LayerCount: 2
Fore
SplineSet
116 996 m 0,0,1
 172 1031 172 1031 244 1038 c 128,-1,2
 316 1045 316 1045 392 1028 c 128,-1,3
 468 1011 468 1011 541.5 973 c 128,-1,4
 615 935 615 935 673.5 880 c 128,-1,5
 732 825 732 825 770 755 c 128,-1,6
 808 685 808 685 813 604 c 0,7,8
 819 499 819 499 802.5 419 c 128,-1,9
 786 339 786 339 753.5 279 c 128,-1,10
 721 219 721 219 675 176.5 c 128,-1,11
 629 134 629 134 576.5 104.5 c 128,-1,12
 524 75 524 75 468.5 56 c 128,-1,13
 413 37 413 37 361 25 c 0,14,15
 335 19 335 19 300.5 11 c 128,-1,16
 266 3 266 3 231 2 c 128,-1,17
 196 1 196 1 166 11 c 128,-1,18
 136 21 136 21 120 51 c 0,19,20
 111 69 111 69 115 84 c 128,-1,21
 119 99 119 99 124 112 c 1,22,23
 122 206 122 206 118 306.5 c 128,-1,24
 114 407 114 407 109.5 503 c 128,-1,25
 105 599 105 599 101.5 685.5 c 128,-1,26
 98 772 98 772 97.5 839 c 128,-1,27
 97 906 97 906 101 947.5 c 128,-1,28
 105 989 105 989 116 996 c 0,0,1
235 897 m 1,29,30
 232 792 232 792 233 701.5 c 128,-1,31
 234 611 234 611 237.5 524 c 128,-1,32
 241 437 241 437 247 347 c 128,-1,33
 253 257 253 257 260 151 c 1,34,35
 285 154 285 154 318 160.5 c 128,-1,36
 351 167 351 167 385.5 176.5 c 128,-1,37
 420 186 420 186 452 198 c 128,-1,38
 484 210 484 210 508 225 c 0,39,40
 572 264 572 264 610.5 316 c 128,-1,41
 649 368 649 368 665 426.5 c 128,-1,42
 681 485 681 485 676.5 546.5 c 128,-1,43
 672 608 672 608 649 664.5 c 128,-1,44
 626 721 626 721 586.5 769 c 128,-1,45
 547 817 547 817 494 850 c 128,-1,46
 441 883 441 883 375.5 896.5 c 128,-1,47
 310 910 310 910 235 897 c 1,29,30
EndSplineSet
EndChar

StartChar: E
Encoding: 69 69 40
Width: 787
VWidth: 2048
Flags: W
LayerCount: 2
Fore
SplineSet
194 -30 m 1,0,1
 161 -26 161 -26 145 -6 c 1,2,3
 132 1 132 1 122.5 14.5 c 128,-1,4
 113 28 113 28 111 50 c 0,5,6
 90 308 90 308 91 545 c 128,-1,7
 92 782 92 782 102 1012 c 0,8,9
 106 1021 106 1021 125.5 1026 c 128,-1,10
 145 1031 145 1031 166.5 1031.5 c 128,-1,11
 188 1032 188 1032 204.5 1028 c 128,-1,12
 221 1024 221 1024 221 1017 c 1,13,14
 335 1028 335 1028 446.5 1028.5 c 128,-1,15
 558 1029 558 1029 673 1028 c 1,16,17
 700 1020 700 1020 714 1000.5 c 128,-1,18
 728 981 728 981 728 960 c 128,-1,19
 728 939 728 939 714.5 921 c 128,-1,20
 701 903 701 903 673 897 c 1,21,22
 560 898 560 898 447.5 903 c 128,-1,23
 335 908 335 908 223 897 c 1,24,25
 223 862 223 862 224.5 821.5 c 128,-1,26
 226 781 226 781 227.5 740 c 128,-1,27
 229 699 229 699 230.5 659.5 c 128,-1,28
 232 620 232 620 232 586 c 1,29,30
 268 591 268 591 313 594 c 128,-1,31
 358 597 358 597 404.5 598 c 128,-1,32
 451 599 451 599 496 599.5 c 128,-1,33
 541 600 541 600 577 600 c 1,34,35
 604 592 604 592 618 572 c 128,-1,36
 632 552 632 552 632 529.5 c 128,-1,37
 632 507 632 507 618.5 488 c 128,-1,38
 605 469 605 469 577 463 c 1,39,40
 541 463 541 463 496 465 c 128,-1,41
 451 467 451 467 404 469 c 128,-1,42
 357 471 357 471 312 471 c 128,-1,43
 267 471 267 471 232 466 c 1,44,45
 232 416 232 416 232 373.5 c 128,-1,46
 232 331 232 331 231.5 290 c 128,-1,47
 231 249 231 249 231 206 c 128,-1,48
 231 163 231 163 232 111 c 1,49,50
 346 125 346 125 464 132 c 128,-1,51
 582 139 582 139 697 140 c 1,52,53
 724 132 724 132 735 111.5 c 128,-1,54
 746 91 746 91 742.5 68.5 c 128,-1,55
 739 46 739 46 722.5 26.5 c 128,-1,56
 706 7 706 7 678 1 c 1,57,58
 556 0 556 0 435.5 -7 c 128,-1,59
 315 -14 315 -14 194 -30 c 1,0,1
EndSplineSet
EndChar

StartChar: F
Encoding: 70 70 41
Width: 790
VWidth: 2048
Flags: W
LayerCount: 2
Fore
SplineSet
211 0 m 0,0,1
 198 -4 198 -4 183 -1 c 128,-1,2
 168 2 168 2 155 9.5 c 128,-1,3
 142 17 142 17 132.5 27.5 c 128,-1,4
 123 38 123 38 122 50 c 0,5,6
 101 308 101 308 102 545 c 128,-1,7
 103 782 103 782 113 1012 c 0,8,9
 117 1021 117 1021 136.5 1026 c 128,-1,10
 156 1031 156 1031 177.5 1031.5 c 128,-1,11
 199 1032 199 1032 215.5 1028 c 128,-1,12
 232 1024 232 1024 232 1017 c 1,13,14
 346 1028 346 1028 457.5 1028.5 c 128,-1,15
 569 1029 569 1029 684 1028 c 1,16,17
 711 1020 711 1020 725 1000.5 c 128,-1,18
 739 981 739 981 739 960 c 128,-1,19
 739 939 739 939 725.5 921 c 128,-1,20
 712 903 712 903 684 897 c 1,21,22
 571 898 571 898 458.5 903 c 128,-1,23
 346 908 346 908 234 897 c 1,24,25
 234 862 234 862 235.5 821.5 c 128,-1,26
 237 781 237 781 238.5 740 c 128,-1,27
 240 699 240 699 241.5 659.5 c 128,-1,28
 243 620 243 620 243 586 c 1,29,30
 279 591 279 591 324 594 c 128,-1,31
 369 597 369 597 415.5 598 c 128,-1,32
 462 599 462 599 507 599.5 c 128,-1,33
 552 600 552 600 588 600 c 1,34,35
 615 592 615 592 629 572 c 128,-1,36
 643 552 643 552 643 529.5 c 128,-1,37
 643 507 643 507 629.5 488 c 128,-1,38
 616 469 616 469 588 463 c 1,39,40
 552 463 552 463 507 465 c 128,-1,41
 462 467 462 467 415 469 c 128,-1,42
 368 471 368 471 323 471 c 128,-1,43
 278 471 278 471 243 466 c 1,44,45
 235 449 235 449 235 410 c 128,-1,46
 235 371 235 371 238 321 c 128,-1,47
 241 271 241 271 244.5 216.5 c 128,-1,48
 248 162 248 162 247 116 c 128,-1,49
 246 70 246 70 238 37.5 c 128,-1,50
 230 5 230 5 211 0 c 0,0,1
EndSplineSet
EndChar

StartChar: G
Encoding: 71 71 42
Width: 957
VWidth: 2048
Flags: W
LayerCount: 2
Fore
SplineSet
536 414 m 1,0,1
 504 418 504 418 488.5 436.5 c 128,-1,2
 473 455 473 455 473.5 476 c 128,-1,3
 474 497 474 497 491 514 c 128,-1,4
 508 531 508 531 541 533 c 0,5,6
 587 534 587 534 623.5 534 c 128,-1,7
 660 534 660 534 695 534 c 128,-1,8
 730 534 730 534 767 534.5 c 128,-1,9
 804 535 804 535 849 535 c 0,10,11
 859 532 859 532 864.5 516.5 c 128,-1,12
 870 501 870 501 872 483 c 128,-1,13
 874 465 874 465 874.5 448.5 c 128,-1,14
 875 432 875 432 876 426 c 0,15,16
 877 373 877 373 876.5 330.5 c 128,-1,17
 876 288 876 288 875.5 247.5 c 128,-1,18
 875 207 875 207 874.5 164.5 c 128,-1,19
 874 122 874 122 874 68 c 0,20,21
 872 35 872 35 855 18 c 128,-1,22
 838 1 838 1 817 0.5 c 128,-1,23
 796 0 796 0 777.5 15.5 c 128,-1,24
 759 31 759 31 755 63 c 0,25,26
 755 82 755 82 754.5 90.5 c 128,-1,27
 754 99 754 99 754 105 c 128,-1,28
 754 111 754 111 754 119.5 c 128,-1,29
 754 128 754 128 754 148 c 1,30,31
 713 108 713 108 666.5 75.5 c 128,-1,32
 620 43 620 43 560 37 c 0,33,34
 492 30 492 30 429 36.5 c 128,-1,35
 366 43 366 43 309 65.5 c 128,-1,36
 252 88 252 88 202.5 127 c 128,-1,37
 153 166 153 166 112 225 c 0,38,39
 79 269 79 269 63 337 c 128,-1,40
 47 405 47 405 46.5 482.5 c 128,-1,41
 46 560 46 560 61.5 641 c 128,-1,42
 77 722 77 722 106.5 793.5 c 128,-1,43
 136 865 136 865 180 919.5 c 128,-1,44
 224 974 224 974 282 1000 c 0,45,46
 351 1032 351 1032 427.5 1043.5 c 128,-1,47
 504 1055 504 1055 577.5 1042 c 128,-1,48
 651 1029 651 1029 717 989 c 128,-1,49
 783 949 783 949 830 877 c 1,50,51
 838 850 838 850 829.5 826 c 128,-1,52
 821 802 821 802 803.5 789.5 c 128,-1,53
 786 777 786 777 762 779 c 128,-1,54
 738 781 738 781 714 805 c 0,55,56
 676 844 676 844 623.5 869.5 c 128,-1,57
 571 895 571 895 517.5 905 c 128,-1,58
 464 915 464 915 416 908.5 c 128,-1,59
 368 902 368 902 339 876 c 0,60,61
 299 840 299 840 267.5 784 c 128,-1,62
 236 728 236 728 217.5 663 c 128,-1,63
 199 598 199 598 194.5 528.5 c 128,-1,64
 190 459 190 459 202.5 396.5 c 128,-1,65
 215 334 215 334 246.5 284 c 128,-1,66
 278 234 278 234 331 207 c 0,67,68
 386 179 386 179 446 167.5 c 128,-1,69
 506 156 506 156 562 166.5 c 128,-1,70
 618 177 618 177 666.5 213 c 128,-1,71
 715 249 715 249 748 316 c 1,72,73
 747 340 747 340 746.5 364.5 c 128,-1,74
 746 389 746 389 745 413 c 1,75,76
 712 412 712 412 687.5 412 c 128,-1,77
 663 412 663 412 640.5 412.5 c 128,-1,78
 618 413 618 413 593.5 413.5 c 128,-1,79
 569 414 569 414 536 414 c 1,0,1
EndSplineSet
EndChar

StartChar: H
Encoding: 72 72 43
Width: 919
VWidth: 2048
Flags: W
LayerCount: 2
Fore
SplineSet
663 994 m 1,0,1
 669 1022 669 1022 688 1036.5 c 128,-1,2
 707 1051 707 1051 729.5 1051.5 c 128,-1,3
 752 1052 752 1052 772 1039 c 128,-1,4
 792 1026 792 1026 800 999 c 1,5,6
 827 761 827 761 837.5 528 c 128,-1,7
 848 295 848 295 849 55 c 0,8,9
 848 33 848 33 837 18.5 c 128,-1,10
 826 4 826 4 809.5 -3 c 128,-1,11
 793 -10 793 -10 773.5 -10 c 128,-1,12
 754 -10 754 -10 737 -2.5 c 128,-1,13
 720 5 720 5 708 19 c 128,-1,14
 696 33 696 33 693 55 c 0,15,16
 692 168 692 168 697 276.5 c 128,-1,17
 702 385 702 385 697 498 c 1,18,19
 692 496 692 496 686 494 c 128,-1,20
 680 492 680 492 673 490 c 0,21,22
 617 491 617 491 565 495 c 128,-1,23
 513 499 513 499 462 501 c 128,-1,24
 411 503 411 503 359.5 500 c 128,-1,25
 308 497 308 497 254 485 c 1,26,-1
 244 85 l 2,27,28
 242 52 242 52 222.5 36 c 128,-1,29
 203 20 203 20 179.5 20 c 128,-1,30
 156 20 156 20 135 36 c 128,-1,31
 114 52 114 52 110 84 c 1,32,-1
 110 994 l 1,33,34
 116 1022 116 1022 135 1035 c 128,-1,35
 154 1048 154 1048 176.5 1047.5 c 128,-1,36
 199 1047 199 1047 219.5 1032.5 c 128,-1,37
 240 1018 240 1018 248 991 c 1,38,-1
 254 622 l 1,39,40
 309 632 309 632 360.5 634 c 128,-1,41
 412 636 412 636 463 633.5 c 128,-1,42
 514 631 514 631 566 627 c 128,-1,43
 618 623 618 623 674 622 c 0,44,45
 678 620 678 620 681 619.5 c 128,-1,46
 684 619 684 619 688 617 c 1,47,48
 682 716 682 716 677.5 805.5 c 128,-1,49
 673 895 673 895 663 994 c 1,0,1
EndSplineSet
EndChar

StartChar: I
Encoding: 73 73 44
Width: 469
VWidth: 2048
Flags: W
LayerCount: 2
Fore
SplineSet
103 3 m 1,0,1
 75 7 75 7 59 23 c 128,-1,2
 43 39 43 39 40.5 58.5 c 128,-1,3
 38 78 38 78 49.5 97 c 128,-1,4
 61 116 61 116 88 126 c 1,5,6
 128 132 128 132 171 135 c 1,7,-1
 164 904 l 1,8,9
 130 904 130 904 96 898 c 1,10,11
 68 902 68 902 52 917.5 c 128,-1,12
 36 933 36 933 33.5 952.5 c 128,-1,13
 31 972 31 972 42.5 991 c 128,-1,14
 54 1010 54 1010 81 1020 c 1,15,16
 117 1026 117 1026 153.5 1027.5 c 128,-1,17
 190 1029 190 1029 226 1028 c 128,-1,18
 262 1027 262 1027 298 1024 c 128,-1,19
 334 1021 334 1021 370 1020 c 1,20,21
 397 1012 397 1012 410 994 c 128,-1,22
 423 976 423 976 422.5 956.5 c 128,-1,23
 422 937 422 937 407.5 920 c 128,-1,24
 393 903 393 903 365 897 c 1,25,26
 345 898 345 898 333 894 c 128,-1,27
 321 890 321 890 302 892 c 1,28,-1
 309 134 l 1,29,-1
 368 139 l 1,30,31
 395 131 395 131 408 113 c 128,-1,32
 421 95 421 95 420.5 75 c 128,-1,33
 420 55 420 55 405.5 38 c 128,-1,34
 391 21 391 21 363 15 c 1,35,36
 297 15 297 15 233 14 c 128,-1,37
 169 13 169 13 103 3 c 1,0,1
EndSplineSet
EndChar

StartChar: J
Encoding: 74 74 45
Width: 753
VWidth: 2048
Flags: W
LayerCount: 2
Fore
SplineSet
349 907 m 1,0,1
 321 911 321 911 305 926 c 128,-1,2
 289 941 289 941 286.5 959.5 c 128,-1,3
 284 978 284 978 295.5 996.5 c 128,-1,4
 307 1015 307 1015 334 1025 c 1,5,6
 375 1028 375 1028 424.5 1033 c 128,-1,7
 474 1038 474 1038 523.5 1039.5 c 128,-1,8
 573 1041 573 1041 619 1036 c 128,-1,9
 665 1031 665 1031 699 1015 c 1,10,11
 726 996 726 996 732.5 970.5 c 128,-1,12
 739 945 739 945 731 924.5 c 128,-1,13
 723 904 723 904 702 895 c 128,-1,14
 681 886 681 886 651 900 c 0,15,16
 627 911 627 911 585 911 c 1,17,18
 590 855 590 855 598.5 788 c 128,-1,19
 607 721 607 721 615 648.5 c 128,-1,20
 623 576 623 576 627.5 502 c 128,-1,21
 632 428 632 428 629 358 c 128,-1,22
 626 288 626 288 612.5 225.5 c 128,-1,23
 599 163 599 163 571 114 c 0,24,25
 550 78 550 78 513 56.5 c 128,-1,26
 476 35 476 35 431.5 26.5 c 128,-1,27
 387 18 387 18 338.5 21.5 c 128,-1,28
 290 25 290 25 245 38.5 c 128,-1,29
 200 52 200 52 162.5 74.5 c 128,-1,30
 125 97 125 97 103 127 c 0,31,32
 86 150 86 150 77 178 c 128,-1,33
 68 206 68 206 63.5 236 c 128,-1,34
 59 266 59 266 58 295.5 c 128,-1,35
 57 325 57 325 56 352 c 1,36,37
 62 380 62 380 81.5 393.5 c 128,-1,38
 101 407 101 407 124 407 c 128,-1,39
 147 407 147 407 168 393 c 128,-1,40
 189 379 189 379 197 352 c 1,41,42
 198 312 198 312 196.5 283.5 c 128,-1,43
 195 255 195 255 201 234 c 128,-1,44
 207 213 207 213 225 197 c 128,-1,45
 243 181 243 181 284 166 c 0,46,47
 369 137 369 137 415 166 c 128,-1,48
 461 195 461 195 479 284 c 0,49,50
 493 353 493 353 493 431 c 128,-1,51
 493 509 493 509 486 589 c 128,-1,52
 479 669 479 669 468.5 749 c 128,-1,53
 458 829 458 829 452 903 c 1,54,55
 423 899 423 899 395 904 c 128,-1,56
 367 909 367 909 349 907 c 1,0,1
EndSplineSet
EndChar

StartChar: K
Encoding: 75 75 46
Width: 907
VWidth: 2048
Flags: W
LayerCount: 2
Fore
SplineSet
251 427 m 0,0,1
 243 423 243 423 240 421 c 2,2,-1
 240 63 l 2,3,4
 238 30 238 30 218 13 c 128,-1,5
 198 -4 198 -4 174 -4.5 c 128,-1,6
 150 -5 150 -5 128.5 10.5 c 128,-1,7
 107 26 107 26 103 58 c 1,8,-1
 103 1002 l 1,9,10
 109 1030 109 1030 129 1044.5 c 128,-1,11
 149 1059 149 1059 173 1059.5 c 128,-1,12
 197 1060 197 1060 218.5 1047 c 128,-1,13
 240 1034 240 1034 248 1007 c 1,14,-1
 243 585 l 1,15,16
 294 637 294 637 341 689 c 128,-1,17
 388 741 388 741 434.5 793 c 128,-1,18
 481 845 481 845 529 897 c 128,-1,19
 577 949 577 949 629 1000 c 0,20,21
 646 1014 646 1014 664 1017.5 c 128,-1,22
 682 1021 682 1021 698 1016.5 c 128,-1,23
 714 1012 714 1012 726.5 1001 c 128,-1,24
 739 990 739 990 745 975.5 c 128,-1,25
 751 961 751 961 748.5 944 c 128,-1,26
 746 927 746 927 732 910 c 0,27,28
 653 833 653 833 578 749.5 c 128,-1,29
 503 666 503 666 427 588 c 1,30,31
 483 523 483 523 536 467.5 c 128,-1,32
 589 412 589 412 640.5 358 c 128,-1,33
 692 304 692 304 742 247 c 128,-1,34
 792 190 792 190 842 120 c 0,35,36
 861 94 861 94 856 67.5 c 128,-1,37
 851 41 851 41 832 25 c 128,-1,38
 813 9 813 9 786.5 7.5 c 128,-1,39
 760 6 760 6 737 29 c 1,40,41
 687 98 687 98 637.5 153.5 c 128,-1,42
 588 209 588 209 537.5 261.5 c 128,-1,43
 487 314 487 314 434.5 367.5 c 128,-1,44
 382 421 382 421 327 485 c 1,45,46
 316 474 316 474 307 467.5 c 128,-1,47
 298 461 298 461 289.5 456 c 128,-1,48
 281 451 281 451 272 444.5 c 128,-1,49
 263 438 263 438 251 427 c 0,0,1
EndSplineSet
EndChar

StartChar: L
Encoding: 76 76 47
Width: 807
VWidth: 2048
Flags: W
LayerCount: 2
Fore
SplineSet
99 977 m 1,0,1
 105 1005 105 1005 126 1018 c 128,-1,2
 147 1031 147 1031 172 1030 c 128,-1,3
 197 1029 197 1029 219.5 1014 c 128,-1,4
 242 999 242 999 250 972 c 1,5,6
 250 860 250 860 248 756 c 128,-1,7
 246 652 246 652 243.5 549.5 c 128,-1,8
 241 447 241 447 239 342.5 c 128,-1,9
 237 238 237 238 236 126 c 1,10,11
 292 118 292 118 355.5 116 c 128,-1,12
 419 114 419 114 484.5 114.5 c 128,-1,13
 550 115 550 115 613.5 117 c 128,-1,14
 677 119 677 119 734 119 c 1,15,16
 761 111 761 111 774 93.5 c 128,-1,17
 787 76 787 76 786.5 57 c 128,-1,18
 786 38 786 38 771.5 22 c 128,-1,19
 757 6 757 6 729 0 c 1,20,21
 666 0 666 0 593 -4 c 128,-1,22
 520 -8 520 -8 445 -10 c 128,-1,23
 370 -12 370 -12 297.5 -10.5 c 128,-1,24
 225 -9 225 -9 163 0 c 1,25,26
 140 -5 140 -5 118.5 10.5 c 128,-1,27
 97 26 97 26 92 62 c 1,28,29
 92 180 92 180 93 293.5 c 128,-1,30
 94 407 94 407 95.5 519.5 c 128,-1,31
 97 632 97 632 98 745.5 c 128,-1,32
 99 859 99 859 99 977 c 1,0,1
EndSplineSet
EndChar

StartChar: M
Encoding: 77 77 48
Width: 1213
VWidth: 2048
Flags: W
LayerCount: 2
Fore
SplineSet
669 95 m 1,0,1
 648 59 648 59 627 51.5 c 128,-1,2
 606 44 606 44 588.5 51.5 c 128,-1,3
 571 59 571 59 559 74.5 c 128,-1,4
 547 90 547 90 543 100 c 0,5,6
 525 142 525 142 508.5 198.5 c 128,-1,7
 492 255 492 255 476.5 318 c 128,-1,8
 461 381 461 381 444.5 447.5 c 128,-1,9
 428 514 428 514 410.5 576 c 128,-1,10
 393 638 393 638 373.5 692.5 c 128,-1,11
 354 747 354 747 331 787 c 1,12,13
 307 700 307 700 293.5 612 c 128,-1,14
 280 524 280 524 271.5 435.5 c 128,-1,15
 263 347 263 347 256.5 259 c 128,-1,16
 250 171 250 171 239 84 c 0,17,18
 234 48 234 48 216.5 31 c 128,-1,19
 199 14 199 14 176.5 13.5 c 128,-1,20
 154 13 154 13 131.5 28.5 c 128,-1,21
 109 44 109 44 95 74 c 1,22,23
 99 197 99 197 113 324 c 128,-1,24
 127 451 127 451 145.5 570 c 128,-1,25
 164 689 164 689 184 794.5 c 128,-1,26
 204 900 204 900 219 978 c 1,27,28
 228 1000 228 1000 249.5 1012.5 c 128,-1,29
 271 1025 271 1025 296 1027 c 128,-1,30
 321 1029 321 1029 344.5 1021.5 c 128,-1,31
 368 1014 368 1014 379 996 c 0,32,33
 436 919 436 919 474.5 831 c 128,-1,34
 513 743 513 743 539 656 c 128,-1,35
 565 569 565 569 582.5 489.5 c 128,-1,36
 600 410 600 410 617 350 c 1,37,38
 639 445 639 445 669.5 538 c 128,-1,39
 700 631 700 631 730 713.5 c 128,-1,40
 760 796 760 796 785.5 863.5 c 128,-1,41
 811 931 811 931 822 975 c 0,42,43
 828 998 828 998 847 1015 c 128,-1,44
 866 1032 866 1032 888.5 1036.5 c 128,-1,45
 911 1041 911 1041 931.5 1031 c 128,-1,46
 952 1021 952 1021 961 991 c 1,47,48
 979 869 979 869 1002.5 752.5 c 128,-1,49
 1026 636 1026 636 1049 523 c 128,-1,50
 1072 410 1072 410 1092 298 c 128,-1,51
 1112 186 1112 186 1121 74 c 0,52,53
 1124 41 1124 41 1106.5 23.5 c 128,-1,54
 1089 6 1089 6 1066 5 c 128,-1,55
 1043 4 1043 4 1020.5 19.5 c 128,-1,56
 998 35 998 35 991 69 c 0,57,58
 971 157 971 157 953.5 240.5 c 128,-1,59
 936 324 936 324 921 406.5 c 128,-1,60
 906 489 906 489 893.5 573 c 128,-1,61
 881 657 881 657 871 746 c 1,62,63
 849 667 849 667 829 587.5 c 128,-1,64
 809 508 809 508 786.5 427.5 c 128,-1,65
 764 347 764 347 735.5 264 c 128,-1,66
 707 181 707 181 669 95 c 1,0,1
EndSplineSet
EndChar

StartChar: N
Encoding: 78 78 49
Width: 970
VWidth: 2048
Flags: W
LayerCount: 2
Fore
SplineSet
900 77 m 0,0,1
 899 52 899 52 882 36.5 c 128,-1,2
 865 21 865 21 842.5 15.5 c 128,-1,3
 820 10 820 10 796.5 15 c 128,-1,4
 773 20 773 20 759 37 c 0,5,6
 732 71 732 71 695 119.5 c 128,-1,7
 658 168 658 168 615.5 225.5 c 128,-1,8
 573 283 573 283 527.5 345.5 c 128,-1,9
 482 408 482 408 438 469 c 128,-1,10
 394 530 394 530 354 586 c 128,-1,11
 314 642 314 642 282.5 686 c 128,-1,12
 251 730 251 730 230.5 759 c 128,-1,13
 210 788 210 788 205 795 c 1,14,15
 212 749 212 749 216.5 689 c 128,-1,16
 221 629 221 629 224.5 562.5 c 128,-1,17
 228 496 228 496 230 426.5 c 128,-1,18
 232 357 232 357 233.5 291 c 128,-1,19
 235 225 235 225 235.5 166 c 128,-1,20
 236 107 236 107 237 63 c 0,21,22
 235 30 235 30 215 14 c 128,-1,23
 195 -2 195 -2 171 -2 c 128,-1,24
 147 -2 147 -2 125.5 14.5 c 128,-1,25
 104 31 104 31 100 63 c 0,26,27
 99 121 99 121 96 195 c 128,-1,28
 93 269 93 269 90 350.5 c 128,-1,29
 87 432 87 432 84.5 517 c 128,-1,30
 82 602 82 602 81.5 683.5 c 128,-1,31
 81 765 81 765 84.5 838.5 c 128,-1,32
 88 912 88 912 96 970 c 0,33,34
 101 997 101 997 119.5 1007 c 128,-1,35
 138 1017 138 1017 161.5 1014.5 c 128,-1,36
 185 1012 185 1012 208.5 999.5 c 128,-1,37
 232 987 232 987 248 971 c 0,38,39
 286 932 286 932 332.5 875 c 128,-1,40
 379 818 379 818 428.5 752.5 c 128,-1,41
 478 687 478 687 528 617 c 128,-1,42
 578 547 578 547 622.5 481 c 128,-1,43
 667 415 667 415 702.5 357.5 c 128,-1,44
 738 300 738 300 760 260 c 1,45,46
 749 304 749 304 743.5 363.5 c 128,-1,47
 738 423 738 423 735 489.5 c 128,-1,48
 732 556 732 556 731.5 625 c 128,-1,49
 731 694 731 694 732 757.5 c 128,-1,50
 733 821 733 821 734 874.5 c 128,-1,51
 735 928 735 928 736 964 c 1,52,53
 742 992 742 992 762 1006.5 c 128,-1,54
 782 1021 782 1021 806 1021.5 c 128,-1,55
 830 1022 830 1022 851.5 1009 c 128,-1,56
 873 996 873 996 881 969 c 1,57,58
 880 913 880 913 880.5 839.5 c 128,-1,59
 881 766 881 766 882 683.5 c 128,-1,60
 883 601 883 601 884.5 515.5 c 128,-1,61
 886 430 886 430 888 349.5 c 128,-1,62
 890 269 890 269 893 198.5 c 128,-1,63
 896 128 896 128 900 77 c 0,0,1
EndSplineSet
EndChar

StartChar: O
Encoding: 79 79 50
Width: 944
VWidth: 2048
Flags: W
LayerCount: 2
Fore
SplineSet
76 761 m 0,0,1
 118 879 118 879 189.5 945 c 128,-1,2
 261 1011 261 1011 349 1034 c 128,-1,3
 437 1057 437 1057 535.5 1040 c 128,-1,4
 634 1023 634 1023 730 975 c 0,5,6
 783 948 783 948 819 898 c 128,-1,7
 855 848 855 848 875.5 784.5 c 128,-1,8
 896 721 896 721 902 648.5 c 128,-1,9
 908 576 908 576 902.5 504 c 128,-1,10
 897 432 897 432 881 364.5 c 128,-1,11
 865 297 865 297 841 244 c 0,12,13
 824 206 824 206 796 166.5 c 128,-1,14
 768 127 768 127 723 95 c 128,-1,15
 678 63 678 63 612 41.5 c 128,-1,16
 546 20 546 20 453 18 c 0,17,18
 352 16 352 16 278 49.5 c 128,-1,19
 204 83 204 83 153.5 140.5 c 128,-1,20
 103 198 103 198 75 274 c 128,-1,21
 47 350 47 350 38.5 433.5 c 128,-1,22
 30 517 30 517 40 601.5 c 128,-1,23
 50 686 50 686 76 761 c 0,0,1
489 910 m 0,24,25
 437 909 437 909 390 890.5 c 128,-1,26
 343 872 343 872 305.5 844.5 c 128,-1,27
 268 817 268 817 241.5 784 c 128,-1,28
 215 751 215 751 205 721 c 0,29,30
 188 673 188 673 182.5 614 c 128,-1,31
 177 555 177 555 182.5 494 c 128,-1,32
 188 433 188 433 205.5 374 c 128,-1,33
 223 315 223 315 253 266.5 c 128,-1,34
 283 218 283 218 325.5 184.5 c 128,-1,35
 368 151 368 151 424 142 c 0,36,37
 501 129 501 129 563 155.5 c 128,-1,38
 625 182 625 182 670 234 c 128,-1,39
 715 286 715 286 742 356.5 c 128,-1,40
 769 427 769 427 776 502.5 c 128,-1,41
 783 578 783 578 770 652 c 128,-1,42
 757 726 757 726 722 783.5 c 128,-1,43
 687 841 687 841 629 876 c 128,-1,44
 571 911 571 911 489 910 c 0,24,25
EndSplineSet
EndChar

StartChar: P
Encoding: 80 80 51
Width: 804
VWidth: 2048
Flags: W
LayerCount: 2
Fore
SplineSet
76 957 m 0,0,1
 74 987 74 987 86.5 1006 c 128,-1,2
 99 1025 99 1025 117 1031 c 128,-1,3
 135 1037 135 1037 154.5 1029.5 c 128,-1,4
 174 1022 174 1022 186 998 c 1,5,6
 216 1021 216 1021 270 1031 c 128,-1,7
 324 1041 324 1041 388 1037 c 128,-1,8
 452 1033 452 1033 518.5 1013.5 c 128,-1,9
 585 994 585 994 639.5 956.5 c 128,-1,10
 694 919 694 919 729.5 863 c 128,-1,11
 765 807 765 807 767 730 c 0,12,13
 769 636 769 636 742 563 c 128,-1,14
 715 490 715 490 669 439 c 128,-1,15
 623 388 623 388 563 358 c 128,-1,16
 503 328 503 328 441 321 c 128,-1,17
 379 314 379 314 319 330 c 128,-1,18
 259 346 259 346 212 385 c 1,19,20
 210 342 210 342 211 302.5 c 128,-1,21
 212 263 212 263 213 224.5 c 128,-1,22
 214 186 214 186 215 146.5 c 128,-1,23
 216 107 216 107 215 64 c 0,24,25
 213 31 213 31 196 14 c 128,-1,26
 179 -3 179 -3 158 -3.5 c 128,-1,27
 137 -4 137 -4 118.5 11.5 c 128,-1,28
 100 27 100 27 96 59 c 1,29,30
 96 179 96 179 95.5 293 c 128,-1,31
 95 407 95 407 93 518 c 128,-1,32
 91 629 91 629 87 738 c 128,-1,33
 83 847 83 847 76 957 c 0,0,1
208 867 m 1,34,35
 212 818 212 818 214 774 c 128,-1,36
 216 730 216 730 216.5 686.5 c 128,-1,37
 217 643 217 643 216.5 599 c 128,-1,38
 216 555 216 555 215 506 c 1,39,40
 229 508 229 508 247 503 c 1,41,42
 277 474 277 474 317 463.5 c 128,-1,43
 357 453 357 453 398.5 457.5 c 128,-1,44
 440 462 440 462 480.5 480.5 c 128,-1,45
 521 499 521 499 552.5 529 c 128,-1,46
 584 559 584 559 603.5 599 c 128,-1,47
 623 639 623 639 623 687 c 0,48,49
 623 738 623 738 601 777.5 c 128,-1,50
 579 817 579 817 543.5 845 c 128,-1,51
 508 873 508 873 463 888.5 c 128,-1,52
 418 904 418 904 372 907 c 128,-1,53
 326 910 326 910 283 900 c 128,-1,54
 240 890 240 890 208 867 c 1,34,35
EndSplineSet
EndChar

StartChar: Q
Encoding: 81 81 52
Width: 976
VWidth: 2048
Flags: W
LayerCount: 2
Fore
SplineSet
76 761 m 0,0,1
 104 839 104 839 147.5 895.5 c 128,-1,2
 191 952 191 952 245 987.5 c 128,-1,3
 299 1023 299 1023 361 1038 c 128,-1,4
 423 1053 423 1053 487.5 1049.5 c 128,-1,5
 552 1046 552 1046 616.5 1024 c 128,-1,6
 681 1002 681 1002 741 963 c 0,7,8
 789 932 789 932 821.5 881.5 c 128,-1,9
 854 831 854 831 873 769 c 128,-1,10
 892 707 892 707 898.5 637 c 128,-1,11
 905 567 905 567 900 497.5 c 128,-1,12
 895 428 895 428 880 362.5 c 128,-1,13
 865 297 865 297 841 244 c 0,14,15
 833 226 833 226 823 208 c 128,-1,16
 813 190 813 190 801 173 c 1,17,18
 828 149 828 149 851 123.5 c 128,-1,19
 874 98 874 98 891 72 c 1,20,21
 899 45 899 45 891.5 24.5 c 128,-1,22
 884 4 884 4 867.5 -6 c 128,-1,23
 851 -16 851 -16 829.5 -12.5 c 128,-1,24
 808 -9 808 -9 788 11 c 1,25,26
 774 33 774 33 756 48.5 c 128,-1,27
 738 64 738 64 718 81 c 0,28,29
 715 83 715 83 711 87 c 1,30,31
 666 58 666 58 603.5 39 c 128,-1,32
 541 20 541 20 453 18 c 0,33,34
 352 16 352 16 278 49.5 c 128,-1,35
 204 83 204 83 153.5 140.5 c 128,-1,36
 103 198 103 198 75 274 c 128,-1,37
 47 350 47 350 38.5 433.5 c 128,-1,38
 30 517 30 517 40 601.5 c 128,-1,39
 50 686 50 686 76 761 c 0,0,1
507 261 m 256,40,41
 484 284 484 284 483 308.5 c 128,-1,42
 482 333 482 333 496 349 c 128,-1,43
 510 365 510 365 534 368 c 128,-1,44
 558 371 558 371 584 352 c 1,45,46
 607 329 607 329 634 307.5 c 128,-1,47
 661 286 661 286 690 263 c 1,48,49
 729 319 729 319 751 389.5 c 128,-1,50
 773 460 773 460 777 532.5 c 128,-1,51
 781 605 781 605 766.5 674 c 128,-1,52
 752 743 752 743 716.5 796.5 c 128,-1,53
 681 850 681 850 624.5 882 c 128,-1,54
 568 914 568 914 489 913 c 0,55,56
 437 912 437 912 389.5 893.5 c 128,-1,57
 342 875 342 875 303 846.5 c 128,-1,58
 264 818 264 818 236.5 784.5 c 128,-1,59
 209 751 209 751 199 721 c 0,60,61
 182 673 182 673 177 614 c 128,-1,62
 172 555 172 555 178 494 c 128,-1,63
 184 433 184 433 202.5 374 c 128,-1,64
 221 315 221 315 251.5 266.5 c 128,-1,65
 282 218 282 218 325 184.5 c 128,-1,66
 368 151 368 151 424 142 c 0,67,68
 475 133 475 133 519.5 143 c 128,-1,69
 564 153 564 153 602 176 c 1,70,71
 577 196 577 196 553.5 217 c 128,-1,72
 530 238 530 238 507 261 c 256,40,41
EndSplineSet
EndChar

StartChar: R
Encoding: 82 82 53
Width: 848
VWidth: 2048
Flags: W
LayerCount: 2
Fore
SplineSet
399 416 m 0,0,1
 398 417 398 417 397.5 417 c 128,-1,2
 397 417 397 417 396 418 c 0,3,4
 379 416 379 416 353.5 412.5 c 128,-1,5
 328 409 328 409 301.5 407 c 128,-1,6
 275 405 275 405 250.5 407 c 128,-1,7
 226 409 226 409 211 419 c 1,8,9
 213 369 213 369 217 325 c 128,-1,10
 221 281 221 281 224.5 238 c 128,-1,11
 228 195 228 195 231 151 c 128,-1,12
 234 107 234 107 235 58 c 0,13,14
 233 25 233 25 214.5 10.5 c 128,-1,15
 196 -4 196 -4 173 -2.5 c 128,-1,16
 150 -1 150 -1 129.5 16.5 c 128,-1,17
 109 34 109 34 105 66 c 0,18,19
 100 183 100 183 95 297 c 128,-1,20
 90 411 90 411 89 525 c 128,-1,21
 88 639 88 639 92.5 753 c 128,-1,22
 97 867 97 867 109 984 c 0,23,24
 111 993 111 993 144 1006 c 128,-1,25
 177 1019 177 1019 229 1030 c 128,-1,26
 281 1041 281 1041 346.5 1046 c 128,-1,27
 412 1051 412 1051 478.5 1044 c 128,-1,28
 545 1037 545 1037 606.5 1013.5 c 128,-1,29
 668 990 668 990 713 945 c 0,30,31
 756 901 756 901 780.5 848 c 128,-1,32
 805 795 805 795 807.5 739.5 c 128,-1,33
 810 684 810 684 788 631 c 128,-1,34
 766 578 766 578 717 535 c 0,35,36
 677 500 677 500 631.5 477 c 128,-1,37
 586 454 586 454 541 442 c 1,38,39
 575 405 575 405 603 363 c 128,-1,40
 631 321 631 321 658 278.5 c 128,-1,41
 685 236 685 236 713.5 194 c 128,-1,42
 742 152 742 152 777 116 c 1,43,44
 796 90 796 90 790 64.5 c 128,-1,45
 784 39 784 39 764.5 24 c 128,-1,46
 745 9 745 9 717.5 8.5 c 128,-1,47
 690 8 690 8 667 31 c 0,48,49
 625 74 625 74 594.5 124 c 128,-1,50
 564 174 564 174 535 225.5 c 128,-1,51
 506 277 506 277 474.5 326 c 128,-1,52
 443 375 443 375 399 416 c 0,0,1
558 891 m 0,53,54
 507 911 507 911 454 913.5 c 128,-1,55
 401 916 401 916 355.5 908.5 c 128,-1,56
 310 901 310 901 275 888.5 c 128,-1,57
 240 876 240 876 225 867 c 1,58,59
 208 784 208 784 207 700 c 128,-1,60
 206 616 206 616 210 527 c 1,61,62
 255 531 255 531 305 529.5 c 128,-1,63
 355 528 355 528 406.5 533 c 128,-1,64
 458 538 458 538 508.5 555.5 c 128,-1,65
 559 573 559 573 605 616 c 0,66,67
 641 650 641 650 651.5 692 c 128,-1,68
 662 734 662 734 653 773.5 c 128,-1,69
 644 813 644 813 619 845 c 128,-1,70
 594 877 594 877 558 891 c 0,53,54
EndSplineSet
EndChar

StartChar: S
Encoding: 83 83 54
Width: 753
VWidth: 2048
Flags: W
LayerCount: 2
Fore
SplineSet
698 772 m 0,0,1
 706 745 706 745 692.5 727.5 c 128,-1,2
 679 710 679 710 655.5 704 c 128,-1,3
 632 698 632 698 604 704.5 c 128,-1,4
 576 711 576 711 556 731 c 1,5,6
 554 762 554 762 541 794.5 c 128,-1,7
 528 827 528 827 506 853 c 128,-1,8
 484 879 484 879 454 896 c 128,-1,9
 424 913 424 913 390 912 c 0,10,11
 343 910 343 910 306 887.5 c 128,-1,12
 269 865 269 865 248 828.5 c 128,-1,13
 227 792 227 792 224 746 c 128,-1,14
 221 700 221 700 243 652 c 0,15,16
 251 633 251 633 286.5 623 c 128,-1,17
 322 613 322 613 371 601.5 c 128,-1,18
 420 590 420 590 476 573 c 128,-1,19
 532 556 532 556 582.5 523 c 128,-1,20
 633 490 633 490 670.5 436.5 c 128,-1,21
 708 383 708 383 721 299 c 0,22,23
 731 228 731 228 707.5 174 c 128,-1,24
 684 120 684 120 638 82.5 c 128,-1,25
 592 45 592 45 530 24.5 c 128,-1,26
 468 4 468 4 401 1.5 c 128,-1,27
 334 -1 334 -1 269 14.5 c 128,-1,28
 204 30 204 30 152.5 64 c 128,-1,29
 101 98 101 98 69 151.5 c 128,-1,30
 37 205 37 205 36 278 c 0,31,32
 36 298 36 298 38 316.5 c 128,-1,33
 40 335 40 335 47 350 c 128,-1,34
 54 365 54 365 67 375.5 c 128,-1,35
 80 386 80 386 102 389 c 0,36,37
 122 390 122 390 136 382 c 128,-1,38
 150 374 150 374 158.5 360.5 c 128,-1,39
 167 347 167 347 169.5 328.5 c 128,-1,40
 172 310 172 310 170 289 c 0,41,42
 165 245 165 245 182.5 213.5 c 128,-1,43
 200 182 200 182 230 161.5 c 128,-1,44
 260 141 260 141 298 131.5 c 128,-1,45
 336 122 336 122 372 124 c 256,46,47
 408 126 408 126 445 134.5 c 128,-1,48
 482 143 482 143 512 161.5 c 128,-1,49
 542 180 542 180 560 210 c 128,-1,50
 578 240 578 240 574 285 c 0,51,52
 572 309 572 309 560.5 335 c 128,-1,53
 549 361 549 361 530 383.5 c 128,-1,54
 511 406 511 406 487 424 c 128,-1,55
 463 442 463 442 436 450 c 0,56,57
 396 462 396 462 353 473 c 128,-1,58
 310 484 310 484 269.5 498 c 128,-1,59
 229 512 229 512 193 531 c 128,-1,60
 157 550 157 550 129.5 578 c 128,-1,61
 102 606 102 606 86 645.5 c 128,-1,62
 70 685 70 685 69 740 c 0,63,64
 68 807 68 807 93.5 861 c 128,-1,65
 119 915 119 915 161 953 c 128,-1,66
 203 991 203 991 255 1011.5 c 128,-1,67
 307 1032 307 1032 358 1032 c 0,68,69
 428 1032 428 1032 486 1014 c 128,-1,70
 544 996 544 996 588 962 c 128,-1,71
 632 928 632 928 660 879.5 c 128,-1,72
 688 831 688 831 698 772 c 0,0,1
EndSplineSet
EndChar

StartChar: T
Encoding: 84 84 55
Width: 854
VWidth: 2048
Flags: W
LayerCount: 2
Fore
SplineSet
95 906 m 1,0,1
 67 910 67 910 51 925 c 128,-1,2
 35 940 35 940 32.5 958.5 c 128,-1,3
 30 977 30 977 41.5 995.5 c 128,-1,4
 53 1014 53 1014 80 1024 c 1,5,6
 184 1037 184 1037 268 1041 c 128,-1,7
 352 1045 352 1045 432 1044.5 c 128,-1,8
 512 1044 512 1044 596.5 1040.5 c 128,-1,9
 681 1037 681 1037 785 1036 c 1,10,11
 812 1028 812 1028 825 1010.5 c 128,-1,12
 838 993 838 993 837.5 974 c 128,-1,13
 837 955 837 955 822.5 939 c 128,-1,14
 808 923 808 923 780 917 c 1,15,16
 738 917 738 917 705 916.5 c 128,-1,17
 672 916 672 916 640.5 915.5 c 128,-1,18
 609 915 609 915 576 914 c 128,-1,19
 543 913 543 913 501 913 c 1,20,21
 502 808 502 808 502.5 704.5 c 128,-1,22
 503 601 503 601 505 498.5 c 128,-1,23
 507 396 507 396 511 292.5 c 128,-1,24
 515 189 515 189 524 84 c 0,25,26
 523 56 523 56 505.5 37 c 128,-1,27
 488 18 488 18 465.5 11 c 128,-1,28
 443 4 443 4 420 12 c 128,-1,29
 397 20 397 20 385 46 c 1,30,31
 375 154 375 154 373.5 262.5 c 128,-1,32
 372 371 372 371 374 479.5 c 128,-1,33
 376 588 376 588 379.5 696.5 c 128,-1,34
 383 805 383 805 383 913 c 1,35,36
 338 912 338 912 304 913 c 128,-1,37
 270 914 270 914 238.5 914.5 c 128,-1,38
 207 915 207 915 173.5 913.5 c 128,-1,39
 140 912 140 912 95 906 c 1,0,1
EndSplineSet
EndChar

StartChar: U
Encoding: 85 85 56
Width: 999
VWidth: 2048
Flags: W
LayerCount: 2
Fore
SplineSet
86 985 m 1,0,1
 92 1013 92 1013 114.5 1026.5 c 128,-1,2
 137 1040 137 1040 163.5 1040 c 128,-1,3
 190 1040 190 1040 214 1026 c 128,-1,4
 238 1012 238 1012 246 985 c 1,5,6
 244 924 244 924 241.5 879 c 128,-1,7
 239 834 239 834 236.5 797 c 128,-1,8
 234 760 234 760 231.5 726.5 c 128,-1,9
 229 693 229 693 228.5 655.5 c 128,-1,10
 228 618 228 618 228.5 573 c 128,-1,11
 229 528 229 528 232 467 c 0,12,13
 236 390 236 390 261.5 334 c 128,-1,14
 287 278 287 278 326 243 c 128,-1,15
 365 208 365 208 413.5 193 c 128,-1,16
 462 178 462 178 512 181 c 128,-1,17
 562 184 562 184 609.5 204.5 c 128,-1,18
 657 225 657 225 693.5 262.5 c 128,-1,19
 730 300 730 300 752 352.5 c 128,-1,20
 774 405 774 405 773 472 c 0,21,22
 771 602 771 602 765.5 726 c 128,-1,23
 760 850 760 850 756 980 c 1,24,25
 762 1008 762 1008 784 1022.5 c 128,-1,26
 806 1037 806 1037 831.5 1038 c 128,-1,27
 857 1039 857 1039 880 1026 c 128,-1,28
 903 1013 903 1013 911 986 c 1,29,30
 914 902 914 902 914.5 822 c 128,-1,31
 915 742 915 742 914.5 662 c 128,-1,32
 914 582 914 582 913 501.5 c 128,-1,33
 912 421 912 421 912 336 c 0,34,35
 912 275 912 275 884.5 222 c 128,-1,36
 857 169 857 169 810 128 c 128,-1,37
 763 87 763 87 701 60.5 c 128,-1,38
 639 34 639 34 571.5 25.5 c 128,-1,39
 504 17 504 17 434 29 c 128,-1,40
 364 41 364 41 301.5 77 c 128,-1,41
 239 113 239 113 187 175 c 128,-1,42
 135 237 135 237 103 329 c 0,43,44
 76 407 76 407 69 489 c 128,-1,45
 62 571 62 571 65 654 c 128,-1,46
 68 737 68 737 75.5 820.5 c 128,-1,47
 83 904 83 904 86 985 c 1,0,1
EndSplineSet
EndChar

StartChar: V
Encoding: 86 86 57
Width: 911
VWidth: 2048
Flags: W
LayerCount: 2
Fore
SplineSet
501 19 m 1,0,1
 486 2 486 2 470 -3.5 c 128,-1,2
 454 -9 454 -9 439.5 -6 c 128,-1,3
 425 -3 425 -3 413 7.5 c 128,-1,4
 401 18 401 18 392 33 c 0,5,6
 309 269 309 269 224 493 c 128,-1,7
 139 717 139 717 49 948 c 1,8,9
 46 976 46 976 62 994 c 128,-1,10
 78 1012 78 1012 102 1018 c 128,-1,11
 126 1024 126 1024 151.5 1016 c 128,-1,12
 177 1008 177 1008 194 985 c 1,13,14
 231 883 231 883 266 794.5 c 128,-1,15
 301 706 301 706 333.5 618.5 c 128,-1,16
 366 531 366 531 396.5 439.5 c 128,-1,17
 427 348 427 348 456 240 c 1,18,19
 495 336 495 336 531 430 c 128,-1,20
 567 524 567 524 600.5 618 c 128,-1,21
 634 712 634 712 666 806.5 c 128,-1,22
 698 901 698 901 730 998 c 1,23,24
 744 1022 744 1022 767 1028 c 128,-1,25
 790 1034 790 1034 811 1025 c 128,-1,26
 832 1016 832 1016 846.5 995 c 128,-1,27
 861 974 861 974 860 946 c 1,28,29
 827 829 827 829 785 713.5 c 128,-1,30
 743 598 743 598 695.5 482.5 c 128,-1,31
 648 367 648 367 598.5 251.5 c 128,-1,32
 549 136 549 136 501 19 c 1,0,1
EndSplineSet
EndChar

StartChar: W
Encoding: 87 87 58
Width: 1162
VWidth: 2048
Flags: W
LayerCount: 2
Fore
SplineSet
988 263 m 0,0,1
 983 244 983 244 973 212.5 c 128,-1,2
 963 181 963 181 949 148 c 128,-1,3
 935 115 935 115 917.5 85.5 c 128,-1,4
 900 56 900 56 881.5 40 c 128,-1,5
 863 24 863 24 843.5 27 c 128,-1,6
 824 30 824 30 806 62 c 0,7,8
 750 159 750 159 720 246.5 c 128,-1,9
 690 334 690 334 670.5 418.5 c 128,-1,10
 651 503 651 503 634.5 588 c 128,-1,11
 618 673 618 673 589 766 c 1,12,13
 571 671 571 671 545.5 584 c 128,-1,14
 520 497 520 497 492.5 410.5 c 128,-1,15
 465 324 465 324 438 236.5 c 128,-1,16
 411 149 411 149 389 55 c 1,17,18
 370 19 370 19 347 12 c 128,-1,19
 324 5 324 5 302 16.5 c 128,-1,20
 280 28 280 28 263 52 c 128,-1,21
 246 76 246 76 240 101 c 0,22,23
 211 217 211 217 177.5 326.5 c 128,-1,24
 144 436 144 436 115.5 544.5 c 128,-1,25
 87 653 87 653 68 763.5 c 128,-1,26
 49 874 49 874 48 994 c 1,27,28
 54 1022 54 1022 70 1036.5 c 128,-1,29
 86 1051 86 1051 105 1051.5 c 128,-1,30
 124 1052 124 1052 141.5 1039 c 128,-1,31
 159 1026 159 1026 167 999 c 0,32,33
 204 822 204 822 246.5 636 c 128,-1,34
 289 450 289 450 328 271 c 1,35,36
 382 448 382 448 424 621 c 128,-1,37
 466 794 466 794 504 968 c 0,38,39
 514 998 514 998 537 1011.5 c 128,-1,40
 560 1025 560 1025 585 1021.5 c 128,-1,41
 610 1018 610 1018 632.5 998.5 c 128,-1,42
 655 979 655 979 666 945 c 0,43,44
 696 852 696 852 720 771 c 128,-1,45
 744 690 744 690 766.5 610.5 c 128,-1,46
 789 531 789 531 811.5 448.5 c 128,-1,47
 834 366 834 366 860 271 c 1,48,49
 886 376 886 376 909.5 462.5 c 128,-1,50
 933 549 933 549 952.5 632 c 128,-1,51
 972 715 972 715 986 801.5 c 128,-1,52
 1000 888 1000 888 1007 992 c 0,53,54
 1013 1024 1013 1024 1033 1038 c 128,-1,55
 1053 1052 1053 1052 1074 1049.5 c 128,-1,56
 1095 1047 1095 1047 1111 1028.5 c 128,-1,57
 1127 1010 1127 1010 1125 977 c 0,58,59
 1120 879 1120 879 1107 792 c 128,-1,60
 1094 705 1094 705 1075.5 620 c 128,-1,61
 1057 535 1057 535 1034.5 448 c 128,-1,62
 1012 361 1012 361 988 263 c 0,0,1
EndSplineSet
EndChar

StartChar: X
Encoding: 88 88 59
Width: 860
VWidth: 2048
Flags: W
LayerCount: 2
Fore
SplineSet
165 6 m 1,0,1
 147 -16 147 -16 126 -14.5 c 128,-1,2
 105 -13 105 -13 88.5 3.5 c 128,-1,3
 72 20 72 20 62.5 46.5 c 128,-1,4
 53 73 53 73 59 101 c 1,5,6
 93 162 93 162 127 214.5 c 128,-1,7
 161 267 161 267 193.5 318 c 128,-1,8
 226 369 226 369 257 423 c 128,-1,9
 288 477 288 477 316 542 c 1,10,11
 276 593 276 593 242.5 643.5 c 128,-1,12
 209 694 209 694 178.5 745.5 c 128,-1,13
 148 797 148 797 119 850 c 128,-1,14
 90 903 90 903 59 960 c 0,15,16
 47 986 47 986 51 1007.5 c 128,-1,17
 55 1029 55 1029 69.5 1041 c 128,-1,18
 84 1053 84 1053 105.5 1053.5 c 128,-1,19
 127 1054 127 1054 150 1037 c 1,20,21
 189 993 189 993 220 945.5 c 128,-1,22
 251 898 251 898 279.5 849 c 128,-1,23
 308 800 308 800 337.5 751 c 128,-1,24
 367 702 367 702 403 656 c 1,25,26
 435 709 435 709 467 761.5 c 128,-1,27
 499 814 499 814 533.5 863 c 128,-1,28
 568 912 568 912 605 956 c 128,-1,29
 642 1000 642 1000 683 1037 c 0,30,31
 695 1051 695 1051 709.5 1053 c 128,-1,32
 724 1055 724 1055 738.5 1048 c 128,-1,33
 753 1041 753 1041 764.5 1028 c 128,-1,34
 776 1015 776 1015 781 999 c 128,-1,35
 786 983 786 983 782 966 c 128,-1,36
 778 949 778 949 761 936 c 0,37,38
 728 910 728 910 693 863.5 c 128,-1,39
 658 817 658 817 623.5 762.5 c 128,-1,40
 589 708 589 708 557 652 c 128,-1,41
 525 596 525 596 500 551 c 1,42,43
 540 489 540 489 583.5 433 c 128,-1,44
 627 377 627 377 669 320.5 c 128,-1,45
 711 264 711 264 748.5 205 c 128,-1,46
 786 146 786 146 814 80 c 0,47,48
 823 49 823 49 812 27 c 128,-1,49
 801 5 801 5 781.5 -2.5 c 128,-1,50
 762 -10 762 -10 739 -1.5 c 128,-1,51
 716 7 716 7 702 37 c 1,52,53
 666 89 666 89 633.5 137.5 c 128,-1,54
 601 186 601 186 568 234 c 128,-1,55
 535 282 535 282 500 330.5 c 128,-1,56
 465 379 465 379 425 431 c 1,57,58
 399 374 399 374 366.5 321.5 c 128,-1,59
 334 269 334 269 299 218 c 128,-1,60
 264 167 264 167 229.5 115 c 128,-1,61
 195 63 195 63 165 6 c 1,0,1
EndSplineSet
EndChar

StartChar: Y
Encoding: 89 89 60
Width: 885
VWidth: 2048
Flags: W
LayerCount: 2
Fore
SplineSet
725 1008 m 1,0,1
 739 1032 739 1032 762 1040 c 128,-1,2
 785 1048 785 1048 807 1041.5 c 128,-1,3
 829 1035 829 1035 844 1016 c 128,-1,4
 859 997 859 997 858 969 c 1,5,6
 831 904 831 904 802 835 c 128,-1,7
 773 766 773 766 736 701.5 c 128,-1,8
 699 637 699 637 650.5 583 c 128,-1,9
 602 529 602 529 538 495 c 1,10,11
 544 437 544 437 546.5 383 c 128,-1,12
 549 329 549 329 550 275.5 c 128,-1,13
 551 222 551 222 550.5 167.5 c 128,-1,14
 550 113 550 113 550 54 c 0,15,16
 548 21 548 21 528 4 c 128,-1,17
 508 -13 508 -13 484 -13.5 c 128,-1,18
 460 -14 460 -14 438.5 1.5 c 128,-1,19
 417 17 417 17 413 49 c 1,20,21
 413 108 413 108 413 162.5 c 128,-1,22
 413 217 413 217 412 270.5 c 128,-1,23
 411 324 411 324 408 378.5 c 128,-1,24
 405 433 405 433 399 491 c 1,25,26
 331 528 331 528 278.5 581.5 c 128,-1,27
 226 635 226 635 184 698 c 128,-1,28
 142 761 142 761 109 830.5 c 128,-1,29
 76 900 76 900 47 969 c 1,30,31
 44 997 44 997 56.5 1015.5 c 128,-1,32
 69 1034 69 1034 89.5 1040.5 c 128,-1,33
 110 1047 110 1047 132.5 1040 c 128,-1,34
 155 1033 155 1033 172 1010 c 1,35,36
 185 980 185 980 203 942 c 128,-1,37
 221 904 221 904 243 863 c 128,-1,38
 265 822 265 822 290 781.5 c 128,-1,39
 315 741 315 741 343.5 706.5 c 128,-1,40
 372 672 372 672 402.5 646.5 c 128,-1,41
 433 621 433 621 465 610 c 0,42,43
 469 612 469 612 473 614 c 128,-1,44
 477 616 477 616 482 618 c 0,45,46
 498 624 498 624 511.5 636 c 128,-1,47
 525 648 525 648 537 662 c 128,-1,48
 549 676 549 676 559 691.5 c 128,-1,49
 569 707 569 707 578 720 c 0,50,51
 603 757 603 757 623.5 791 c 128,-1,52
 644 825 644 825 661 859.5 c 128,-1,53
 678 894 678 894 693.5 930 c 128,-1,54
 709 966 709 966 725 1008 c 1,0,1
EndSplineSet
EndChar

StartChar: Z
Encoding: 90 90 61
Width: 879
VWidth: 2048
Flags: W
LayerCount: 2
Fore
SplineSet
224 502 m 0,0,1
 198 514 198 514 189.5 535 c 128,-1,2
 181 556 181 556 186 576 c 128,-1,3
 191 596 191 596 209.5 611 c 128,-1,4
 228 626 228 626 256 627 c 0,5,6
 272 624 272 624 294 619 c 128,-1,7
 316 614 316 614 339 608 c 128,-1,8
 362 602 362 602 384 596 c 128,-1,9
 406 590 406 590 421 586 c 1,10,11
 453 631 453 631 495.5 676.5 c 128,-1,12
 538 722 538 722 576 762 c 128,-1,13
 614 802 614 802 639 831.5 c 128,-1,14
 664 861 664 861 661 875 c 1,15,16
 647 882 647 882 611 885 c 128,-1,17
 575 888 575 888 526.5 888 c 128,-1,18
 478 888 478 888 423 886.5 c 128,-1,19
 368 885 368 885 316.5 884 c 128,-1,20
 265 883 265 883 223 882 c 128,-1,21
 181 881 181 881 159 883 c 0,22,23
 127 886 127 886 106 899.5 c 128,-1,24
 85 913 85 913 79 931 c 128,-1,25
 73 949 73 949 83.5 967 c 128,-1,26
 94 985 94 985 124 997 c 1,27,28
 163 995 163 995 224 998.5 c 128,-1,29
 285 1002 285 1002 355.5 1005.5 c 128,-1,30
 426 1009 426 1009 500 1010.5 c 128,-1,31
 574 1012 574 1012 638.5 1006.5 c 128,-1,32
 703 1001 703 1001 751.5 985.5 c 128,-1,33
 800 970 800 970 821 941 c 0,34,35
 839 916 839 916 828.5 883.5 c 128,-1,36
 818 851 818 851 792 815.5 c 128,-1,37
 766 780 766 780 729 743 c 128,-1,38
 692 706 692 706 656.5 671.5 c 128,-1,39
 621 637 621 637 591.5 606 c 128,-1,40
 562 575 562 575 551 552 c 1,41,42
 580 545 580 545 606 540 c 128,-1,43
 632 535 632 535 661 533 c 1,44,45
 688 525 688 525 700 506.5 c 128,-1,46
 712 488 712 488 709.5 467.5 c 128,-1,47
 707 447 707 447 691.5 429.5 c 128,-1,48
 676 412 676 412 648 406 c 1,49,50
 600 409 600 409 559 418.5 c 128,-1,51
 518 428 518 428 473 440 c 1,52,53
 449 401 449 401 417 359.5 c 128,-1,54
 385 318 385 318 351.5 275.5 c 128,-1,55
 318 233 318 233 286.5 191.5 c 128,-1,56
 255 150 255 150 231 113 c 1,57,58
 303 124 303 124 366 129 c 128,-1,59
 429 134 429 134 491.5 134.5 c 128,-1,60
 554 135 554 135 618 133 c 128,-1,61
 682 131 682 131 755 128 c 1,62,63
 782 120 782 120 796 101 c 128,-1,64
 810 82 810 82 810.5 61 c 128,-1,65
 811 40 811 40 797.5 22.5 c 128,-1,66
 784 5 784 5 756 -1 c 1,67,68
 672 3 672 3 592 6 c 128,-1,69
 512 9 512 9 434 8.5 c 128,-1,70
 356 8 356 8 279 3.5 c 128,-1,71
 202 -1 202 -1 124 -13 c 0,72,73
 96 -19 96 -19 78.5 -12 c 128,-1,74
 61 -5 61 -5 54.5 10.5 c 128,-1,75
 48 26 48 26 52 48 c 128,-1,76
 56 70 56 70 71 94 c 0,77,78
 112 159 112 159 143 206.5 c 128,-1,79
 174 254 174 254 203 295.5 c 128,-1,80
 232 337 232 337 264 378.5 c 128,-1,81
 296 420 296 420 339 474 c 1,82,83
 330 476 330 476 314 480 c 128,-1,84
 298 484 298 484 281.5 488.5 c 128,-1,85
 265 493 265 493 249 496.5 c 128,-1,86
 233 500 233 500 224 502 c 0,0,1
EndSplineSet
EndChar

StartChar: bracketleft
Encoding: 91 91 62
Width: 516
VWidth: 2048
Flags: W
LayerCount: 2
Fore
SplineSet
68 1114 m 1,0,1
 72 1135 72 1135 81 1143.5 c 128,-1,2
 90 1152 90 1152 102.5 1155 c 128,-1,3
 115 1158 115 1158 130 1158 c 128,-1,4
 145 1158 145 1158 160 1160 c 0,5,6
 226 1169 226 1169 298.5 1164.5 c 128,-1,7
 371 1160 371 1160 443 1158 c 1,8,9
 470 1150 470 1150 483 1132.5 c 128,-1,10
 496 1115 496 1115 495.5 1096 c 128,-1,11
 495 1077 495 1077 480.5 1061 c 128,-1,12
 466 1045 466 1045 438 1039 c 1,13,14
 375 1040 375 1040 313 1043.5 c 128,-1,15
 251 1047 251 1047 188 1043 c 1,16,17
 189 968 189 968 191 879.5 c 128,-1,18
 193 791 193 791 196 696 c 128,-1,19
 199 601 199 601 201.5 503 c 128,-1,20
 204 405 204 405 207 310 c 128,-1,21
 210 215 210 215 212 126.5 c 128,-1,22
 214 38 214 38 215 -37 c 1,23,24
 227 -51 227 -51 256 -51 c 128,-1,25
 285 -51 285 -51 319 -46.5 c 128,-1,26
 353 -42 353 -42 386.5 -36 c 128,-1,27
 420 -30 420 -30 443 -31 c 1,28,29
 470 -39 470 -39 483 -59 c 128,-1,30
 496 -79 496 -79 495 -100.5 c 128,-1,31
 494 -122 494 -122 479.5 -140.5 c 128,-1,32
 465 -159 465 -159 437 -165 c 1,33,34
 396 -160 396 -160 350 -166 c 128,-1,35
 304 -172 304 -172 260 -175.5 c 128,-1,36
 216 -179 216 -179 176 -173.5 c 128,-1,37
 136 -168 136 -168 107 -140 c 1,38,39
 88 -106 88 -106 77.5 -48.5 c 128,-1,40
 67 9 67 9 62.5 82 c 128,-1,41
 58 155 58 155 57.5 241.5 c 128,-1,42
 57 328 57 328 59.5 419.5 c 128,-1,43
 62 511 62 511 65.5 605.5 c 128,-1,44
 69 700 69 700 71 790.5 c 128,-1,45
 73 881 73 881 73 963.5 c 128,-1,46
 73 1046 73 1046 68 1114 c 1,0,1
EndSplineSet
EndChar

StartChar: backslash
Encoding: 92 92 63
Width: 743
VWidth: 2048
Flags: W
LayerCount: 2
Fore
SplineSet
45 1062 m 0,0,1
 31 1092 31 1092 38 1115 c 128,-1,2
 45 1138 45 1138 63 1148.5 c 128,-1,3
 81 1159 81 1159 105 1154.5 c 128,-1,4
 129 1150 129 1150 148 1123 c 1,5,6
 290 838 290 838 419 547.5 c 128,-1,7
 548 257 548 257 679 -33 c 1,8,9
 688 -64 688 -64 677 -86 c 128,-1,10
 666 -108 666 -108 646.5 -115.5 c 128,-1,11
 627 -123 627 -123 604 -114.5 c 128,-1,12
 581 -106 581 -106 567 -76 c 0,13,14
 438 209 438 209 311 495 c 128,-1,15
 184 781 184 781 45 1062 c 0,0,1
EndSplineSet
EndChar

StartChar: bracketright
Encoding: 93 93 64
Width: 558
VWidth: 2048
Flags: W
LayerCount: 2
Fore
SplineSet
455 1120 m 1,0,1
 449 1029 449 1029 450.5 914.5 c 128,-1,2
 452 800 452 800 456 677 c 128,-1,3
 460 554 460 554 463.5 430.5 c 128,-1,4
 467 307 467 307 465 199 c 128,-1,5
 463 91 463 91 452 6.5 c 128,-1,6
 441 -78 441 -78 416 -124 c 1,7,8
 387 -152 387 -152 347 -157.5 c 128,-1,9
 307 -163 307 -163 263 -159.5 c 128,-1,10
 219 -156 219 -156 173 -150 c 128,-1,11
 127 -144 127 -144 86 -149 c 1,12,13
 58 -143 58 -143 43.5 -124.5 c 128,-1,14
 29 -106 29 -106 28 -84.5 c 128,-1,15
 27 -63 27 -63 40 -43 c 128,-1,16
 53 -23 53 -23 80 -15 c 1,17,18
 102 -14 102 -14 136 -20 c 128,-1,19
 170 -26 170 -26 204 -30.5 c 128,-1,20
 238 -35 238 -35 267 -35 c 128,-1,21
 296 -35 296 -35 308 -21 c 1,22,23
 309 54 309 54 311 141.5 c 128,-1,24
 313 229 313 229 316 323 c 128,-1,25
 319 417 319 417 321.5 514 c 128,-1,26
 324 611 324 611 327 705 c 128,-1,27
 330 799 330 799 332 886.5 c 128,-1,28
 334 974 334 974 335 1049 c 1,29,30
 272 1053 272 1053 210 1049.5 c 128,-1,31
 148 1046 148 1046 85 1045 c 1,32,33
 57 1051 57 1051 42.5 1067 c 128,-1,34
 28 1083 28 1083 27.5 1102 c 128,-1,35
 27 1121 27 1121 40 1138.5 c 128,-1,36
 53 1156 53 1156 80 1164 c 1,37,38
 152 1166 152 1166 224.5 1170.5 c 128,-1,39
 297 1175 297 1175 363 1166 c 0,40,41
 378 1164 378 1164 393 1164 c 128,-1,42
 408 1164 408 1164 420.5 1161 c 128,-1,43
 433 1158 433 1158 442 1149.5 c 128,-1,44
 451 1141 451 1141 455 1120 c 1,0,1
EndSplineSet
EndChar

StartChar: asciicircum
Encoding: 94 94 65
Width: 697
VWidth: 2048
Flags: W
LayerCount: 2
Fore
SplineSet
194 699 m 0,0,1
 182 669 182 669 160.5 658.5 c 128,-1,2
 139 648 139 648 119 654 c 128,-1,3
 99 660 99 660 86.5 681 c 128,-1,4
 74 702 74 702 80 734 c 0,5,6
 87 755 87 755 90.5 767 c 128,-1,7
 94 779 94 779 97.5 788.5 c 128,-1,8
 101 798 101 798 105 809.5 c 128,-1,9
 109 821 109 821 117 842 c 2,10,11
 117 842 117 842 123 858.5 c 128,-1,12
 129 875 129 875 138 896.5 c 128,-1,13
 147 918 147 918 157.5 940.5 c 128,-1,14
 168 963 168 963 177 976 c 0,15,16
 189 994 189 994 201 1012 c 128,-1,17
 213 1030 213 1030 226 1047 c 0,18,19
 230 1052 230 1052 240.5 1058.5 c 128,-1,20
 251 1065 251 1065 262 1070.5 c 128,-1,21
 273 1076 273 1076 281.5 1080 c 128,-1,22
 290 1084 290 1084 291 1085 c 0,23,24
 307 1093 307 1093 319.5 1093 c 128,-1,25
 332 1093 332 1093 348 1087 c 0,26,27
 362 1083 362 1083 375 1078.5 c 128,-1,28
 388 1074 388 1074 400 1069 c 0,29,30
 419 1060 419 1060 441.5 1035.5 c 128,-1,31
 464 1011 464 1011 484 982 c 128,-1,32
 504 953 504 953 520.5 925.5 c 128,-1,33
 537 898 537 898 546 883 c 0,34,35
 565 849 565 849 582 815 c 128,-1,36
 599 781 599 781 616 746 c 1,37,38
 624 719 624 719 616.5 698.5 c 128,-1,39
 609 678 609 678 592.5 668 c 128,-1,40
 576 658 576 658 554.5 661.5 c 128,-1,41
 533 665 533 665 513 685 c 1,42,43
 506 699 506 699 494 723.5 c 128,-1,44
 482 748 482 748 467.5 777.5 c 128,-1,45
 453 807 453 807 435.5 838 c 128,-1,46
 418 869 418 869 399.5 896 c 128,-1,47
 381 923 381 923 362.5 942.5 c 128,-1,48
 344 962 344 962 326 968 c 1,49,50
 297 953 297 953 276 919 c 128,-1,51
 255 885 255 885 239.5 844.5 c 128,-1,52
 224 804 224 804 213 764 c 128,-1,53
 202 724 202 724 194 699 c 0,0,1
EndSplineSet
EndChar

StartChar: underscore
Encoding: 95 95 66
Width: 863
VWidth: 2048
Flags: W
LayerCount: 2
Fore
SplineSet
29 -104 m 1,0,1
 3 -92 3 -92 -7 -72.5 c 128,-1,2
 -17 -53 -17 -53 -13 -34.5 c 128,-1,3
 -9 -16 -9 -16 8 -2 c 128,-1,4
 25 12 25 12 53 13 c 1,5,6
 148 -2 148 -2 243 -7 c 128,-1,7
 338 -12 338 -12 432.5 -11.5 c 128,-1,8
 527 -11 527 -11 622 -8 c 128,-1,9
 717 -5 717 -5 813 -3 c 1,10,11
 840 -11 840 -11 853 -28.5 c 128,-1,12
 866 -46 866 -46 865.5 -65 c 128,-1,13
 865 -84 865 -84 850.5 -100 c 128,-1,14
 836 -116 836 -116 808 -122 c 1,15,16
 709 -124 709 -124 612 -127 c 128,-1,17
 515 -130 515 -130 418.5 -130.5 c 128,-1,18
 322 -131 322 -131 225 -125.5 c 128,-1,19
 128 -120 128 -120 29 -104 c 1,0,1
EndSplineSet
EndChar

StartChar: grave
Encoding: 96 96 67
Width: 454
VWidth: 2048
Flags: W
LayerCount: 2
Fore
SplineSet
98 1003 m 0,0,1
 84 1033 84 1033 91 1056 c 128,-1,2
 98 1079 98 1079 116 1089.5 c 128,-1,3
 134 1100 134 1100 158 1095.5 c 128,-1,4
 182 1091 182 1091 201 1064 c 1,5,6
 222 1023 222 1023 249 986 c 128,-1,7
 276 949 276 949 303 911.5 c 128,-1,8
 330 874 330 874 353.5 835 c 128,-1,9
 377 796 377 796 390 751 c 1,10,11
 389 723 389 723 375 706 c 128,-1,12
 361 689 361 689 342.5 685 c 128,-1,13
 324 681 324 681 304.5 691 c 128,-1,14
 285 701 285 701 273 727 c 1,15,16
 264 760 264 760 242.5 789 c 128,-1,17
 221 818 221 818 201 846 c 0,18,19
 173 884 173 884 146.5 922.5 c 128,-1,20
 120 961 120 961 98 1003 c 0,0,1
EndSplineSet
EndChar

StartChar: a
Encoding: 97 97 68
Width: 727
VWidth: 2048
Flags: W
LayerCount: 2
Fore
SplineSet
145 572 m 1,0,1
 127 550 127 550 105.5 555 c 128,-1,2
 84 560 84 560 70.5 578.5 c 128,-1,3
 57 597 57 597 56 622 c 128,-1,4
 55 647 55 647 78 667 c 0,5,6
 136 709 136 709 203.5 734 c 128,-1,7
 271 759 271 759 339 759.5 c 128,-1,8
 407 760 407 760 471.5 731.5 c 128,-1,9
 536 703 536 703 587 639 c 0,10,11
 608 613 608 613 619 570 c 128,-1,12
 630 527 630 527 635 475.5 c 128,-1,13
 640 424 640 424 640 367 c 128,-1,14
 640 310 640 310 638 255 c 128,-1,15
 636 200 636 200 634 151 c 128,-1,16
 632 102 632 102 634 67 c 0,17,18
 635 35 635 35 620.5 17.5 c 128,-1,19
 606 0 606 0 585.5 -2.5 c 128,-1,20
 565 -5 565 -5 545.5 7.5 c 128,-1,21
 526 20 526 20 517 49 c 1,22,23
 490 32 490 32 451 20 c 128,-1,24
 412 8 412 8 368.5 4.5 c 128,-1,25
 325 1 325 1 280 6 c 128,-1,26
 235 11 235 11 196.5 26.5 c 128,-1,27
 158 42 158 42 128.5 69 c 128,-1,28
 99 96 99 96 87 137 c 0,29,30
 65 208 65 208 71.5 273.5 c 128,-1,31
 78 339 78 339 106 393 c 128,-1,32
 134 447 134 447 178.5 486 c 128,-1,33
 223 525 223 525 277.5 544.5 c 128,-1,34
 332 564 332 564 391.5 560 c 128,-1,35
 451 556 451 556 508 523 c 1,36,37
 497 571 497 571 471 598 c 128,-1,38
 445 625 445 625 411.5 636 c 128,-1,39
 378 647 378 647 340 644.5 c 128,-1,40
 302 642 302 642 265.5 631 c 128,-1,41
 229 620 229 620 197 604 c 128,-1,42
 165 588 165 588 145 572 c 1,0,1
496 195 m 0,43,44
 498 230 498 230 502.5 274.5 c 128,-1,45
 507 319 507 319 506 354 c 1,46,47
 489 379 489 379 467.5 396 c 128,-1,48
 446 413 446 413 418 419 c 128,-1,49
 390 425 390 425 354.5 419.5 c 128,-1,50
 319 414 319 414 274 394 c 0,51,52
 261 388 261 388 242.5 364 c 128,-1,53
 224 340 224 340 212 307 c 128,-1,54
 200 274 200 274 201.5 236.5 c 128,-1,55
 203 199 203 199 230 166 c 0,56,57
 244 149 244 149 267.5 139 c 128,-1,58
 291 129 291 129 319 126 c 128,-1,59
 347 123 347 123 376.5 125.5 c 128,-1,60
 406 128 406 128 431 137 c 128,-1,61
 456 146 456 146 473.5 160.5 c 128,-1,62
 491 175 491 175 496 195 c 0,43,44
EndSplineSet
EndChar

StartChar: b
Encoding: 98 98 69
Width: 808
VWidth: 2048
Flags: W
LayerCount: 2
Fore
SplineSet
93 968 m 1,0,1
 99 996 99 996 115 1010.5 c 128,-1,2
 131 1025 131 1025 150 1025.5 c 128,-1,3
 169 1026 169 1026 186.5 1013 c 128,-1,4
 204 1000 204 1000 212 973 c 1,5,6
 212 928 212 928 212.5 890 c 128,-1,7
 213 852 213 852 213.5 816 c 128,-1,8
 214 780 214 780 214.5 742.5 c 128,-1,9
 215 705 215 705 216 660 c 1,10,11
 264 698 264 698 323 718 c 128,-1,12
 382 738 382 738 447 731 c 0,13,14
 525 722 525 722 582.5 691 c 128,-1,15
 640 660 640 660 678 611.5 c 128,-1,16
 716 563 716 563 735 498 c 128,-1,17
 754 433 754 433 754 357 c 0,18,19
 754 266 754 266 721 194 c 128,-1,20
 688 122 688 122 632 74 c 128,-1,21
 576 26 576 26 502 3 c 128,-1,22
 428 -20 428 -20 347 -14 c 0,23,24
 314 -11 314 -11 277.5 -2.5 c 128,-1,25
 241 6 241 6 211 25 c 0,26,27
 210 24 210 24 210 22 c 0,28,29
 207 -5 207 -5 188.5 -14.5 c 128,-1,30
 170 -24 170 -24 148.5 -21 c 128,-1,31
 127 -18 127 -18 110 -4 c 128,-1,32
 93 10 93 10 93 30 c 0,33,34
 93 152 93 152 91.5 265 c 128,-1,35
 90 378 90 378 88.5 490.5 c 128,-1,36
 87 603 87 603 87.5 720 c 128,-1,37
 88 837 88 837 93 968 c 1,0,1
517 586 m 0,38,39
 472 611 472 611 426.5 612.5 c 128,-1,40
 381 614 381 614 341.5 596.5 c 128,-1,41
 302 579 302 579 269.5 547 c 128,-1,42
 237 515 237 515 218 473 c 1,43,44
 218 404 218 404 217.5 358.5 c 128,-1,45
 217 313 217 313 216.5 282 c 128,-1,46
 216 251 216 251 215.5 231 c 128,-1,47
 215 211 215 211 215 193 c 1,48,49
 241 188 241 188 261 161 c 1,50,51
 301 120 301 120 355 106.5 c 128,-1,52
 409 93 409 93 461.5 105 c 128,-1,53
 514 117 514 117 557.5 154 c 128,-1,54
 601 191 601 191 620 253 c 0,55,56
 633 295 633 295 634.5 343.5 c 128,-1,57
 636 392 636 392 623.5 438.5 c 128,-1,58
 611 485 611 485 584.5 524 c 128,-1,59
 558 563 558 563 517 586 c 0,38,39
EndSplineSet
EndChar

StartChar: c
Encoding: 99 99 70
Width: 747
VWidth: 2048
Flags: W
LayerCount: 2
Fore
SplineSet
666 605 m 0,0,1
 686 578 686 578 683 553 c 128,-1,2
 680 528 680 528 663.5 514 c 128,-1,3
 647 500 647 500 621.5 501 c 128,-1,4
 596 502 596 502 572 526 c 0,5,6
 537 559 537 559 500 582 c 128,-1,7
 463 605 463 605 424 613 c 128,-1,8
 385 621 385 621 344.5 610.5 c 128,-1,9
 304 600 304 600 261 566 c 0,10,11
 231 542 231 542 213 501.5 c 128,-1,12
 195 461 195 461 190 414.5 c 128,-1,13
 185 368 185 368 193 319.5 c 128,-1,14
 201 271 201 271 223 230.5 c 128,-1,15
 245 190 245 190 280.5 162.5 c 128,-1,16
 316 135 316 135 366 130 c 0,17,18
 389 128 389 128 418 132 c 128,-1,19
 447 136 447 136 475 145.5 c 128,-1,20
 503 155 503 155 526 171.5 c 128,-1,21
 549 188 549 188 561 211 c 1,22,-1
 561 212 l 2,23,24
 561 213 561 213 561.5 213 c 128,-1,25
 562 213 562 213 562 214 c 256,26,27
 562 215 562 215 563 217 c 0,28,29
 572 245 572 245 594.5 255.5 c 128,-1,30
 617 266 617 266 640 260.5 c 128,-1,31
 663 255 663 255 679.5 235 c 128,-1,32
 696 215 696 215 694 182 c 1,33,34
 667 124 667 124 622.5 83 c 128,-1,35
 578 42 578 42 523.5 19.5 c 128,-1,36
 469 -3 469 -3 409 -6.5 c 128,-1,37
 349 -10 349 -10 291.5 5.5 c 128,-1,38
 234 21 234 21 183.5 56.5 c 128,-1,39
 133 92 133 92 98 149 c 0,40,41
 67 207 67 207 56 275 c 128,-1,42
 45 343 45 343 53.5 410.5 c 128,-1,43
 62 478 62 478 89 540 c 128,-1,44
 116 602 116 602 159.5 648.5 c 128,-1,45
 203 695 203 695 263.5 722 c 128,-1,46
 324 749 324 749 399 746 c 0,47,48
 444 744 444 744 480.5 733.5 c 128,-1,49
 517 723 517 723 548 705 c 128,-1,50
 579 687 579 687 607.5 662 c 128,-1,51
 636 637 636 637 666 605 c 0,0,1
EndSplineSet
EndChar

StartChar: d
Encoding: 100 100 71
Width: 837
VWidth: 2048
Flags: W
LayerCount: 2
Fore
SplineSet
637 928 m 0,0,1
 645 959 645 959 667 972 c 128,-1,2
 689 985 689 985 711.5 981.5 c 128,-1,3
 734 978 734 978 750.5 958.5 c 128,-1,4
 767 939 767 939 763 906 c 0,5,6
 747 788 747 788 744 681 c 128,-1,7
 741 574 741 574 743 470.5 c 128,-1,8
 745 367 745 367 747.5 262.5 c 128,-1,9
 750 158 750 158 744 46 c 0,10,11
 741 13 741 13 723 -3 c 128,-1,12
 705 -19 705 -19 684.5 -18.5 c 128,-1,13
 664 -18 664 -18 646.5 -1.5 c 128,-1,14
 629 15 629 15 627 47 c 0,15,16
 627 55 627 55 626.5 58.5 c 128,-1,17
 626 62 626 62 625.5 65 c 128,-1,18
 625 68 625 68 624.5 71.5 c 128,-1,19
 624 75 624 75 624 83 c 1,20,21
 587 56 587 56 540.5 39.5 c 128,-1,22
 494 23 494 23 444.5 17.5 c 128,-1,23
 395 12 395 12 345 19.5 c 128,-1,24
 295 27 295 27 252 49 c 0,25,26
 181 85 181 85 131 145.5 c 128,-1,27
 81 206 81 206 60.5 280 c 128,-1,28
 40 354 40 354 54.5 434 c 128,-1,29
 69 514 69 514 127 589 c 0,30,31
 151 621 151 621 188 648 c 128,-1,32
 225 675 225 675 268.5 694.5 c 128,-1,33
 312 714 312 714 359.5 723.5 c 128,-1,34
 407 733 407 733 452 729.5 c 128,-1,35
 497 726 497 726 538 707.5 c 128,-1,36
 579 689 579 689 609 653 c 1,37,38
 611 722 611 722 617.5 790.5 c 128,-1,39
 624 859 624 859 637 928 c 0,0,1
588 210 m 0,40,41
 593 225 593 225 600 236.5 c 128,-1,42
 607 248 607 248 617 255 c 1,43,44
 615 315 615 315 612.5 371.5 c 128,-1,45
 610 428 610 428 609 488 c 1,46,47
 571 546 571 546 526.5 574 c 128,-1,48
 482 602 482 602 437 606 c 128,-1,49
 392 610 392 610 349 594 c 128,-1,50
 306 578 306 578 271 548 c 128,-1,51
 236 518 236 518 212.5 476.5 c 128,-1,52
 189 435 189 435 182 389.5 c 128,-1,53
 175 344 175 344 187.5 296.5 c 128,-1,54
 200 249 200 249 238 206 c 0,55,56
 254 189 254 189 283 174 c 128,-1,57
 312 159 312 159 347.5 150 c 128,-1,58
 383 141 383 141 421 138.5 c 128,-1,59
 459 136 459 136 492.5 142 c 128,-1,60
 526 148 526 148 551.5 164.5 c 128,-1,61
 577 181 577 181 588 210 c 0,40,41
EndSplineSet
EndChar

StartChar: e
Encoding: 101 101 72
Width: 790
VWidth: 2048
Flags: W
LayerCount: 2
Fore
SplineSet
136 168 m 1,0,1
 94 228 94 228 75.5 293 c 128,-1,2
 57 358 57 358 61.5 423 c 128,-1,3
 66 488 66 488 92.5 550 c 128,-1,4
 119 612 119 612 168 668 c 0,5,6
 196 701 196 701 235 721.5 c 128,-1,7
 274 742 274 742 318 751 c 128,-1,8
 362 760 362 760 408.5 758 c 128,-1,9
 455 756 455 756 498.5 744.5 c 128,-1,10
 542 733 542 733 580.5 712.5 c 128,-1,11
 619 692 619 692 647 665 c 0,12,13
 678 635 678 635 695 597 c 128,-1,14
 712 559 712 559 719 519.5 c 128,-1,15
 726 480 726 480 726.5 441 c 128,-1,16
 727 402 727 402 727 369 c 0,17,18
 727 359 727 359 695.5 354.5 c 128,-1,19
 664 350 664 350 614.5 349 c 128,-1,20
 565 348 565 348 503.5 349 c 128,-1,21
 442 350 442 350 382 351.5 c 128,-1,22
 322 353 322 353 269 353 c 128,-1,23
 216 353 216 353 184 351 c 1,24,25
 195 309 195 309 220 272 c 128,-1,26
 245 235 245 235 279.5 206.5 c 128,-1,27
 314 178 314 178 355 160.5 c 128,-1,28
 396 143 396 143 439.5 140.5 c 128,-1,29
 483 138 483 138 525.5 152.5 c 128,-1,30
 568 167 568 167 605 203 c 1,31,32
 621 230 621 230 644.5 237 c 128,-1,33
 668 244 668 244 687 235 c 128,-1,34
 706 226 706 226 715 203.5 c 128,-1,35
 724 181 724 181 712 151 c 0,36,37
 687 96 687 96 640.5 64 c 128,-1,38
 594 32 594 32 537.5 19.5 c 128,-1,39
 481 7 481 7 419.5 12.5 c 128,-1,40
 358 18 358 18 302.5 38.5 c 128,-1,41
 247 59 247 59 202.5 92 c 128,-1,42
 158 125 158 125 136 168 c 1,0,1
272 590 m 256,43,44
 235 560 235 560 213.5 527.5 c 128,-1,45
 192 495 192 495 183 462 c 1,46,47
 185 462 185 462 186 463 c 0,48,49
 217 462 217 462 271 461 c 128,-1,50
 325 460 325 460 385 460 c 128,-1,51
 445 460 445 460 503.5 461 c 128,-1,52
 562 462 562 462 602 464 c 0,53,54
 602 467 602 467 601.5 474.5 c 128,-1,55
 601 482 601 482 600.5 490 c 128,-1,56
 600 498 600 498 599.5 505.5 c 128,-1,57
 599 513 599 513 598 516 c 0,58,59
 585 571 585 571 546.5 600.5 c 128,-1,60
 508 630 508 630 459.5 638 c 128,-1,61
 411 646 411 646 360 633 c 128,-1,62
 309 620 309 620 272 590 c 256,43,44
EndSplineSet
EndChar

StartChar: f
Encoding: 102 102 73
Width: 451
VWidth: 2048
Flags: W
LayerCount: 2
Fore
SplineSet
112 644 m 0,0,1
 84 648 84 648 68 663 c 128,-1,2
 52 678 52 678 49.5 696.5 c 128,-1,3
 47 715 47 715 58.5 733.5 c 128,-1,4
 70 752 70 752 97 762 c 0,5,6
 112 764 112 764 114.5 764.5 c 128,-1,7
 117 765 117 765 116.5 764.5 c 128,-1,8
 116 764 116 764 118.5 763.5 c 128,-1,9
 121 763 121 763 136 764 c 1,10,11
 135 808 135 808 133.5 836 c 128,-1,12
 132 864 132 864 132.5 887.5 c 128,-1,13
 133 911 133 911 138 935.5 c 128,-1,14
 143 960 143 960 156 996 c 0,15,16
 167 1028 167 1028 198.5 1045.5 c 128,-1,17
 230 1063 230 1063 271 1067.5 c 128,-1,18
 312 1072 312 1072 357 1065 c 128,-1,19
 402 1058 402 1058 440.5 1041 c 128,-1,20
 479 1024 479 1024 505 998 c 128,-1,21
 531 972 531 972 534 939 c 1,22,23
 542 912 542 912 534.5 891.5 c 128,-1,24
 527 871 527 871 510.5 861 c 128,-1,25
 494 851 494 851 472.5 854.5 c 128,-1,26
 451 858 451 858 431 878 c 1,27,28
 423 900 423 900 405.5 916 c 128,-1,29
 388 932 388 932 365.5 940.5 c 128,-1,30
 343 949 343 949 317.5 949.5 c 128,-1,31
 292 950 292 950 268 940 c 0,32,33
 267 939 267 939 266 939 c 128,-1,34
 265 939 265 939 264 938 c 0,35,36
 256 915 256 915 253.5 898 c 128,-1,37
 251 881 251 881 251 863.5 c 128,-1,38
 251 846 251 846 253 824.5 c 128,-1,39
 255 803 255 803 256 772 c 1,40,41
 276 773 276 773 289 773 c 128,-1,42
 302 773 302 773 314 772.5 c 128,-1,43
 326 772 326 772 339.5 771.5 c 128,-1,44
 353 771 353 771 373 771 c 1,45,46
 400 763 400 763 413 745.5 c 128,-1,47
 426 728 426 728 425.5 709 c 128,-1,48
 425 690 425 690 410.5 674 c 128,-1,49
 396 658 396 658 368 652 c 0,50,51
 349 652 349 652 337 652.5 c 128,-1,52
 325 653 325 653 314 653.5 c 128,-1,53
 303 654 303 654 290.5 654 c 128,-1,54
 278 654 278 654 260 653 c 1,55,56
 265 509 265 509 264.5 362.5 c 128,-1,57
 264 216 264 216 268 72 c 0,58,59
 266 39 266 39 249 22 c 128,-1,60
 232 5 232 5 211 4.5 c 128,-1,61
 190 4 190 4 171.5 19.5 c 128,-1,62
 153 35 153 35 149 67 c 0,63,64
 144 210 144 210 145 356 c 128,-1,65
 146 502 146 502 140 645 c 1,66,67
 126 644 126 644 125 644.5 c 128,-1,68
 124 645 124 645 125.5 645.5 c 128,-1,69
 127 646 127 646 126 646 c 128,-1,70
 125 646 125 646 112 644 c 0,0,1
EndSplineSet
EndChar

StartChar: g
Encoding: 103 103 74
Width: 844
VWidth: 2048
Flags: W
LayerCount: 2
Fore
SplineSet
380 740 m 0,0,1
 418 735 418 735 441.5 732 c 128,-1,2
 465 729 465 729 481.5 725 c 128,-1,3
 498 721 498 721 511.5 714 c 128,-1,4
 525 707 525 707 542 695 c 1,5,6
 543 698 543 698 543 700.5 c 128,-1,7
 543 703 543 703 544 706 c 0,8,9
 550 717 550 717 555 728 c 0,10,11
 570 754 570 754 590 761 c 128,-1,12
 610 768 610 768 638 760 c 0,13,14
 649 753 649 753 659 746 c 128,-1,15
 669 739 669 739 675 727 c 0,16,17
 692 689 692 689 706.5 619 c 128,-1,18
 721 549 721 549 730.5 462.5 c 128,-1,19
 740 376 740 376 743.5 282 c 128,-1,20
 747 188 747 188 742 102 c 128,-1,21
 737 16 737 16 723 -53 c 128,-1,22
 709 -122 709 -122 683 -159 c 0,23,24
 648 -211 648 -211 602 -250 c 128,-1,25
 556 -289 556 -289 505.5 -311.5 c 128,-1,26
 455 -334 455 -334 401.5 -338.5 c 128,-1,27
 348 -343 348 -343 298.5 -326.5 c 128,-1,28
 249 -310 249 -310 205 -270.5 c 128,-1,29
 161 -231 161 -231 129 -166 c 0,30,31
 117 -140 117 -140 121 -118.5 c 128,-1,32
 125 -97 125 -97 139.5 -85 c 128,-1,33
 154 -73 154 -73 175.5 -72.5 c 128,-1,34
 197 -72 197 -72 220 -89 c 1,35,36
 236 -136 236 -136 266.5 -164 c 128,-1,37
 297 -192 297 -192 334.5 -201.5 c 128,-1,38
 372 -211 372 -211 412.5 -203.5 c 128,-1,39
 453 -196 453 -196 490.5 -173.5 c 128,-1,40
 528 -151 528 -151 558 -115 c 128,-1,41
 588 -79 588 -79 604 -30 c 0,42,43
 617 9 617 9 616 49.5 c 128,-1,44
 615 90 615 90 612 132 c 1,45,46
 575 97 575 97 525 77.5 c 128,-1,47
 475 58 475 58 429 58 c 0,48,49
 352 58 352 58 278.5 80 c 128,-1,50
 205 102 205 102 150.5 146.5 c 128,-1,51
 96 191 96 191 68 257 c 128,-1,52
 40 323 40 323 55 410 c 0,53,54
 57 445 57 445 70.5 484.5 c 128,-1,55
 84 524 84 524 106.5 562.5 c 128,-1,56
 129 601 129 601 158.5 635.5 c 128,-1,57
 188 670 188 670 223.5 695 c 128,-1,58
 259 720 259 720 298.5 732.5 c 128,-1,59
 338 745 338 745 380 740 c 0,0,1
393 181 m 0,60,61
 430 172 430 172 458.5 182 c 128,-1,62
 487 192 487 192 510.5 211.5 c 128,-1,63
 534 231 534 231 554.5 256 c 128,-1,64
 575 281 575 281 596 302 c 1,65,66
 587 316 587 316 588.5 349.5 c 128,-1,67
 590 383 590 383 590 420.5 c 128,-1,68
 590 458 590 458 584 492 c 128,-1,69
 578 526 578 526 555 541 c 1,70,71
 521 580 521 580 480 597.5 c 128,-1,72
 439 615 439 615 396.5 612 c 128,-1,73
 354 609 354 609 314.5 587 c 128,-1,74
 275 565 275 565 244 525 c 0,75,76
 193 458 193 458 187.5 402 c 128,-1,77
 182 346 182 346 208 302.5 c 128,-1,78
 234 259 234 259 284 228 c 128,-1,79
 334 197 334 197 393 181 c 0,60,61
EndSplineSet
EndChar

StartChar: h
Encoding: 104 104 75
Width: 815
VWidth: 2048
Flags: W
LayerCount: 2
Fore
SplineSet
596 495 m 0,0,1
 578 552 578 552 548 581 c 128,-1,2
 518 610 518 610 481.5 616 c 128,-1,3
 445 622 445 622 405.5 609 c 128,-1,4
 366 596 366 596 331 569 c 128,-1,5
 296 542 296 542 267.5 504.5 c 128,-1,6
 239 467 239 467 225 424 c 1,7,8
 229 340 229 340 226 245.5 c 128,-1,9
 223 151 223 151 224 67 c 0,10,11
 222 34 222 34 205 17 c 128,-1,12
 188 0 188 0 167 -0.5 c 128,-1,13
 146 -1 146 -1 127.5 14.5 c 128,-1,14
 109 30 109 30 105 62 c 0,15,16
 102 298 102 298 99.5 527 c 128,-1,17
 97 756 97 756 94 992 c 1,18,19
 100 1020 100 1020 121.5 1031 c 128,-1,20
 143 1042 143 1042 167 1040 c 128,-1,21
 191 1038 191 1038 211 1025 c 128,-1,22
 231 1012 231 1012 233 992 c 0,23,24
 234 941 234 941 233.5 896 c 128,-1,25
 233 851 233 851 231 807.5 c 128,-1,26
 229 764 229 764 226.5 720 c 128,-1,27
 224 676 224 676 220 627 c 1,28,29
 251 671 251 671 292 702.5 c 128,-1,30
 333 734 333 734 389 745 c 0,31,32
 469 763 469 763 531.5 741.5 c 128,-1,33
 594 720 594 720 637.5 672 c 128,-1,34
 681 624 681 624 705 555 c 128,-1,35
 729 486 729 486 732 407 c 0,36,37
 734 363 734 363 736 316 c 128,-1,38
 738 269 738 269 738.5 221 c 128,-1,39
 739 173 739 173 737 126.5 c 128,-1,40
 735 80 735 80 728 39 c 0,41,42
 720 15 720 15 701.5 5.5 c 128,-1,43
 683 -4 683 -4 663.5 0 c 128,-1,44
 644 4 644 4 629 19.5 c 128,-1,45
 614 35 614 35 613 60 c 0,46,47
 613 109 613 109 615.5 165.5 c 128,-1,48
 618 222 618 222 618 279 c 128,-1,49
 618 336 618 336 613.5 391.5 c 128,-1,50
 609 447 609 447 596 495 c 0,0,1
EndSplineSet
EndChar

StartChar: i
Encoding: 105 105 76
Width: 375
VWidth: 2048
Flags: W
LayerCount: 2
Fore
SplineSet
118 681 m 0,0,1
 115 713 115 713 133.5 731.5 c 128,-1,2
 152 750 152 750 177 752.5 c 128,-1,3
 202 755 202 755 226 741.5 c 128,-1,4
 250 728 250 728 258 696 c 1,5,6
 264 606 264 606 265.5 531 c 128,-1,7
 267 456 267 456 265.5 383.5 c 128,-1,8
 264 311 264 311 260.5 236 c 128,-1,9
 257 161 257 161 254 71 c 0,10,11
 251 38 251 38 231.5 21.5 c 128,-1,12
 212 5 212 5 189 5 c 128,-1,13
 166 5 166 5 146.5 21 c 128,-1,14
 127 37 127 37 124 69 c 1,15,16
 127 156 127 156 127 231.5 c 128,-1,17
 127 307 127 307 125 379 c 128,-1,18
 123 451 123 451 121 524.5 c 128,-1,19
 119 598 119 598 118 681 c 0,0,1
75 968 m 0,20,21
 78 986 78 986 90 1007.5 c 128,-1,22
 102 1029 102 1029 122 1037 c 0,23,24
 152 1050 152 1050 180 1046.5 c 128,-1,25
 208 1043 208 1043 227 1027.5 c 128,-1,26
 246 1012 246 1012 254 986 c 128,-1,27
 262 960 262 960 253 927 c 0,28,29
 246 900 246 900 230 886.5 c 128,-1,30
 214 873 214 873 194.5 870 c 128,-1,31
 175 867 175 867 153.5 873 c 128,-1,32
 132 879 132 879 114.5 892.5 c 128,-1,33
 97 906 97 906 86 925.5 c 128,-1,34
 75 945 75 945 75 968 c 0,20,21
EndSplineSet
EndChar

StartChar: j
Encoding: 106 106 77
Width: 343
VWidth: 2048
Flags: W
LayerCount: 2
Fore
SplineSet
100 710 m 1,0,1
 106 738 106 738 125 753 c 128,-1,2
 144 768 144 768 166 770 c 128,-1,3
 188 772 188 772 208 759.5 c 128,-1,4
 228 747 228 747 236 720 c 1,5,6
 239 645 239 645 243 575 c 128,-1,7
 247 505 247 505 250 436 c 128,-1,8
 253 367 253 367 255 296.5 c 128,-1,9
 257 226 257 226 257 151 c 0,10,11
 257 104 257 104 255 42.5 c 128,-1,12
 253 -19 253 -19 243 -80.5 c 128,-1,13
 233 -142 233 -142 212 -197 c 128,-1,14
 191 -252 191 -252 152 -285 c 0,15,16
 130 -304 130 -304 93.5 -316.5 c 128,-1,17
 57 -329 57 -329 15 -334 c 128,-1,18
 -27 -339 -27 -339 -71 -335.5 c 128,-1,19
 -115 -332 -115 -332 -152 -318 c 128,-1,20
 -189 -304 -189 -304 -214.5 -279.5 c 128,-1,21
 -240 -255 -240 -255 -246 -217 c 0,22,23
 -250 -185 -250 -185 -237 -167 c 128,-1,24
 -224 -149 -224 -149 -204 -146 c 128,-1,25
 -184 -143 -184 -143 -161 -155.5 c 128,-1,26
 -138 -168 -138 -168 -123 -197 c 0,27,28
 -114 -215 -114 -215 -94 -221 c 128,-1,29
 -74 -227 -74 -227 -50 -224 c 128,-1,30
 -26 -221 -26 -221 -0.5 -211 c 128,-1,31
 25 -201 25 -201 47 -187 c 128,-1,32
 69 -173 69 -173 84.5 -157 c 128,-1,33
 100 -141 100 -141 104 -126 c 0,34,35
 111 -96 111 -96 116 -60.5 c 128,-1,36
 121 -25 121 -25 124.5 11.5 c 128,-1,37
 128 48 128 48 129.5 83 c 128,-1,38
 131 118 131 118 131 147 c 0,39,40
 131 222 131 222 127.5 291.5 c 128,-1,41
 124 361 124 361 119 429 c 128,-1,42
 114 497 114 497 108.5 566 c 128,-1,43
 103 635 103 635 100 710 c 1,0,1
75 995 m 0,44,45
 88 1011 88 1011 103 1021.5 c 128,-1,46
 118 1032 118 1032 133.5 1034.5 c 128,-1,47
 149 1037 149 1037 165.5 1030 c 128,-1,48
 182 1023 182 1023 198 1004 c 1,49,50
 211 970 211 970 209 946 c 128,-1,51
 207 922 207 922 196 907 c 128,-1,52
 185 892 185 892 168 885.5 c 128,-1,53
 151 879 151 879 132.5 881 c 128,-1,54
 114 883 114 883 97.5 893 c 128,-1,55
 81 903 81 903 72 921 c 0,56,57
 61 943 61 943 62 959 c 128,-1,58
 63 975 63 975 75 995 c 0,44,45
EndSplineSet
EndChar

StartChar: k
Encoding: 107 107 78
Width: 736
VWidth: 2048
Flags: W
LayerCount: 2
Fore
SplineSet
74 994 m 1,0,1
 80 1022 80 1022 96 1036.5 c 128,-1,2
 112 1051 112 1051 131 1051.5 c 128,-1,3
 150 1052 150 1052 167.5 1039 c 128,-1,4
 185 1026 185 1026 193 999 c 1,5,6
 195 860 195 860 202.5 723 c 128,-1,7
 210 586 210 586 216 447 c 1,8,9
 256 480 256 480 300 525.5 c 128,-1,10
 344 571 344 571 389 616 c 128,-1,11
 434 661 434 661 479.5 700 c 128,-1,12
 525 739 525 739 567 760 c 1,13,14
 591 753 591 753 606.5 737.5 c 128,-1,15
 622 722 622 722 627.5 705 c 128,-1,16
 633 688 633 688 628 671.5 c 128,-1,17
 623 655 623 655 607 646 c 0,18,19
 592 633 592 633 569 614.5 c 128,-1,20
 546 596 546 596 522 575.5 c 128,-1,21
 498 555 498 555 476 535.5 c 128,-1,22
 454 516 454 516 441 500 c 1,23,24
 463 443 463 443 488.5 392.5 c 128,-1,25
 514 342 514 342 541.5 293 c 128,-1,26
 569 244 569 244 599 194 c 128,-1,27
 629 144 629 144 661 89 c 1,28,29
 670 58 670 58 659 36 c 128,-1,30
 648 14 648 14 628.5 6.5 c 128,-1,31
 609 -1 609 -1 586 7.5 c 128,-1,32
 563 16 563 16 549 46 c 0,33,34
 524 91 524 91 496 135.5 c 128,-1,35
 468 180 468 180 441 225 c 128,-1,36
 414 270 414 270 389 316.5 c 128,-1,37
 364 363 364 363 346 412 c 1,38,39
 317 378 317 378 287 347 c 128,-1,40
 257 316 257 316 223 287 c 1,41,42
 225 228 225 228 226 170 c 128,-1,43
 227 112 227 112 220 53 c 1,44,45
 227 38 227 38 225 22.5 c 128,-1,46
 223 7 223 7 213 -4.5 c 128,-1,47
 203 -16 203 -16 187 -22.5 c 128,-1,48
 171 -29 171 -29 149 -26 c 1,49,50
 120 -7 120 -7 108.5 25.5 c 128,-1,51
 97 58 97 58 95.5 95.5 c 128,-1,52
 94 133 94 133 97 172.5 c 128,-1,53
 100 212 100 212 99 244 c 0,54,55
 95 434 95 434 86 619.5 c 128,-1,56
 77 805 77 805 74 994 c 1,0,1
EndSplineSet
EndChar

StartChar: l
Encoding: 108 108 79
Width: 362
VWidth: 2048
Flags: W
LayerCount: 2
Fore
SplineSet
107 983 m 1,0,1
 113 1011 113 1011 131.5 1025.5 c 128,-1,2
 150 1040 150 1040 171.5 1040.5 c 128,-1,3
 193 1041 193 1041 213 1028 c 128,-1,4
 233 1015 233 1015 241 988 c 1,5,6
 243 753 243 753 250.5 520 c 128,-1,7
 258 287 258 287 260 51 c 0,8,9
 258 18 258 18 238.5 1 c 128,-1,10
 219 -16 219 -16 195.5 -16.5 c 128,-1,11
 172 -17 172 -17 151 -1.5 c 128,-1,12
 130 14 130 14 126 46 c 0,13,14
 124 282 124 282 116.5 515 c 128,-1,15
 109 748 109 748 107 983 c 1,0,1
EndSplineSet
EndChar

StartChar: m
Encoding: 109 109 80
Width: 1179
VWidth: 2048
Flags: W
LayerCount: 2
Fore
SplineSet
863 627 m 0,0,1
 815 631 815 631 781.5 614 c 128,-1,2
 748 597 748 597 726 569 c 128,-1,3
 704 541 704 541 691 508 c 128,-1,4
 678 475 678 475 672 447 c 1,5,6
 676 397 676 397 677.5 344.5 c 128,-1,7
 679 292 679 292 678.5 242.5 c 128,-1,8
 678 193 678 193 677 148.5 c 128,-1,9
 676 104 676 104 675 69 c 0,10,11
 673 36 673 36 654.5 19 c 128,-1,12
 636 2 636 2 613 1.5 c 128,-1,13
 590 1 590 1 569.5 16.5 c 128,-1,14
 549 32 549 32 545 64 c 1,15,16
 546 125 546 125 551 186.5 c 128,-1,17
 556 248 556 248 556.5 309 c 128,-1,18
 557 370 557 370 550.5 429.5 c 128,-1,19
 544 489 544 489 522 547 c 0,20,21
 505 593 505 593 475 615 c 128,-1,22
 445 637 445 637 409.5 638.5 c 128,-1,23
 374 640 374 640 338 625 c 128,-1,24
 302 610 302 610 273 583.5 c 128,-1,25
 244 557 244 557 226 521 c 128,-1,26
 208 485 208 485 210 445 c 0,27,28
 210 389 210 389 213 345 c 128,-1,29
 216 301 216 301 219.5 258.5 c 128,-1,30
 223 216 223 216 225.5 170.5 c 128,-1,31
 228 125 228 125 226 66 c 0,32,33
 224 34 224 34 205.5 17 c 128,-1,34
 187 0 187 0 164.5 -1 c 128,-1,35
 142 -2 142 -2 122 12.5 c 128,-1,36
 102 27 102 27 97 59 c 1,37,38
 100 137 100 137 98.5 214 c 128,-1,39
 97 291 97 291 92.5 368.5 c 128,-1,40
 88 446 88 446 82 525.5 c 128,-1,41
 76 605 76 605 70 688 c 0,42,43
 66 720 66 720 82 739.5 c 128,-1,44
 98 759 98 759 120.5 763 c 128,-1,45
 143 767 143 767 165.5 754 c 128,-1,46
 188 741 188 741 197 710 c 0,47,48
 200 690 200 690 199 679.5 c 128,-1,49
 198 669 198 669 200 649 c 1,50,51
 206 679 206 679 231.5 703 c 128,-1,52
 257 727 257 727 294 742.5 c 128,-1,53
 331 758 331 758 374.5 765 c 128,-1,54
 418 772 418 772 459 767.5 c 128,-1,55
 500 763 500 763 534 746.5 c 128,-1,56
 568 730 568 730 586 699 c 0,57,58
 597 681 597 681 608 663.5 c 128,-1,59
 619 646 619 646 629 627 c 1,60,61
 651 665 651 665 677.5 693 c 128,-1,62
 704 721 704 721 738.5 736.5 c 128,-1,63
 773 752 773 752 816.5 754.5 c 128,-1,64
 860 757 860 757 917 745 c 0,65,66
 971 734 971 734 1005 695 c 128,-1,67
 1039 656 1039 656 1058 599.5 c 128,-1,68
 1077 543 1077 543 1084.5 474 c 128,-1,69
 1092 405 1092 405 1092.5 333.5 c 128,-1,70
 1093 262 1093 262 1090 193.5 c 128,-1,71
 1087 125 1087 125 1085 69 c 0,72,73
 1083 36 1083 36 1065 19 c 128,-1,74
 1047 2 1047 2 1024.5 1.5 c 128,-1,75
 1002 1 1002 1 982 16.5 c 128,-1,76
 962 32 962 32 958 64 c 0,77,78
 952 101 952 101 956.5 155.5 c 128,-1,79
 961 210 961 210 967.5 271.5 c 128,-1,80
 974 333 974 333 977 394.5 c 128,-1,81
 980 456 980 456 971.5 506 c 128,-1,82
 963 556 963 556 938 589.5 c 128,-1,83
 913 623 913 623 863 627 c 0,0,1
EndSplineSet
EndChar

StartChar: n
Encoding: 110 110 81
Width: 788
VWidth: 2048
Flags: W
LayerCount: 2
Fore
SplineSet
289 550 m 0,0,1
 247 494 247 494 224 429 c 1,2,3
 224 340 224 340 224 249.5 c 128,-1,4
 224 159 224 159 226 69 c 0,5,6
 224 36 224 36 205 19 c 128,-1,7
 186 2 186 2 163 1.5 c 128,-1,8
 140 1 140 1 119.5 16.5 c 128,-1,9
 99 32 99 32 95 64 c 0,10,11
 93 146 93 146 93 226 c 128,-1,12
 93 306 93 306 93 385.5 c 128,-1,13
 93 465 93 465 93 545 c 128,-1,14
 93 625 93 625 91 707 c 1,15,16
 97 735 97 735 115 749.5 c 128,-1,17
 133 764 133 764 154 764.5 c 128,-1,18
 175 765 175 765 194.5 752 c 128,-1,19
 214 739 214 739 222 712 c 1,20,21
 222 692 222 692 222.5 679 c 128,-1,22
 223 666 223 666 223 646 c 1,23,24
 259 688 259 688 310.5 717.5 c 128,-1,25
 362 747 362 747 418.5 757 c 128,-1,26
 475 767 475 767 531 753.5 c 128,-1,27
 587 740 587 740 632 695 c 0,28,29
 662 667 662 667 677 620 c 128,-1,30
 692 573 692 573 698.5 516.5 c 128,-1,31
 705 460 705 460 705.5 397.5 c 128,-1,32
 706 335 706 335 704.5 276 c 128,-1,33
 703 217 703 217 703 165.5 c 128,-1,34
 703 114 703 114 710 79 c 0,35,36
 716 47 716 47 702 25 c 128,-1,37
 688 3 688 3 666.5 -4.5 c 128,-1,38
 645 -12 645 -12 621.5 -3 c 128,-1,39
 598 6 598 6 584 36 c 1,40,41
 572 96 572 96 575 167 c 128,-1,42
 578 238 578 238 582 310.5 c 128,-1,43
 586 383 586 383 582.5 451 c 128,-1,44
 579 519 579 519 554 573 c 0,45,46
 539 605 539 605 504 617 c 128,-1,47
 469 629 469 629 429 624 c 128,-1,48
 389 619 389 619 350.5 599.5 c 128,-1,49
 312 580 312 580 289 550 c 0,0,1
EndSplineSet
EndChar

StartChar: o
Encoding: 111 111 82
Width: 788
VWidth: 2048
Flags: W
LayerCount: 2
Fore
SplineSet
228 50 m 0,0,1
 164 90 164 90 124 148 c 128,-1,2
 84 206 84 206 65.5 272 c 128,-1,3
 47 338 47 338 50 406.5 c 128,-1,4
 53 475 53 475 75.5 537 c 128,-1,5
 98 599 98 599 139.5 649 c 128,-1,6
 181 699 181 699 239 728 c 128,-1,7
 297 757 297 757 371 760 c 128,-1,8
 445 763 445 763 534 730 c 0,9,10
 610 698 610 698 656 638.5 c 128,-1,11
 702 579 702 579 718.5 505 c 128,-1,12
 735 431 735 431 723 349 c 128,-1,13
 711 267 711 267 672 189 c 0,14,15
 635 117 635 117 579.5 74.5 c 128,-1,16
 524 32 524 32 462 16.5 c 128,-1,17
 400 1 400 1 338.5 10 c 128,-1,18
 277 19 277 19 228 50 c 0,0,1
588 477 m 0,19,20
 571 543 571 543 538.5 581 c 128,-1,21
 506 619 506 619 466 633.5 c 128,-1,22
 426 648 426 648 382.5 641.5 c 128,-1,23
 339 635 339 635 300.5 612 c 128,-1,24
 262 589 262 589 231.5 551 c 128,-1,25
 201 513 201 513 188 466 c 0,26,27
 174 418 174 418 177.5 370.5 c 128,-1,28
 181 323 181 323 199 281 c 128,-1,29
 217 239 217 239 247.5 205.5 c 128,-1,30
 278 172 278 172 318 153 c 0,31,32
 363 131 363 131 403.5 135.5 c 128,-1,33
 444 140 444 140 477.5 162.5 c 128,-1,34
 511 185 511 185 536.5 222 c 128,-1,35
 562 259 562 259 576.5 302.5 c 128,-1,36
 591 346 591 346 594.5 391.5 c 128,-1,37
 598 437 598 437 588 477 c 0,19,20
EndSplineSet
EndChar

StartChar: p
Encoding: 112 112 83
Width: 801
VWidth: 2048
Flags: W
LayerCount: 2
Fore
SplineSet
76 705 m 0,0,1
 80 726 80 726 93 740 c 128,-1,2
 106 754 106 754 122 759 c 128,-1,3
 138 764 138 764 155 761 c 128,-1,4
 172 758 172 758 184 745 c 128,-1,5
 196 732 196 732 201 709.5 c 128,-1,6
 206 687 206 687 199 654 c 1,7,8
 250 698 250 698 300.5 723 c 128,-1,9
 351 748 351 748 421 749 c 256,10,11
 491 750 491 750 549.5 729 c 128,-1,12
 608 708 608 708 652.5 670.5 c 128,-1,13
 697 633 697 633 725.5 582 c 128,-1,14
 754 531 754 531 763.5 470.5 c 128,-1,15
 773 410 773 410 762 343.5 c 128,-1,16
 751 277 751 277 717 209 c 0,17,18
 700 176 700 176 669.5 141.5 c 128,-1,19
 639 107 639 107 598 77.5 c 128,-1,20
 557 48 557 48 508 28.5 c 128,-1,21
 459 9 459 9 405.5 5.5 c 128,-1,22
 352 2 352 2 296.5 19 c 128,-1,23
 241 36 241 36 187 80 c 1,24,25
 191 -20 191 -20 195.5 -118.5 c 128,-1,26
 200 -217 200 -217 202 -318 c 0,27,28
 200 -351 200 -351 183 -368 c 128,-1,29
 166 -385 166 -385 145 -385.5 c 128,-1,30
 124 -386 124 -386 105.5 -370.5 c 128,-1,31
 87 -355 87 -355 83 -323 c 0,32,33
 80 -196 80 -196 73 -68.5 c 128,-1,34
 66 59 66 59 61.5 187.5 c 128,-1,35
 57 316 57 316 59 445 c 128,-1,36
 61 574 61 574 76 705 c 0,0,1
616 511 m 1,37,38
 565 570 565 570 508.5 598 c 128,-1,39
 452 626 452 626 395 624 c 128,-1,40
 338 622 338 622 284.5 589.5 c 128,-1,41
 231 557 231 557 186 496 c 1,42,43
 185 468 185 468 184.5 435 c 128,-1,44
 184 402 184 402 184 368 c 128,-1,45
 184 334 184 334 184.5 301 c 128,-1,46
 185 268 185 268 186 240 c 1,47,48
 217 192 217 192 257.5 170 c 128,-1,49
 298 148 298 148 343 145.5 c 128,-1,50
 388 143 388 143 433 158.5 c 128,-1,51
 478 174 478 174 518 201.5 c 128,-1,52
 558 229 558 229 588.5 266 c 128,-1,53
 619 303 619 303 634.5 344.5 c 128,-1,54
 650 386 650 386 647 429 c 128,-1,55
 644 472 644 472 616 511 c 1,37,38
EndSplineSet
EndChar

StartChar: q
Encoding: 113 113 84
Width: 793
VWidth: 2048
Flags: W
LayerCount: 2
Fore
SplineSet
576 705 m 0,0,1
 582 733 582 733 598 747.5 c 128,-1,2
 614 762 614 762 633 762.5 c 128,-1,3
 652 763 652 763 669.5 750 c 128,-1,4
 687 737 687 737 695 710 c 1,5,6
 707 581 707 581 705.5 452.5 c 128,-1,7
 704 324 704 324 699.5 195.5 c 128,-1,8
 695 67 695 67 692.5 -62.5 c 128,-1,9
 690 -192 690 -192 700 -322 c 0,10,11
 699 -350 699 -350 685 -367 c 128,-1,12
 671 -384 671 -384 652.5 -388 c 128,-1,13
 634 -392 634 -392 614.5 -382 c 128,-1,14
 595 -372 595 -372 583 -346 c 1,15,16
 576 -290 576 -290 572.5 -240 c 128,-1,17
 569 -190 569 -190 568 -140.5 c 128,-1,18
 567 -91 567 -91 567.5 -40 c 128,-1,19
 568 11 568 11 570 69 c 1,20,21
 518 30 518 30 449.5 17 c 128,-1,22
 381 4 381 4 313 18 c 128,-1,23
 245 32 245 32 186 73 c 128,-1,24
 127 114 127 114 94 182 c 0,25,26
 67 238 67 238 60.5 300.5 c 128,-1,27
 54 363 54 363 64 424.5 c 128,-1,28
 74 486 74 486 99 543 c 128,-1,29
 124 600 124 600 160.5 645.5 c 128,-1,30
 197 691 197 691 243.5 720.5 c 128,-1,31
 290 750 290 750 343.5 756.5 c 128,-1,32
 397 763 397 763 455.5 743.5 c 128,-1,33
 514 724 514 724 574 670 c 1,34,35
 573 677 573 677 573.5 681 c 128,-1,36
 574 685 574 685 575 687.5 c 128,-1,37
 576 690 576 690 576.5 693.5 c 128,-1,38
 577 697 577 697 576 705 c 0,0,1
265 170 m 0,39,40
 304 139 304 139 353 136 c 128,-1,41
 402 133 402 133 446.5 149.5 c 128,-1,42
 491 166 491 166 524 198 c 128,-1,43
 557 230 557 230 564 270 c 0,44,45
 565 282 565 282 566 305 c 128,-1,46
 567 328 567 328 568 355.5 c 128,-1,47
 569 383 569 383 570 412.5 c 128,-1,48
 571 442 571 442 571.5 466.5 c 128,-1,49
 572 491 572 491 571.5 507.5 c 128,-1,50
 571 524 571 524 570 527 c 0,51,52
 559 549 559 549 538 566.5 c 128,-1,53
 517 584 517 584 488.5 595 c 128,-1,54
 460 606 460 606 426.5 611 c 128,-1,55
 393 616 393 616 357 614 c 0,56,57
 322 612 322 612 293.5 585 c 128,-1,58
 265 558 265 558 245 516.5 c 128,-1,59
 225 475 225 475 214.5 424.5 c 128,-1,60
 204 374 204 374 205.5 325 c 128,-1,61
 207 276 207 276 221.5 234.5 c 128,-1,62
 236 193 236 193 265 170 c 0,39,40
EndSplineSet
EndChar

StartChar: r
Encoding: 114 114 85
Width: 614
VWidth: 2048
Flags: W
LayerCount: 2
Fore
SplineSet
492 594 m 0,0,1
 464 622 464 622 431 624.5 c 128,-1,2
 398 627 398 627 365 612 c 128,-1,3
 332 597 332 597 302 570 c 128,-1,4
 272 543 272 543 249.5 513 c 128,-1,5
 227 483 227 483 214.5 454.5 c 128,-1,6
 202 426 202 426 205 409 c 1,7,8
 202 370 202 370 204 326.5 c 128,-1,9
 206 283 206 283 210 237.5 c 128,-1,10
 214 192 214 192 216.5 144.5 c 128,-1,11
 219 97 219 97 216 50 c 1,12,13
 207 27 207 27 192 15 c 128,-1,14
 177 3 177 3 160 2.5 c 128,-1,15
 143 2 143 2 127 12.5 c 128,-1,16
 111 23 111 23 100 46 c 1,17,18
 86 140 86 140 82 220.5 c 128,-1,19
 78 301 78 301 78 377.5 c 128,-1,20
 78 454 78 454 78 530.5 c 128,-1,21
 78 607 78 607 72 694 c 0,22,23
 68 726 68 726 82.5 745.5 c 128,-1,24
 97 765 97 765 117.5 769.5 c 128,-1,25
 138 774 138 774 159 761.5 c 128,-1,26
 180 749 180 749 189 718 c 0,27,28
 192 700 192 700 193 686.5 c 128,-1,29
 194 673 194 673 194.5 660 c 128,-1,30
 195 647 195 647 195.5 633.5 c 128,-1,31
 196 620 196 620 197 602 c 1,32,33
 208 637 208 637 232.5 665.5 c 128,-1,34
 257 694 257 694 289.5 713 c 128,-1,35
 322 732 322 732 360 741.5 c 128,-1,36
 398 751 398 751 436 748 c 128,-1,37
 474 745 474 745 508.5 730 c 128,-1,38
 543 715 543 715 569 685 c 0,39,40
 586 662 586 662 583.5 637.5 c 128,-1,41
 581 613 581 613 567.5 596.5 c 128,-1,42
 554 580 554 580 533 577 c 128,-1,43
 512 574 512 574 492 594 c 0,0,1
EndSplineSet
EndChar

StartChar: s
Encoding: 115 115 86
Width: 635
VWidth: 2048
Flags: W
LayerCount: 2
Fore
SplineSet
524 553 m 0,0,1
 523 525 523 525 509 508 c 128,-1,2
 495 491 495 491 476.5 487 c 128,-1,3
 458 483 458 483 438.5 493 c 128,-1,4
 419 503 419 503 407 529 c 1,5,6
 405 545 405 545 402.5 561 c 128,-1,7
 400 577 400 577 395.5 590.5 c 128,-1,8
 391 604 391 604 382 616 c 128,-1,9
 373 628 373 628 357 637 c 0,10,11
 331 652 331 652 302 649 c 128,-1,12
 273 646 273 646 248.5 630 c 128,-1,13
 224 614 224 614 209 588.5 c 128,-1,14
 194 563 194 563 196 533 c 0,15,16
 197 518 197 518 219.5 502 c 128,-1,17
 242 486 242 486 270 471.5 c 128,-1,18
 298 457 298 457 323 447 c 128,-1,19
 348 437 348 437 355 434 c 0,20,21
 388 422 388 422 423 410 c 128,-1,22
 458 398 458 398 489.5 378.5 c 128,-1,23
 521 359 521 359 545 328 c 128,-1,24
 569 297 569 297 578 247 c 0,25,26
 590 181 590 181 559 131.5 c 128,-1,27
 528 82 528 82 474.5 51.5 c 128,-1,28
 421 21 421 21 357 11 c 128,-1,29
 293 1 293 1 239 14 c 0,30,31
 207 22 207 22 178 39.5 c 128,-1,32
 149 57 149 57 126.5 81 c 128,-1,33
 104 105 104 105 88.5 134.5 c 128,-1,34
 73 164 73 164 68 197 c 0,35,36
 64 229 64 229 78.5 248.5 c 128,-1,37
 93 268 93 268 113.5 272.5 c 128,-1,38
 134 277 134 277 155 264.5 c 128,-1,39
 176 252 176 252 185 221 c 0,40,41
 193 194 193 194 216 175 c 128,-1,42
 239 156 239 156 269 146.5 c 128,-1,43
 299 137 299 137 332 137 c 128,-1,44
 365 137 365 137 391.5 148 c 128,-1,45
 418 159 418 159 434.5 181 c 128,-1,46
 451 203 451 203 449 237 c 0,47,48
 448 257 448 257 427.5 274 c 128,-1,49
 407 291 407 291 376.5 306.5 c 128,-1,50
 346 322 346 322 309 335 c 128,-1,51
 272 348 272 348 237.5 360 c 128,-1,52
 203 372 203 372 175 382 c 128,-1,53
 147 392 147 392 134 402 c 0,54,55
 102 426 102 426 86.5 459.5 c 128,-1,56
 71 493 71 493 69.5 529.5 c 128,-1,57
 68 566 68 566 79 602.5 c 128,-1,58
 90 639 90 639 110.5 670 c 128,-1,59
 131 701 131 701 159.5 722.5 c 128,-1,60
 188 744 188 744 222 751 c 0,61,62
 260 758 260 758 293 761 c 128,-1,63
 326 764 326 764 356 759 c 128,-1,64
 386 754 386 754 414 739.5 c 128,-1,65
 442 725 442 725 470 698 c 0,66,67
 485 683 485 683 494.5 666 c 128,-1,68
 504 649 504 649 509.5 630.5 c 128,-1,69
 515 612 515 612 518 592 c 128,-1,70
 521 572 521 572 524 553 c 0,0,1
EndSplineSet
EndChar

StartChar: t
Encoding: 116 116 87
Width: 458
VWidth: 2048
Flags: W
LayerCount: 2
Fore
SplineSet
66 645 m 0,0,1
 38 649 38 649 22 664 c 128,-1,2
 6 679 6 679 3.5 697.5 c 128,-1,3
 1 716 1 716 12.5 734.5 c 128,-1,4
 24 753 24 753 51 763 c 0,5,6
 66 765 66 765 77.5 765 c 128,-1,7
 89 765 89 765 99.5 764.5 c 128,-1,8
 110 764 110 764 121.5 763 c 128,-1,9
 133 762 133 762 148 763 c 1,10,11
 146 782 146 782 144.5 817.5 c 128,-1,12
 143 853 143 853 141 892 c 128,-1,13
 139 931 139 931 137 967 c 128,-1,14
 135 1003 135 1003 133 1022 c 1,15,16
 139 1050 139 1050 157.5 1064.5 c 128,-1,17
 176 1079 176 1079 197.5 1079.5 c 128,-1,18
 219 1080 219 1080 239 1067 c 128,-1,19
 259 1054 259 1054 267 1027 c 0,20,21
 269 1008 269 1008 271 972 c 128,-1,22
 273 936 273 936 275 896 c 128,-1,23
 277 856 277 856 278.5 820 c 128,-1,24
 280 784 280 784 282 765 c 1,25,26
 308 765 308 765 335 764.5 c 128,-1,27
 362 764 362 764 388 764 c 1,28,29
 415 756 415 756 428 738.5 c 128,-1,30
 441 721 441 721 440.5 702 c 128,-1,31
 440 683 440 683 425.5 667 c 128,-1,32
 411 651 411 651 383 645 c 1,33,34
 360 645 360 645 336.5 645.5 c 128,-1,35
 313 646 313 646 290 646 c 1,36,37
 294 558 294 558 295.5 486.5 c 128,-1,38
 297 415 297 415 296.5 347 c 128,-1,39
 296 279 296 279 295 207.5 c 128,-1,40
 294 136 294 136 293 47 c 0,41,42
 291 14 291 14 271.5 -3 c 128,-1,43
 252 -20 252 -20 228.5 -20.5 c 128,-1,44
 205 -21 205 -21 184 -5.5 c 128,-1,45
 163 10 163 10 159 42 c 1,46,47
 160 131 160 131 161 203 c 128,-1,48
 162 275 162 275 162.5 343.5 c 128,-1,49
 163 412 163 412 161.5 483.5 c 128,-1,50
 160 555 160 555 156 644 c 1,51,52
 141 643 141 643 130.5 644 c 128,-1,53
 120 645 120 645 110.5 646 c 128,-1,54
 101 647 101 647 90.5 647 c 128,-1,55
 80 647 80 647 66 645 c 0,0,1
EndSplineSet
EndChar

StartChar: u
Encoding: 117 117 88
Width: 813
VWidth: 2048
Flags: W
LayerCount: 2
Fore
SplineSet
81 717 m 1,0,1
 87 745 87 745 105.5 759 c 128,-1,2
 124 773 124 773 145.5 773.5 c 128,-1,3
 167 774 167 774 187 760.5 c 128,-1,4
 207 747 207 747 215 720 c 1,5,6
 215 675 215 675 211.5 610 c 128,-1,7
 208 545 208 545 208.5 476.5 c 128,-1,8
 209 408 209 408 217.5 345 c 128,-1,9
 226 282 226 282 250 240 c 0,10,11
 266 212 266 212 294 192 c 128,-1,12
 322 172 322 172 356 160.5 c 128,-1,13
 390 149 390 149 426 146.5 c 128,-1,14
 462 144 462 144 493 152.5 c 128,-1,15
 524 161 524 161 546.5 181 c 128,-1,16
 569 201 569 201 576 234 c 0,17,18
 587 280 587 280 591.5 343 c 128,-1,19
 596 406 596 406 596.5 473 c 128,-1,20
 597 540 597 540 593.5 605 c 128,-1,21
 590 670 590 670 584 721 c 1,22,23
 590 749 590 749 607.5 763.5 c 128,-1,24
 625 778 625 778 645.5 778.5 c 128,-1,25
 666 779 666 779 685 766 c 128,-1,26
 704 753 704 753 712 726 c 1,27,28
 719 662 719 662 724 594 c 128,-1,29
 729 526 729 526 729.5 457 c 128,-1,30
 730 388 730 388 725.5 319.5 c 128,-1,31
 721 251 721 251 710 186 c 0,32,33
 699 122 699 122 661 83.5 c 128,-1,34
 623 45 623 45 569.5 27.5 c 128,-1,35
 516 10 516 10 454 12.5 c 128,-1,36
 392 15 392 15 333 32.5 c 128,-1,37
 274 50 274 50 224.5 80.5 c 128,-1,38
 175 111 175 111 147 150 c 0,39,40
 106 210 106 210 90 278.5 c 128,-1,41
 74 347 74 347 71.5 420.5 c 128,-1,42
 69 494 69 494 74.5 569 c 128,-1,43
 80 644 80 644 81 717 c 1,0,1
EndSplineSet
EndChar

StartChar: v
Encoding: 118 118 89
Width: 723
VWidth: 2048
Flags: W
LayerCount: 2
Fore
SplineSet
353 10 m 0,0,1
 326 9 326 9 294.5 44.5 c 128,-1,2
 263 80 263 80 231 138.5 c 128,-1,3
 199 197 199 197 169 270.5 c 128,-1,4
 139 344 139 344 113.5 420 c 128,-1,5
 88 496 88 496 69 566 c 128,-1,6
 50 636 50 636 42 688 c 0,7,8
 39 716 39 716 51 733.5 c 128,-1,9
 63 751 63 751 82.5 756 c 128,-1,10
 102 761 102 761 124 752.5 c 128,-1,11
 146 744 146 744 163 721 c 1,12,13
 174 680 174 680 188.5 624 c 128,-1,14
 203 568 203 568 219.5 509 c 128,-1,15
 236 450 236 450 254 392.5 c 128,-1,16
 272 335 272 335 290 289 c 128,-1,17
 308 243 308 243 325.5 214.5 c 128,-1,18
 343 186 343 186 358 185 c 0,19,20
 371 185 371 185 386.5 212 c 128,-1,21
 402 239 402 239 419 283 c 128,-1,22
 436 327 436 327 453.5 384 c 128,-1,23
 471 441 471 441 488 501 c 128,-1,24
 505 561 505 561 521.5 619.5 c 128,-1,25
 538 678 538 678 552 726 c 1,26,27
 566 750 566 750 587 758.5 c 128,-1,28
 608 767 608 767 627.5 761 c 128,-1,29
 647 755 647 755 660 736.5 c 128,-1,30
 673 718 673 718 672 690 c 0,31,32
 668 672 668 672 659 633 c 128,-1,33
 650 594 650 594 636.5 543 c 128,-1,34
 623 492 623 492 605 433 c 128,-1,35
 587 374 587 374 565.5 315 c 128,-1,36
 544 256 544 256 519.5 201.5 c 128,-1,37
 495 147 495 147 468 104.5 c 128,-1,38
 441 62 441 62 412 36.5 c 128,-1,39
 383 11 383 11 353 10 c 0,0,1
EndSplineSet
EndChar

StartChar: w
Encoding: 119 119 90
Width: 1000
VWidth: 2048
Flags: W
LayerCount: 2
Fore
SplineSet
67 717 m 1,0,1
 73 745 73 745 92 758.5 c 128,-1,2
 111 772 111 772 133.5 772 c 128,-1,3
 156 772 156 772 176.5 758 c 128,-1,4
 197 744 197 744 205 717 c 1,5,6
 210 668 210 668 215.5 609.5 c 128,-1,7
 221 551 221 551 227 492 c 128,-1,8
 233 433 233 433 241 377.5 c 128,-1,9
 249 322 249 322 259.5 279.5 c 128,-1,10
 270 237 270 237 284 212 c 128,-1,11
 298 187 298 187 316 188 c 0,12,13
 340 188 340 188 361.5 229 c 128,-1,14
 383 270 383 270 398 333.5 c 128,-1,15
 413 397 413 397 420 473.5 c 128,-1,16
 427 550 427 550 422 622 c 1,17,18
 429 654 429 654 449 668 c 128,-1,19
 469 682 469 682 491.5 679 c 128,-1,20
 514 676 514 676 532.5 657.5 c 128,-1,21
 551 639 551 639 555 606 c 0,22,23
 559 568 559 568 564.5 522.5 c 128,-1,24
 570 477 570 477 577 431 c 128,-1,25
 584 385 584 385 594 341 c 128,-1,26
 604 297 604 297 617.5 263 c 128,-1,27
 631 229 631 229 649 207 c 128,-1,28
 667 185 667 185 691 183 c 0,29,30
 709 181 709 181 722.5 204 c 128,-1,31
 736 227 736 227 746.5 267 c 128,-1,32
 757 307 757 307 764.5 360 c 128,-1,33
 772 413 772 413 778 472 c 128,-1,34
 784 531 784 531 788.5 592 c 128,-1,35
 793 653 793 653 798 708 c 0,36,37
 804 740 804 740 826 754 c 128,-1,38
 848 768 848 768 871 766 c 128,-1,39
 894 764 894 764 912 745.5 c 128,-1,40
 930 727 930 727 928 694 c 0,41,42
 925 645 925 645 923.5 587.5 c 128,-1,43
 922 530 922 530 918 470 c 128,-1,44
 914 410 914 410 906 349.5 c 128,-1,45
 898 289 898 289 881 234 c 128,-1,46
 864 179 864 179 837.5 131 c 128,-1,47
 811 83 811 83 770 49 c 0,48,49
 743 25 743 25 713.5 22.5 c 128,-1,50
 684 20 684 20 654.5 32 c 128,-1,51
 625 44 625 44 597.5 67 c 128,-1,52
 570 90 570 90 549 117 c 128,-1,53
 528 144 528 144 514.5 171 c 128,-1,54
 501 198 501 198 500 219 c 1,55,56
 495 202 495 202 477.5 169 c 128,-1,57
 460 136 460 136 436.5 102.5 c 128,-1,58
 413 69 413 69 387 44 c 128,-1,59
 361 19 361 19 340 18 c 0,60,61
 292 16 292 16 255.5 38.5 c 128,-1,62
 219 61 219 61 191.5 101 c 128,-1,63
 164 141 164 141 144.5 194 c 128,-1,64
 125 247 125 247 112 306 c 128,-1,65
 99 365 99 365 91 426 c 128,-1,66
 83 487 83 487 78.5 542 c 128,-1,67
 74 597 74 597 71.5 642.5 c 128,-1,68
 69 688 69 688 67 717 c 1,0,1
EndSplineSet
EndChar

StartChar: x
Encoding: 120 120 91
Width: 679
VWidth: 2048
Flags: W
LayerCount: 2
Fore
SplineSet
138 39 m 0,0,1
 118 14 118 14 94 11 c 128,-1,2
 70 8 70 8 52.5 20.5 c 128,-1,3
 35 33 35 33 29.5 57 c 128,-1,4
 24 81 24 81 41 109 c 0,5,6
 70 155 70 155 93.5 191.5 c 128,-1,7
 117 228 117 228 140.5 261.5 c 128,-1,8
 164 295 164 295 190 329.5 c 128,-1,9
 216 364 216 364 251 407 c 1,10,11
 195 479 195 479 138 543 c 128,-1,12
 81 607 81 607 17 672 c 1,13,14
 5 698 5 698 9 719.5 c 128,-1,15
 13 741 13 741 27.5 753 c 128,-1,16
 42 765 42 765 63.5 765.5 c 128,-1,17
 85 766 85 766 108 749 c 1,18,19
 168 688 168 688 222 628 c 128,-1,20
 276 568 276 568 330 500 c 1,21,22
 350 524 350 524 376 552 c 128,-1,23
 402 580 402 580 429 609.5 c 128,-1,24
 456 639 456 639 480.5 666.5 c 128,-1,25
 505 694 505 694 522 717 c 0,26,27
 539 739 539 739 559 749 c 128,-1,28
 579 759 579 759 597 759.5 c 128,-1,29
 615 760 615 760 629.5 752.5 c 128,-1,30
 644 745 644 745 650 731 c 128,-1,31
 656 717 656 717 651 697.5 c 128,-1,32
 646 678 646 678 626 656 c 0,33,34
 601 629 601 629 572.5 596 c 128,-1,35
 544 563 544 563 514.5 529.5 c 128,-1,36
 485 496 485 496 457.5 462.5 c 128,-1,37
 430 429 430 429 406 401 c 1,38,39
 463 328 463 328 519 255 c 128,-1,40
 575 182 575 182 635 112 c 0,41,42
 654 86 654 86 651 62 c 128,-1,43
 648 38 648 38 632 24 c 128,-1,44
 616 10 616 10 591.5 11 c 128,-1,45
 567 12 567 12 544 35 c 0,46,47
 487 101 487 101 434.5 169.5 c 128,-1,48
 382 238 382 238 328 307 c 1,49,50
 296 268 296 268 273 237.5 c 128,-1,51
 250 207 250 207 229 177 c 128,-1,52
 208 147 208 147 186.5 114.5 c 128,-1,53
 165 82 165 82 138 39 c 0,0,1
EndSplineSet
EndChar

StartChar: y
Encoding: 121 121 92
Width: 797
VWidth: 2048
Flags: W
LayerCount: 2
Fore
SplineSet
81 -181 m 0,0,1
 65 -144 65 -144 74.5 -117.5 c 128,-1,2
 84 -91 84 -91 103.5 -79.5 c 128,-1,3
 123 -68 123 -68 144 -73 c 128,-1,4
 165 -78 165 -78 172 -104 c 0,5,6
 183 -148 183 -148 218 -177 c 128,-1,7
 253 -206 253 -206 298 -221.5 c 128,-1,8
 343 -237 343 -237 392.5 -239.5 c 128,-1,9
 442 -242 442 -242 483 -232 c 128,-1,10
 524 -222 524 -222 551 -200.5 c 128,-1,11
 578 -179 578 -179 578 -146 c 0,12,13
 578 -90 578 -90 580.5 -25.5 c 128,-1,14
 583 39 583 39 582 94 c 1,15,16
 463 -13 463 -13 313 27 c 0,17,18
 232 48 232 48 184.5 97.5 c 128,-1,19
 137 147 137 147 112.5 211 c 128,-1,20
 88 275 88 275 82.5 347.5 c 128,-1,21
 77 420 77 420 80.5 487 c 128,-1,22
 84 554 84 554 91.5 609.5 c 128,-1,23
 99 665 99 665 101 696 c 0,24,25
 107 728 107 728 128.5 742 c 128,-1,26
 150 756 150 756 172.5 754 c 128,-1,27
 195 752 195 752 212 733.5 c 128,-1,28
 229 715 229 715 227 682 c 0,29,30
 222 617 222 617 214.5 568 c 128,-1,31
 207 519 207 519 203.5 474 c 128,-1,32
 200 429 200 429 204 382 c 128,-1,33
 208 335 208 335 227 274 c 0,34,35
 250 200 250 200 291 172.5 c 128,-1,36
 332 145 332 145 381 148.5 c 128,-1,37
 430 152 430 152 481 179 c 128,-1,38
 532 206 532 206 574 243 c 1,39,40
 572 291 572 291 571.5 328.5 c 128,-1,41
 571 366 571 366 570.5 398.5 c 128,-1,42
 570 431 570 431 569 461 c 128,-1,43
 568 491 568 491 565 523.5 c 128,-1,44
 562 556 562 556 556.5 593 c 128,-1,45
 551 630 551 630 543 678 c 0,46,47
 539 710 539 710 553.5 729.5 c 128,-1,48
 568 749 568 749 588.5 753.5 c 128,-1,49
 609 758 609 758 630 745.5 c 128,-1,50
 651 733 651 733 660 702 c 1,51,52
 675 580 675 580 686.5 456 c 128,-1,53
 698 332 698 332 703.5 217.5 c 128,-1,54
 709 103 709 103 709 4.5 c 128,-1,55
 709 -94 709 -94 702 -163 c 0,56,57
 693 -245 693 -245 650.5 -293.5 c 128,-1,58
 608 -342 608 -342 547 -362 c 128,-1,59
 486 -382 486 -382 414 -376.5 c 128,-1,60
 342 -371 342 -371 276 -346 c 128,-1,61
 210 -321 210 -321 157 -278.5 c 128,-1,62
 104 -236 104 -236 81 -181 c 0,0,1
EndSplineSet
EndChar

StartChar: z
Encoding: 122 122 93
Width: 759
VWidth: 2048
Flags: W
LayerCount: 2
Fore
SplineSet
123 752 m 0,0,1
 170 755 170 755 232 755.5 c 128,-1,2
 294 756 294 756 358.5 754.5 c 128,-1,3
 423 753 423 753 483.5 751.5 c 128,-1,4
 544 750 544 750 588 750 c 0,5,6
 627 750 627 750 651.5 739 c 128,-1,7
 676 728 676 728 684.5 709 c 128,-1,8
 693 690 693 690 683.5 664 c 128,-1,9
 674 638 674 638 646 608 c 0,10,11
 543 497 543 497 449 374.5 c 128,-1,12
 355 252 355 252 264 131 c 1,13,14
 320 137 320 137 364.5 140 c 128,-1,15
 409 143 409 143 451.5 143.5 c 128,-1,16
 494 144 494 144 539 143.5 c 128,-1,17
 584 143 584 143 641 143 c 1,18,19
 668 135 668 135 682 115 c 128,-1,20
 696 95 696 95 696 73.5 c 128,-1,21
 696 52 696 52 682 33.5 c 128,-1,22
 668 15 668 15 640 9 c 1,23,24
 571 9 571 9 511 8.5 c 128,-1,25
 451 8 451 8 393.5 6 c 128,-1,26
 336 4 336 4 278.5 1.5 c 128,-1,27
 221 -1 221 -1 157 -5 c 0,28,29
 137 -6 137 -6 117.5 7.5 c 128,-1,30
 98 21 98 21 85 40 c 128,-1,31
 72 59 72 59 67 78.5 c 128,-1,32
 62 98 62 98 71 109 c 0,33,34
 126 177 126 177 176 242 c 128,-1,35
 226 307 226 307 276 371 c 128,-1,36
 326 435 326 435 377 499.5 c 128,-1,37
 428 564 428 564 485 632 c 1,38,39
 406 630 406 630 318 629 c 128,-1,40
 230 628 230 628 118 626 c 1,41,42
 88 631 88 631 73.5 650.5 c 128,-1,43
 59 670 59 670 60 691.5 c 128,-1,44
 61 713 61 713 77 731.5 c 128,-1,45
 93 750 93 750 123 752 c 0,0,1
EndSplineSet
EndChar

StartChar: braceleft
Encoding: 123 123 94
Width: 426
VWidth: 2048
Flags: W
LayerCount: 2
Fore
SplineSet
33 396 m 0,0,1
 18 411 18 411 14 425 c 128,-1,2
 10 439 10 439 13.5 451.5 c 128,-1,3
 17 464 17 464 25 475.5 c 128,-1,4
 33 487 33 487 42 498 c 0,5,6
 52 509 52 509 64.5 516.5 c 128,-1,7
 77 524 77 524 88.5 530 c 128,-1,8
 100 536 100 536 109.5 542.5 c 128,-1,9
 119 549 119 549 122 559 c 0,10,11
 135 589 135 589 139.5 608 c 128,-1,12
 144 627 144 627 144.5 644 c 128,-1,13
 145 661 145 661 143 680.5 c 128,-1,14
 141 700 141 700 141 732 c 0,15,16
 140 778 140 778 140.5 834 c 128,-1,17
 141 890 141 890 148.5 946 c 128,-1,18
 156 1002 156 1002 173 1053 c 128,-1,19
 190 1104 190 1104 222 1141 c 0,20,21
 243 1165 243 1165 273 1177 c 128,-1,22
 303 1189 303 1189 332 1201 c 0,23,24
 362 1214 362 1214 384.5 1205 c 128,-1,25
 407 1196 407 1196 416.5 1177 c 128,-1,26
 426 1158 426 1158 419.5 1134 c 128,-1,27
 413 1110 413 1110 385 1094 c 1,28,29
 347 1089 347 1089 324 1060.5 c 128,-1,30
 301 1032 301 1032 288 993.5 c 128,-1,31
 275 955 275 955 269.5 914 c 128,-1,32
 264 873 264 873 261 843 c 0,33,34
 258 805 258 805 262 752.5 c 128,-1,35
 266 700 266 700 265 646.5 c 128,-1,36
 264 593 264 593 252.5 545 c 128,-1,37
 241 497 241 497 207 468 c 0,38,39
 197 459 197 459 185 454 c 128,-1,40
 173 449 173 449 160 444 c 1,41,42
 165 439 165 439 169.5 435.5 c 128,-1,43
 174 432 174 432 179 427 c 0,44,45
 197 410 197 410 208 371 c 128,-1,46
 219 332 219 332 225.5 287.5 c 128,-1,47
 232 243 232 243 235 201 c 128,-1,48
 238 159 238 159 240 137 c 0,49,50
 241 114 241 114 239.5 72 c 128,-1,51
 238 30 238 30 240.5 -14.5 c 128,-1,52
 243 -59 243 -59 253.5 -96.5 c 128,-1,53
 264 -134 264 -134 291 -147 c 0,54,55
 307 -155 307 -155 325 -156.5 c 128,-1,56
 343 -158 343 -158 360 -162 c 0,57,58
 391 -171 391 -171 403.5 -192.5 c 128,-1,59
 416 -214 416 -214 411.5 -235.5 c 128,-1,60
 407 -257 407 -257 387.5 -271 c 128,-1,61
 368 -285 368 -285 336 -279 c 0,62,63
 322 -276 322 -276 307 -274.5 c 128,-1,64
 292 -273 292 -273 277.5 -270 c 128,-1,65
 263 -267 263 -267 249.5 -262.5 c 128,-1,66
 236 -258 236 -258 224 -250 c 0,67,68
 177 -217 177 -217 156 -171.5 c 128,-1,69
 135 -126 135 -126 128 -75 c 128,-1,70
 121 -24 121 -24 122 29.5 c 128,-1,71
 123 83 123 83 120 132 c 0,72,73
 119 148 119 148 117.5 179 c 128,-1,74
 116 210 116 210 112.5 243 c 128,-1,75
 109 276 109 276 102.5 305.5 c 128,-1,76
 96 335 96 335 86 349 c 256,77,78
 76 363 76 363 61.5 373.5 c 128,-1,79
 47 384 47 384 33 396 c 0,0,1
EndSplineSet
EndChar

StartChar: bar
Encoding: 124 124 95
Width: 311
VWidth: 2048
Flags: W
LayerCount: 2
Fore
SplineSet
93 1092 m 1,0,1
 99 1120 99 1120 115 1134.5 c 128,-1,2
 131 1149 131 1149 150 1149.5 c 128,-1,3
 169 1150 169 1150 186.5 1137 c 128,-1,4
 204 1124 204 1124 212 1097 c 1,5,6
 212 970 212 970 210.5 823 c 128,-1,7
 209 676 209 676 207 525 c 128,-1,8
 205 374 205 374 203.5 227 c 128,-1,9
 202 80 202 80 201 -47 c 0,10,11
 199 -80 199 -80 182 -97 c 128,-1,12
 165 -114 165 -114 144 -114.5 c 128,-1,13
 123 -115 123 -115 104.5 -99.5 c 128,-1,14
 86 -84 86 -84 82 -52 c 1,15,16
 82 75 82 75 84 222 c 128,-1,17
 86 369 86 369 87.5 520 c 128,-1,18
 89 671 89 671 91 818 c 128,-1,19
 93 965 93 965 93 1092 c 1,0,1
EndSplineSet
EndChar

StartChar: braceright
Encoding: 125 125 96
Width: 460
VWidth: 2048
Flags: W
LayerCount: 2
Fore
SplineSet
419 396 m 0,0,1
 405 384 405 384 390.5 373.5 c 128,-1,2
 376 363 376 363 366 349 c 0,3,4
 355 335 355 335 349 305.5 c 128,-1,5
 343 276 343 276 339.5 243 c 128,-1,6
 336 210 336 210 334.5 179 c 128,-1,7
 333 148 333 148 332 132 c 0,8,9
 329 83 329 83 330 29.5 c 128,-1,10
 331 -24 331 -24 324 -75 c 128,-1,11
 317 -126 317 -126 296 -171.5 c 128,-1,12
 275 -217 275 -217 228 -250 c 0,13,14
 204 -267 204 -267 174 -270.5 c 128,-1,15
 144 -274 144 -274 116 -279 c 0,16,17
 84 -285 84 -285 64.5 -271 c 128,-1,18
 45 -257 45 -257 40.5 -235.5 c 128,-1,19
 36 -214 36 -214 48 -192.5 c 128,-1,20
 60 -171 60 -171 92 -162 c 0,21,22
 109 -158 109 -158 127 -156.5 c 128,-1,23
 145 -155 145 -155 161 -147 c 0,24,25
 188 -134 188 -134 198.5 -96.5 c 128,-1,26
 209 -59 209 -59 211.5 -14.5 c 128,-1,27
 214 30 214 30 212 72 c 128,-1,28
 210 114 210 114 212 137 c 0,29,30
 213 159 213 159 216.5 201 c 128,-1,31
 220 243 220 243 226.5 287.5 c 128,-1,32
 233 332 233 332 244 371 c 128,-1,33
 255 410 255 410 273 427 c 0,34,35
 278 432 278 432 282.5 435.5 c 128,-1,36
 287 439 287 439 292 444 c 1,37,38
 279 449 279 449 267 454 c 128,-1,39
 255 459 255 459 245 468 c 0,40,41
 211 497 211 497 199.5 545 c 128,-1,42
 188 593 188 593 187 646.5 c 128,-1,43
 186 700 186 700 190 752.5 c 128,-1,44
 194 805 194 805 191 843 c 0,45,46
 188 873 188 873 182.5 914 c 128,-1,47
 177 955 177 955 164 993.5 c 128,-1,48
 151 1032 151 1032 128 1060.5 c 128,-1,49
 105 1089 105 1089 67 1094 c 1,50,51
 39 1110 39 1110 32.5 1134 c 128,-1,52
 26 1158 26 1158 35.5 1177 c 128,-1,53
 45 1196 45 1196 67.5 1205 c 128,-1,54
 90 1214 90 1214 120 1201 c 0,55,56
 149 1189 149 1189 179 1177 c 128,-1,57
 209 1165 209 1165 230 1141 c 0,58,59
 262 1104 262 1104 279 1053 c 128,-1,60
 296 1002 296 1002 303.5 946 c 128,-1,61
 311 890 311 890 311.5 834 c 128,-1,62
 312 778 312 778 311 732 c 0,63,64
 311 700 311 700 309 680.5 c 128,-1,65
 307 661 307 661 307.5 644 c 128,-1,66
 308 627 308 627 312.5 608 c 128,-1,67
 317 589 317 589 330 559 c 0,68,69
 333 549 333 549 342.5 542.5 c 128,-1,70
 352 536 352 536 363.5 530 c 128,-1,71
 375 524 375 524 387.5 516.5 c 128,-1,72
 400 509 400 509 410 498 c 0,73,74
 419 487 419 487 427 475.5 c 128,-1,75
 435 464 435 464 438.5 451.5 c 128,-1,76
 442 439 442 439 438 425 c 128,-1,77
 434 411 434 411 419 396 c 0,0,1
EndSplineSet
EndChar

StartChar: asciitilde
Encoding: 126 126 97
Width: 914
VWidth: 2048
Flags: W
LayerCount: 2
Fore
SplineSet
157 489 m 0,0,1
 137 464 137 464 112.5 459 c 128,-1,2
 88 454 88 454 69 464 c 128,-1,3
 50 474 50 474 40.5 497 c 128,-1,4
 31 520 31 520 40 552 c 0,5,6
 54 601 54 601 74 640 c 128,-1,7
 94 679 94 679 125.5 705 c 128,-1,8
 157 731 157 731 202.5 742.5 c 128,-1,9
 248 754 248 754 311 750 c 0,10,11
 336 748 336 748 360.5 736 c 128,-1,12
 385 724 385 724 409.5 706.5 c 128,-1,13
 434 689 434 689 459 669 c 128,-1,14
 484 649 484 649 509 632.5 c 128,-1,15
 534 616 534 616 560 605.5 c 128,-1,16
 586 595 586 595 613 596 c 0,17,18
 673 598 673 598 708 628 c 128,-1,19
 743 658 743 658 747 712 c 0,20,21
 753 744 753 744 773 758 c 128,-1,22
 793 772 793 772 814 769.5 c 128,-1,23
 835 767 835 767 851 748.5 c 128,-1,24
 867 730 867 730 865 697 c 0,25,26
 862 649 862 649 841.5 606.5 c 128,-1,27
 821 564 821 564 787 532 c 128,-1,28
 753 500 753 500 709 480.5 c 128,-1,29
 665 461 665 461 616 459 c 0,30,31
 590 458 590 458 558 472 c 128,-1,32
 526 486 526 486 491.5 507 c 128,-1,33
 457 528 457 528 422 551.5 c 128,-1,34
 387 575 387 575 355 593.5 c 128,-1,35
 323 612 323 612 296 621 c 128,-1,36
 269 630 269 630 250 623 c 0,37,38
 227 614 227 614 214 599 c 128,-1,39
 201 584 201 584 192 565.5 c 128,-1,40
 183 547 183 547 175.5 527 c 128,-1,41
 168 507 168 507 157 489 c 0,0,1
EndSplineSet
EndChar

StartChar: thothannobasethai
Encoding: 128 128 98
AltUni2: 00f700.ffffffff.0 0020ac.ffffffff.0
Width: 823
VWidth: 2048
Flags: W
LayerCount: 2
Fore
SplineSet
695 80 m 0,0,1
 688 51 688 51 669.5 30 c 128,-1,2
 651 9 651 9 628.5 0.5 c 128,-1,3
 606 -8 606 -8 582.5 -1.5 c 128,-1,4
 559 5 559 5 543 32 c 0,5,6
 523 77 523 77 510 121 c 128,-1,7
 497 165 497 165 482 209 c 1,8,9
 444 190 444 190 402 192.5 c 128,-1,10
 360 195 360 195 322 213 c 128,-1,11
 284 231 284 231 254 260.5 c 128,-1,12
 224 290 224 290 211 325.5 c 128,-1,13
 198 361 198 361 205 399 c 128,-1,14
 212 437 212 437 249 471 c 1,15,16
 226 466 226 466 198.5 459.5 c 128,-1,17
 171 453 171 453 146 449 c 128,-1,18
 121 445 121 445 101 446.5 c 128,-1,19
 81 448 81 448 72 459 c 0,20,21
 48 490 48 490 46 525 c 128,-1,22
 44 560 44 560 58 595 c 128,-1,23
 72 630 72 630 98 662 c 128,-1,24
 124 694 124 694 155.5 718.5 c 128,-1,25
 187 743 187 743 220 758.5 c 128,-1,26
 253 774 253 774 281 775 c 0,27,28
 310 776 310 776 344.5 767.5 c 128,-1,29
 379 759 379 759 413.5 748.5 c 128,-1,30
 448 738 448 738 481.5 730 c 128,-1,31
 515 722 515 722 543 726 c 0,32,33
 561 729 561 729 572.5 731.5 c 128,-1,34
 584 734 584 734 593 739 c 128,-1,35
 602 744 602 744 611 752 c 128,-1,36
 620 760 620 760 632 773 c 1,37,38
 673 788 673 788 697 787 c 128,-1,39
 721 786 721 786 732 774.5 c 128,-1,40
 743 763 743 763 743 744.5 c 128,-1,41
 743 726 743 726 735.5 706.5 c 128,-1,42
 728 687 728 687 715.5 670.5 c 128,-1,43
 703 654 703 654 690 646 c 0,44,45
 680 640 680 640 665 634.5 c 128,-1,46
 650 629 650 629 633.5 624 c 128,-1,47
 617 619 617 619 600.5 615 c 128,-1,48
 584 611 584 611 571 609 c 1,49,50
 616 587 616 587 644.5 552 c 128,-1,51
 673 517 673 517 689 473.5 c 128,-1,52
 705 430 705 430 710.5 381 c 128,-1,53
 716 332 716 332 714.5 280.5 c 128,-1,54
 713 229 713 229 707.5 178 c 128,-1,55
 702 127 702 127 695 80 c 0,0,1
413 508 m 1,56,57
 446 497 446 497 471.5 462.5 c 128,-1,58
 497 428 497 428 518 386.5 c 128,-1,59
 539 345 539 345 557 305 c 128,-1,60
 575 265 575 265 593 243 c 1,61,62
 593 272 593 272 591.5 307 c 128,-1,63
 590 342 590 342 586.5 375.5 c 128,-1,64
 583 409 583 409 576 436.5 c 128,-1,65
 569 464 569 464 558 479 c 0,66,67
 546 495 546 495 529 503 c 128,-1,68
 512 511 512 511 492.5 513 c 128,-1,69
 473 515 473 515 453 513 c 128,-1,70
 433 511 433 511 415 508 c 2,71,-1
 413 508 l 1,56,57
189 583 m 1,72,73
 248 594 248 594 306.5 609.5 c 128,-1,74
 365 625 365 625 425 630 c 1,75,76
 383 646 383 646 345.5 659.5 c 128,-1,77
 308 673 308 673 281 668 c 0,78,79
 263 665 263 665 249 655.5 c 128,-1,80
 235 646 235 646 224 634 c 128,-1,81
 213 622 213 622 204.5 608.5 c 128,-1,82
 196 595 196 595 189 583 c 1,72,73
437 334 m 1,83,84
 433 394 433 394 406.5 408.5 c 128,-1,85
 380 423 380 423 350 401 c 0,86,87
 336 391 336 391 334 374 c 128,-1,88
 332 357 332 357 342.5 343.5 c 128,-1,89
 353 330 353 330 376.5 325 c 128,-1,90
 400 320 400 320 437 334 c 1,83,84
EndSplineSet
EndChar

StartChar: saraileftthai
Encoding: 129 129 99
AltUni2: 00f701.ffffffff.0
Width: 0
VWidth: 2048
Flags: W
LayerCount: 2
Fore
SplineSet
-388 830 m 1,0,1
 -457 846 -457 846 -513 848.5 c 128,-1,2
 -569 851 -569 851 -622.5 846.5 c 128,-1,3
 -676 842 -676 842 -732.5 836 c 128,-1,4
 -789 830 -789 830 -859 830 c 1,5,6
 -879 834 -879 834 -890.5 848 c 128,-1,7
 -902 862 -902 862 -905 882 c 128,-1,8
 -908 902 -908 902 -902.5 927 c 128,-1,9
 -897 952 -897 952 -884 978 c 1,10,11
 -837 1037 -837 1037 -797 1074.5 c 128,-1,12
 -757 1112 -757 1112 -711.5 1126 c 128,-1,13
 -666 1140 -666 1140 -609 1131 c 128,-1,14
 -552 1122 -552 1122 -469 1089 c 0,15,16
 -441 1077 -441 1077 -413 1055 c 128,-1,17
 -385 1033 -385 1033 -363 1006 c 128,-1,18
 -341 979 -341 979 -328 950 c 128,-1,19
 -315 921 -315 921 -315.5 896 c 128,-1,20
 -316 871 -316 871 -333 853 c 128,-1,21
 -350 835 -350 835 -388 830 c 1,0,1
-460 941 m 1,22,23
 -466 947 -466 947 -477.5 958.5 c 128,-1,24
 -489 970 -489 970 -502 982 c 128,-1,25
 -515 994 -515 994 -528.5 1004.5 c 128,-1,26
 -542 1015 -542 1015 -554 1020 c 0,27,28
 -597 1038 -597 1038 -625 1040 c 128,-1,29
 -653 1042 -653 1042 -675 1031.5 c 128,-1,30
 -697 1021 -697 1021 -717 998 c 128,-1,31
 -737 975 -737 975 -764 944 c 1,32,33
 -720 945 -720 945 -685 946 c 128,-1,34
 -650 947 -650 947 -616 947 c 128,-1,35
 -582 947 -582 947 -545 946 c 128,-1,36
 -508 945 -508 945 -460 941 c 1,22,23
EndSplineSet
EndChar

StartChar: saraiileftthai
Encoding: 130 130 100
AltUni2: 00f702.ffffffff.0 00201a.ffffffff.0
Width: 0
VWidth: 2048
Flags: W
LayerCount: 2
Fore
SplineSet
-289 912 m 0,0,1
 -290 891 -290 891 -301 874 c 128,-1,2
 -312 857 -312 857 -328.5 848.5 c 128,-1,3
 -345 840 -345 840 -364 841.5 c 128,-1,4
 -383 843 -383 843 -401 860 c 1,5,6
 -426 870 -426 870 -462.5 876 c 128,-1,7
 -499 882 -499 882 -541 885 c 128,-1,8
 -583 888 -583 888 -628.5 889 c 128,-1,9
 -674 890 -674 890 -715 889.5 c 128,-1,10
 -756 889 -756 889 -791 887.5 c 128,-1,11
 -826 886 -826 886 -847 885 c 0,12,13
 -878 879 -878 879 -894.5 885 c 128,-1,14
 -911 891 -911 891 -916.5 905 c 128,-1,15
 -922 919 -922 919 -919 938 c 128,-1,16
 -916 957 -916 957 -907.5 978 c 128,-1,17
 -899 999 -899 999 -887 1018.5 c 128,-1,18
 -875 1038 -875 1038 -864 1052 c 0,19,20
 -818 1110 -818 1110 -757.5 1141.5 c 128,-1,21
 -697 1173 -697 1173 -633 1171 c 128,-1,22
 -569 1169 -569 1169 -508 1129 c 128,-1,23
 -447 1089 -447 1089 -400 1005 c 1,24,-1
 -396 1119 l 1,25,26
 -390 1147 -390 1147 -370.5 1160.5 c 128,-1,27
 -351 1174 -351 1174 -330 1174.5 c 128,-1,28
 -309 1175 -309 1175 -292.5 1162 c 128,-1,29
 -276 1149 -276 1149 -277 1124 c 0,30,31
 -277 1094 -277 1094 -279 1068.5 c 128,-1,32
 -281 1043 -281 1043 -283 1018.5 c 128,-1,33
 -285 994 -285 994 -287 968.5 c 128,-1,34
 -289 943 -289 943 -289 912 c 0,0,1
-735 1009 m 0,35,36
 -747 994 -747 994 -740 988 c 128,-1,37
 -733 982 -733 982 -713.5 981.5 c 128,-1,38
 -694 981 -694 981 -664 983.5 c 128,-1,39
 -634 986 -634 986 -600.5 988 c 128,-1,40
 -567 990 -567 990 -533 988.5 c 128,-1,41
 -499 987 -499 987 -471 978 c 1,42,43
 -477 986 -477 986 -485.5 998 c 128,-1,44
 -494 1010 -494 1010 -503.5 1021.5 c 128,-1,45
 -513 1033 -513 1033 -523 1043.5 c 128,-1,46
 -533 1054 -533 1054 -543 1059 c 0,47,48
 -581 1079 -581 1079 -609.5 1082 c 128,-1,49
 -638 1085 -638 1085 -660 1076.5 c 128,-1,50
 -682 1068 -682 1068 -699.5 1049.5 c 128,-1,51
 -717 1031 -717 1031 -735 1009 c 0,35,36
EndSplineSet
EndChar

StartChar: saraueleftthai
Encoding: 131 131 101
AltUni2: 00f703.ffffffff.0 000192.ffffffff.0
Width: 0
VWidth: 2048
Flags: W
LayerCount: 2
Fore
SplineSet
-875 875 m 1,0,1
 -891 913 -891 913 -879 958.5 c 128,-1,2
 -867 1004 -867 1004 -836 1045 c 128,-1,3
 -805 1086 -805 1086 -760 1117 c 128,-1,4
 -715 1148 -715 1148 -664 1158 c 0,5,6
 -615 1167 -615 1167 -576.5 1153.5 c 128,-1,7
 -538 1140 -538 1140 -494 1115 c 1,8,9
 -491 1139 -491 1139 -476 1155.5 c 128,-1,10
 -461 1172 -461 1172 -439.5 1182 c 128,-1,11
 -418 1192 -418 1192 -392.5 1194.5 c 128,-1,12
 -367 1197 -367 1197 -342.5 1193 c 128,-1,13
 -318 1189 -318 1189 -297 1178.5 c 128,-1,14
 -276 1168 -276 1168 -264 1151 c 0,15,16
 -243 1122 -243 1122 -241 1088.5 c 128,-1,17
 -239 1055 -239 1055 -251 1024.5 c 128,-1,18
 -263 994 -263 994 -287 969.5 c 128,-1,19
 -311 945 -311 945 -342 933 c 1,20,21
 -339 925 -339 925 -338.5 909 c 128,-1,22
 -338 893 -338 893 -340 882 c 1,23,24
 -367 877 -367 877 -410.5 874 c 128,-1,25
 -454 871 -454 871 -505.5 869.5 c 128,-1,26
 -557 868 -557 868 -612.5 868 c 128,-1,27
 -668 868 -668 868 -718.5 869 c 128,-1,28
 -769 870 -769 870 -810.5 871.5 c 128,-1,29
 -852 873 -852 873 -875 875 c 1,0,1
-763 973 m 1,30,31
 -724 973 -724 973 -691 973.5 c 128,-1,32
 -658 974 -658 974 -626.5 976 c 128,-1,33
 -595 978 -595 978 -562 981 c 128,-1,34
 -529 984 -529 984 -490 988 c 1,35,36
 -532 1020 -532 1020 -566.5 1038 c 128,-1,37
 -601 1056 -601 1056 -633 1056.5 c 128,-1,38
 -665 1057 -665 1057 -696.5 1037 c 128,-1,39
 -728 1017 -728 1017 -763 973 c 1,30,31
-405 1069 m 1,40,41
 -409 1057 -409 1057 -394 1045.5 c 128,-1,42
 -379 1034 -379 1034 -359.5 1032.5 c 128,-1,43
 -340 1031 -340 1031 -323.5 1043.5 c 128,-1,44
 -307 1056 -307 1056 -308 1090 c 1,45,46
 -317 1106 -317 1106 -333.5 1111 c 128,-1,47
 -350 1116 -350 1116 -366.5 1112 c 128,-1,48
 -383 1108 -383 1108 -394.5 1096.5 c 128,-1,49
 -406 1085 -406 1085 -405 1069 c 1,40,41
EndSplineSet
EndChar

StartChar: saraueeleftthai
Encoding: 132 132 102
AltUni2: 00f704.ffffffff.0 00201e.ffffffff.0
Width: 0
VWidth: 2048
Flags: W
LayerCount: 2
Fore
SplineSet
-553 1154 m 0,0,1
 -547 1176 -547 1176 -529 1184 c 128,-1,2
 -511 1192 -511 1192 -491.5 1190.5 c 128,-1,3
 -472 1189 -472 1189 -456 1180.5 c 128,-1,4
 -440 1172 -440 1172 -438 1163 c 0,5,6
 -438 1140 -438 1140 -435.5 1123.5 c 128,-1,7
 -433 1107 -433 1107 -435 1084 c 1,8,9
 -423 1074 -423 1074 -416 1062.5 c 128,-1,10
 -409 1051 -409 1051 -398 1038 c 1,11,12
 -398 1061 -398 1061 -397 1089.5 c 128,-1,13
 -396 1118 -396 1118 -396 1141 c 0,14,15
 -397 1160 -397 1160 -380.5 1172 c 128,-1,16
 -364 1184 -364 1184 -344.5 1186 c 128,-1,17
 -325 1188 -325 1188 -308.5 1179 c 128,-1,18
 -292 1170 -292 1170 -292 1148 c 2,19,-1
 -292 928 l 2,20,21
 -293 907 -293 907 -298 896 c 128,-1,22
 -303 885 -303 885 -311 880.5 c 128,-1,23
 -319 876 -319 876 -330 875 c 128,-1,24
 -341 874 -341 874 -353 873 c 0,25,26
 -385 867 -385 867 -430.5 862.5 c 128,-1,27
 -476 858 -476 858 -527 855 c 128,-1,28
 -578 852 -578 852 -629.5 851 c 128,-1,29
 -681 850 -681 850 -724 850 c 128,-1,30
 -767 850 -767 850 -796.5 851.5 c 128,-1,31
 -826 853 -826 853 -834 856 c 0,32,33
 -850 861 -850 861 -858 868 c 128,-1,34
 -866 875 -866 875 -869 882.5 c 128,-1,35
 -872 890 -872 890 -872 898.5 c 128,-1,36
 -872 907 -872 907 -872 916 c 0,37,38
 -871 976 -871 976 -848 1022.5 c 128,-1,39
 -825 1069 -825 1069 -783 1097.5 c 128,-1,40
 -741 1126 -741 1126 -682.5 1134 c 128,-1,41
 -624 1142 -624 1142 -552 1126 c 1,42,43
 -553 1133 -553 1133 -553 1139.5 c 128,-1,44
 -553 1146 -553 1146 -553 1154 c 0,0,1
-745 948 m 1,45,46
 -707 948 -707 948 -678.5 947.5 c 128,-1,47
 -650 947 -650 947 -621.5 948 c 128,-1,48
 -593 949 -593 949 -559.5 951 c 128,-1,49
 -526 953 -526 953 -478 959 c 1,50,51
 -481 990 -481 990 -499.5 1011 c 128,-1,52
 -518 1032 -518 1032 -544.5 1042.5 c 128,-1,53
 -571 1053 -571 1053 -602 1052.5 c 128,-1,54
 -633 1052 -633 1052 -661.5 1040.5 c 128,-1,55
 -690 1029 -690 1029 -713 1006 c 128,-1,56
 -736 983 -736 983 -745 948 c 1,45,46
EndSplineSet
EndChar

StartChar: ellipsis
Encoding: 133 133 103
AltUni2: 002026.ffffffff.0
Width: 1040
VWidth: 2048
Flags: W
LayerCount: 2
Fore
SplineSet
60 126 m 0,0,1
 74 148 74 148 92.5 161 c 128,-1,2
 111 174 111 174 130.5 177.5 c 128,-1,3
 150 181 150 181 168.5 173.5 c 128,-1,4
 187 166 187 166 201 147 c 0,5,6
 235 99 235 99 229.5 66 c 128,-1,7
 224 33 224 33 198.5 14.5 c 128,-1,8
 173 -4 173 -4 137.5 -6.5 c 128,-1,9
 102 -9 102 -9 75 4.5 c 128,-1,10
 48 18 48 18 39.5 48 c 128,-1,11
 31 78 31 78 60 126 c 0,0,1
812 126 m 0,12,13
 826 148 826 148 844.5 161 c 128,-1,14
 863 174 863 174 882.5 177.5 c 128,-1,15
 902 181 902 181 920.5 173.5 c 128,-1,16
 939 166 939 166 953 147 c 0,17,18
 987 99 987 99 981.5 66 c 128,-1,19
 976 33 976 33 950.5 14.5 c 128,-1,20
 925 -4 925 -4 889.5 -6.5 c 128,-1,21
 854 -9 854 -9 827 4.5 c 128,-1,22
 800 18 800 18 791.5 48 c 128,-1,23
 783 78 783 78 812 126 c 0,12,13
440 126 m 0,24,25
 454 148 454 148 472.5 161 c 128,-1,26
 491 174 491 174 510.5 177.5 c 128,-1,27
 530 181 530 181 548.5 173.5 c 128,-1,28
 567 166 567 166 581 147 c 0,29,30
 615 99 615 99 609.5 66 c 128,-1,31
 604 33 604 33 578.5 14.5 c 128,-1,32
 553 -4 553 -4 517.5 -6.5 c 128,-1,33
 482 -9 482 -9 455 4.5 c 128,-1,34
 428 18 428 18 419.5 48 c 128,-1,35
 411 78 411 78 440 126 c 0,24,25
EndSplineSet
EndChar

StartChar: maieklowleftthai
Encoding: 134 134 104
AltUni2: 00f705.ffffffff.0 002020.ffffffff.0
Width: 0
VWidth: 2048
Flags: W
LayerCount: 2
Fore
SplineSet
-515 1077 m 0,0,1
 -519 1109 -519 1109 -501.5 1127 c 128,-1,2
 -484 1145 -484 1145 -460 1147.5 c 128,-1,3
 -436 1150 -436 1150 -412 1136 c 128,-1,4
 -388 1122 -388 1122 -379 1091 c 0,5,6
 -374 1065 -374 1065 -372 1049.5 c 128,-1,7
 -370 1034 -370 1034 -369.5 1020 c 128,-1,8
 -369 1006 -369 1006 -369.5 990 c 128,-1,9
 -370 974 -370 974 -370 948 c 0,10,11
 -372 915 -372 915 -390 897.5 c 128,-1,12
 -408 880 -408 880 -430.5 878 c 128,-1,13
 -453 876 -453 876 -472.5 890.5 c 128,-1,14
 -492 905 -492 905 -496 937 c 0,15,16
 -496 961 -496 961 -497.5 977 c 128,-1,17
 -499 993 -499 993 -501 1007.5 c 128,-1,18
 -503 1022 -503 1022 -507 1038 c 128,-1,19
 -511 1054 -511 1054 -515 1077 c 0,0,1
EndSplineSet
Substitution2: "Single Substitution lookup 44 subtable" maiekupperleftthai
EndChar

StartChar: maitholowleftthai
Encoding: 135 135 105
AltUni2: 00f706.ffffffff.0 002021.ffffffff.0
Width: 0
VWidth: 2048
Flags: W
LayerCount: 2
Fore
SplineSet
-710 938 m 0,0,1
 -682 937 -682 937 -665 937.5 c 128,-1,2
 -648 938 -648 938 -630 951 c 1,3,4
 -639 951 -639 951 -651.5 952 c 128,-1,5
 -664 953 -664 953 -676 956 c 128,-1,6
 -688 959 -688 959 -698.5 964 c 128,-1,7
 -709 969 -709 969 -713 977 c 0,8,9
 -737 1017 -737 1017 -734.5 1051.5 c 128,-1,10
 -732 1086 -732 1086 -715.5 1110.5 c 128,-1,11
 -699 1135 -699 1135 -674.5 1148.5 c 128,-1,12
 -650 1162 -650 1162 -630 1162 c 0,13,14
 -591 1161 -591 1161 -561 1154.5 c 128,-1,15
 -531 1148 -531 1148 -512 1132 c 128,-1,16
 -493 1116 -493 1116 -485 1088 c 128,-1,17
 -477 1060 -477 1060 -481 1017 c 0,18,19
 -483 994 -483 994 -495 977 c 128,-1,20
 -507 960 -507 960 -526 948 c 1,21,22
 -491 958 -491 958 -472.5 969.5 c 128,-1,23
 -454 981 -454 981 -439.5 996.5 c 128,-1,24
 -425 1012 -425 1012 -410 1033.5 c 128,-1,25
 -395 1055 -395 1055 -367 1085 c 0,26,27
 -342 1106 -342 1106 -318 1101 c 128,-1,28
 -294 1096 -294 1096 -278 1079 c 128,-1,29
 -262 1062 -262 1062 -257 1038.5 c 128,-1,30
 -252 1015 -252 1015 -263 998 c 0,31,32
 -293 957 -293 957 -339.5 920 c 128,-1,33
 -386 883 -386 883 -445 860 c 128,-1,34
 -504 837 -504 837 -574 832.5 c 128,-1,35
 -644 828 -644 828 -720 851 c 1,36,37
 -739 863 -739 863 -748.5 877 c 128,-1,38
 -758 891 -758 891 -757 903.5 c 128,-1,39
 -756 916 -756 916 -744.5 925.5 c 128,-1,40
 -733 935 -733 935 -710 938 c 0,0,1
-654 1050 m 0,41,42
 -656 1030 -656 1030 -642.5 1021.5 c 128,-1,43
 -629 1013 -629 1013 -612.5 1013 c 128,-1,44
 -596 1013 -596 1013 -582 1020.5 c 128,-1,45
 -568 1028 -568 1028 -568 1040 c 0,46,47
 -564 1064 -564 1064 -575.5 1076.5 c 128,-1,48
 -587 1089 -587 1089 -603 1090.5 c 128,-1,49
 -619 1092 -619 1092 -634.5 1082 c 128,-1,50
 -650 1072 -650 1072 -654 1050 c 0,41,42
EndSplineSet
Substitution2: "Single Substitution lookup 44 subtable" maithoupperleftthai
EndChar

StartChar: maitrilowleftthai
Encoding: 136 136 106
AltUni2: 00f707.ffffffff.0 0002c6.ffffffff.0
Width: 0
VWidth: 2048
Flags: W
LayerCount: 2
Fore
SplineSet
-305 951 m 0,0,1
 -321 911 -321 911 -348.5 884 c 128,-1,2
 -376 857 -376 857 -407.5 849 c 128,-1,3
 -439 841 -439 841 -470.5 854.5 c 128,-1,4
 -502 868 -502 868 -525 909 c 1,5,6
 -526 895 -526 895 -541.5 883.5 c 128,-1,7
 -557 872 -557 872 -575 872.5 c 128,-1,8
 -593 873 -593 873 -606 891.5 c 128,-1,9
 -619 910 -619 910 -616 956 c 1,10,11
 -624 928 -624 928 -637 903 c 128,-1,12
 -650 878 -650 878 -668 861.5 c 128,-1,13
 -686 845 -686 845 -708.5 839.5 c 128,-1,14
 -731 834 -731 834 -756 844 c 0,15,16
 -810 866 -810 866 -832 900.5 c 128,-1,17
 -854 935 -854 935 -851 972.5 c 128,-1,18
 -848 1010 -848 1010 -823.5 1046 c 128,-1,19
 -799 1082 -799 1082 -760 1106 c 0,20,21
 -745 1115 -745 1115 -725.5 1120 c 128,-1,22
 -706 1125 -706 1125 -683 1120.5 c 128,-1,23
 -660 1116 -660 1116 -635 1099 c 128,-1,24
 -610 1082 -610 1082 -584 1049 c 1,25,26
 -583 1106 -583 1106 -555 1123 c 128,-1,27
 -527 1140 -527 1140 -482 1111 c 0,28,29
 -464 1100 -464 1100 -455 1089 c 128,-1,30
 -446 1078 -446 1078 -442.5 1065.5 c 128,-1,31
 -439 1053 -439 1053 -439 1038 c 128,-1,32
 -439 1023 -439 1023 -439 1004 c 0,33,34
 -439 998 -439 998 -438.5 989.5 c 128,-1,35
 -438 981 -438 981 -439 975 c 1,36,37
 -417 971 -417 971 -407 980 c 128,-1,38
 -397 989 -397 989 -395 1006 c 128,-1,39
 -393 1023 -393 1023 -395 1044.5 c 128,-1,40
 -397 1066 -397 1066 -399 1087 c 128,-1,41
 -401 1108 -401 1108 -400 1126 c 128,-1,42
 -399 1144 -399 1144 -389 1153 c 1,43,44
 -358 1167 -358 1167 -338.5 1161 c 128,-1,45
 -319 1155 -319 1155 -308 1136 c 128,-1,46
 -297 1117 -297 1117 -293.5 1090 c 128,-1,47
 -290 1063 -290 1063 -291 1035.5 c 128,-1,48
 -292 1008 -292 1008 -296 985 c 128,-1,49
 -300 962 -300 962 -305 951 c 0,0,1
-691 987 m 1,50,51
 -703 999 -703 999 -715 999.5 c 128,-1,52
 -727 1000 -727 1000 -735.5 992.5 c 128,-1,53
 -744 985 -744 985 -748 971.5 c 128,-1,54
 -752 958 -752 958 -749 942 c 0,55,56
 -744 919 -744 919 -729.5 915 c 128,-1,57
 -715 911 -715 911 -702.5 919.5 c 128,-1,58
 -690 928 -690 928 -684.5 946 c 128,-1,59
 -679 964 -679 964 -691 987 c 1,50,51
EndSplineSet
Substitution2: "Single Substitution lookup 44 subtable" maitriupperleftthai
EndChar

StartChar: maichattawalowleftthai
Encoding: 137 137 107
AltUni2: 00f708.ffffffff.0 002030.ffffffff.0
Width: 0
VWidth: 2048
Flags: W
LayerCount: 2
Fore
SplineSet
-572 932 m 1,0,1
 -600 936 -600 936 -616 951 c 128,-1,2
 -632 966 -632 966 -634.5 984.5 c 128,-1,3
 -637 1003 -637 1003 -625.5 1021.5 c 128,-1,4
 -614 1040 -614 1040 -587 1050 c 0,5,6
 -570 1053 -570 1053 -564 1055 c 128,-1,7
 -558 1057 -558 1057 -554 1057.5 c 128,-1,8
 -550 1058 -550 1058 -544 1057.5 c 128,-1,9
 -538 1057 -538 1057 -521 1056 c 1,10,11
 -522 1071 -522 1071 -522 1086.5 c 128,-1,12
 -522 1102 -522 1102 -522 1117 c 0,13,14
 -516 1145 -516 1145 -500 1159.5 c 128,-1,15
 -484 1174 -484 1174 -465 1174.5 c 128,-1,16
 -446 1175 -446 1175 -428.5 1162 c 128,-1,17
 -411 1149 -411 1149 -403 1122 c 1,18,19
 -403 1104 -403 1104 -402.5 1086 c 128,-1,20
 -402 1068 -402 1068 -402 1051 c 1,21,22
 -390 1051 -390 1051 -382.5 1050 c 128,-1,23
 -375 1049 -375 1049 -368 1048.5 c 128,-1,24
 -361 1048 -361 1048 -353.5 1047.5 c 128,-1,25
 -346 1047 -346 1047 -335 1047 c 0,26,27
 -308 1039 -308 1039 -295 1021.5 c 128,-1,28
 -282 1004 -282 1004 -282.5 985 c 128,-1,29
 -283 966 -283 966 -297.5 950 c 128,-1,30
 -312 934 -312 934 -340 928 c 0,31,32
 -351 928 -351 928 -358 928.5 c 128,-1,33
 -365 929 -365 929 -371 929.5 c 128,-1,34
 -377 930 -377 930 -383.5 930.5 c 128,-1,35
 -390 931 -390 931 -401 931 c 1,36,37
 -402 920 -402 920 -403 898.5 c 128,-1,38
 -404 877 -404 877 -405 866 c 0,39,40
 -415 839 -415 839 -433.5 827.5 c 128,-1,41
 -452 816 -452 816 -470.5 818.5 c 128,-1,42
 -489 821 -489 821 -504 837 c 128,-1,43
 -519 853 -519 853 -523 881 c 0,44,45
 -522 889 -522 889 -521.5 908.5 c 128,-1,46
 -521 928 -521 928 -520 936 c 1,47,48
 -535 937 -535 937 -539 937.5 c 128,-1,49
 -543 938 -543 938 -545.5 937.5 c 128,-1,50
 -548 937 -548 937 -552.5 936 c 128,-1,51
 -557 935 -557 935 -572 932 c 1,0,1
EndSplineSet
Substitution2: "Single Substitution lookup 44 subtable" maichattawaupperleftthai
EndChar

StartChar: thanthakhatlowleftthai
Encoding: 138 138 108
AltUni2: 00f709.ffffffff.0 000160.ffffffff.0
Width: 0
VWidth: 2048
Flags: W
LayerCount: 2
Fore
SplineSet
-235 1193 m 0,0,1
 -244 1129 -244 1129 -273 1087 c 128,-1,2
 -302 1045 -302 1045 -371 1031 c 1,3,4
 -336 990 -336 990 -331.5 954 c 128,-1,5
 -327 918 -327 918 -343 888.5 c 128,-1,6
 -359 859 -359 859 -390 839 c 128,-1,7
 -421 819 -421 819 -458 810 c 128,-1,8
 -495 801 -495 801 -533 806 c 128,-1,9
 -571 811 -571 811 -600 832 c 128,-1,10
 -629 853 -629 853 -644 892 c 128,-1,11
 -659 931 -659 931 -650 991 c 0,12,13
 -643 1037 -643 1037 -623 1062 c 128,-1,14
 -603 1087 -603 1087 -575.5 1100.5 c 128,-1,15
 -548 1114 -548 1114 -516 1120.5 c 128,-1,16
 -484 1127 -484 1127 -453.5 1135.5 c 128,-1,17
 -423 1144 -423 1144 -396.5 1159.5 c 128,-1,18
 -370 1175 -370 1175 -354 1206 c 1,19,20
 -348 1238 -348 1238 -327.5 1252.5 c 128,-1,21
 -307 1267 -307 1267 -286 1264.5 c 128,-1,22
 -265 1262 -265 1262 -249 1244 c 128,-1,23
 -233 1226 -233 1226 -235 1193 c 0,0,1
-503 996 m 0,24,25
 -530 981 -530 981 -531 961.5 c 128,-1,26
 -532 942 -532 942 -519 927.5 c 128,-1,27
 -506 913 -506 913 -485 910 c 128,-1,28
 -464 907 -464 907 -446 925 c 0,29,30
 -441 930 -441 930 -440.5 945.5 c 128,-1,31
 -440 961 -440 961 -446.5 975.5 c 128,-1,32
 -453 990 -453 990 -466.5 998 c 128,-1,33
 -480 1006 -480 1006 -503 996 c 0,24,25
EndSplineSet
Substitution2: "Single Substitution lookup 44 subtable" thanthakhatupperleftthai
EndChar

StartChar: maieklowrightthai
Encoding: 139 139 109
AltUni2: 00f70a.ffffffff.0 002039.ffffffff.0
Width: 0
VWidth: 2048
Flags: W
LayerCount: 2
Fore
SplineSet
-252 1063 m 0,0,1
 -256 1095 -256 1095 -238.5 1113 c 128,-1,2
 -221 1131 -221 1131 -197 1133.5 c 128,-1,3
 -173 1136 -173 1136 -149 1122 c 128,-1,4
 -125 1108 -125 1108 -116 1077 c 0,5,6
 -111 1051 -111 1051 -109 1035.5 c 128,-1,7
 -107 1020 -107 1020 -106.5 1006 c 128,-1,8
 -106 992 -106 992 -106.5 976 c 128,-1,9
 -107 960 -107 960 -107 934 c 0,10,11
 -109 901 -109 901 -127 883.5 c 128,-1,12
 -145 866 -145 866 -167.5 864 c 128,-1,13
 -190 862 -190 862 -209.5 876.5 c 128,-1,14
 -229 891 -229 891 -233 923 c 0,15,16
 -233 947 -233 947 -234.5 963 c 128,-1,17
 -236 979 -236 979 -238 993.5 c 128,-1,18
 -240 1008 -240 1008 -244 1024 c 128,-1,19
 -248 1040 -248 1040 -252 1063 c 0,0,1
EndSplineSet
Ligature2: "Ligature Substitution lookup 46 subtable" maitaikhuthai maiekthai maiekthai
Ligature2: "Ligature Substitution lookup 45 subtable" yamakkanthai maiekthai
Ligature2: "Ligature Substitution lookup 45 subtable" maitaikhuthai maiekthai
Ligature2: "Ligature Substitution lookup 45 subtable" maitaikhuthai thanthakhatlowrightthai maiekthai
Ligature2: "Ligature Substitution lookup 45 subtable" maitaikhuthai maichattawalowrightthai maiekthai
Ligature2: "Ligature Substitution lookup 45 subtable" maitaikhuthai maitrilowrightthai maiekthai
Ligature2: "Ligature Substitution lookup 45 subtable" maitaikhuthai maitholowrightthai maiekthai
Ligature2: "Ligature Substitution lookup 45 subtable" maitaikhuthai maieklowrightthai maiekthai
Ligature2: "Ligature Substitution lookup 45 subtable" thanthakhatlowrightthai maiekthai
Ligature2: "Ligature Substitution lookup 45 subtable" maichattawalowrightthai maiekthai
Ligature2: "Ligature Substitution lookup 45 subtable" maitrilowrightthai maiekthai
Ligature2: "Ligature Substitution lookup 45 subtable" maitholowrightthai maiekthai
Ligature2: "Ligature Substitution lookup 45 subtable" maieklowrightthai maiekthai
Substitution2: "Single Substitution lookup 44 subtable" maieklowleftthai
EndChar

StartChar: maitholowrightthai
Encoding: 140 140 110
AltUni2: 00f70b.ffffffff.0 000152.ffffffff.0
Width: 0
VWidth: 2048
Flags: W
LayerCount: 2
Fore
SplineSet
-491 953 m 1,0,1
 -475 953 -475 953 -463.5 950.5 c 128,-1,2
 -452 948 -452 948 -442.5 947 c 128,-1,3
 -433 946 -433 946 -424.5 947.5 c 128,-1,4
 -416 949 -416 949 -405 955 c 1,5,6
 -426 954 -426 954 -449 961.5 c 128,-1,7
 -472 969 -472 969 -483 984 c 0,8,9
 -509 1019 -509 1019 -510.5 1048 c 128,-1,10
 -512 1077 -512 1077 -499.5 1099 c 128,-1,11
 -487 1121 -487 1121 -465.5 1136.5 c 128,-1,12
 -444 1152 -444 1152 -423 1161 c 0,13,14
 -385 1177 -385 1177 -352 1171.5 c 128,-1,15
 -319 1166 -319 1166 -295.5 1144 c 128,-1,16
 -272 1122 -272 1122 -259.5 1085.5 c 128,-1,17
 -247 1049 -247 1049 -250 1003 c 0,18,19
 -252 979 -252 979 -262 967.5 c 128,-1,20
 -272 956 -272 956 -293 944 c 1,21,22
 -267 951 -267 951 -251.5 955 c 128,-1,23
 -236 959 -236 959 -226.5 962.5 c 128,-1,24
 -217 966 -217 966 -210.5 970.5 c 128,-1,25
 -204 975 -204 975 -196 983 c 128,-1,26
 -188 991 -188 991 -176 1004 c 128,-1,27
 -164 1017 -164 1017 -143 1037 c 1,28,29
 -115 1057 -115 1057 -91.5 1054 c 128,-1,30
 -68 1051 -68 1051 -54 1035.5 c 128,-1,31
 -40 1020 -40 1020 -37.5 998.5 c 128,-1,32
 -35 977 -35 977 -48 960 c 0,33,34
 -81 919 -81 919 -125.5 889 c 128,-1,35
 -170 859 -170 859 -227 844.5 c 128,-1,36
 -284 830 -284 830 -354 832.5 c 128,-1,37
 -424 835 -424 835 -508 858 c 1,38,39
 -520 868 -520 868 -524.5 882.5 c 128,-1,40
 -529 897 -529 897 -527 911.5 c 128,-1,41
 -525 926 -525 926 -516 937 c 128,-1,42
 -507 948 -507 948 -491 953 c 1,0,1
-423 1056 m 256,43,44
 -426 1036 -426 1036 -412.5 1027.5 c 128,-1,45
 -399 1019 -399 1019 -382 1019 c 128,-1,46
 -365 1019 -365 1019 -350.5 1026 c 128,-1,47
 -336 1033 -336 1033 -336 1045 c 0,48,49
 -333 1066 -333 1066 -345 1078 c 128,-1,50
 -357 1090 -357 1090 -373.5 1092 c 128,-1,51
 -390 1094 -390 1094 -405 1085 c 128,-1,52
 -420 1076 -420 1076 -423 1056 c 256,43,44
EndSplineSet
Ligature2: "Ligature Substitution lookup 46 subtable" maitaikhuthai maithothai maithothai
Ligature2: "Ligature Substitution lookup 45 subtable" yamakkanthai maithothai
Ligature2: "Ligature Substitution lookup 45 subtable" maitaikhuthai maithothai
Ligature2: "Ligature Substitution lookup 45 subtable" maitaikhuthai thanthakhatlowrightthai maithothai
Ligature2: "Ligature Substitution lookup 45 subtable" maitaikhuthai maichattawalowrightthai maithothai
Ligature2: "Ligature Substitution lookup 45 subtable" maitaikhuthai maitrilowrightthai maithothai
Ligature2: "Ligature Substitution lookup 45 subtable" maitaikhuthai maitholowrightthai maithothai
Ligature2: "Ligature Substitution lookup 45 subtable" maitaikhuthai maieklowrightthai maithothai
Ligature2: "Ligature Substitution lookup 45 subtable" thanthakhatlowrightthai maithothai
Ligature2: "Ligature Substitution lookup 45 subtable" maichattawalowrightthai maithothai
Ligature2: "Ligature Substitution lookup 45 subtable" maitrilowrightthai maithothai
Ligature2: "Ligature Substitution lookup 45 subtable" maitholowrightthai maithothai
Ligature2: "Ligature Substitution lookup 45 subtable" maieklowrightthai maithothai
Substitution2: "Single Substitution lookup 44 subtable" maitholowleftthai
EndChar

